<svg xmlns="http://www.w3.org/2000/svg" xmlns:xlink="http://www.w3.org/1999/xlink" viewBox="0 0 1420 876"><defs><style>.cls-1{fill:url(#名称未設定グラデーション_146);}.cls-2{fill:#c0c0c2;}.cls-3{fill:#d3d3d3;}.cls-4{fill:#edeeee;}.cls-11,.cls-12,.cls-21,.cls-5{fill:#fff;}.cls-6{fill:#4d4d4d;}.cls-7{fill:url(#名称未設定グラデーション_146-2);}.cls-17,.cls-8{fill:#fffae6;}.cls-13,.cls-19,.cls-20,.cls-9{fill:none;}.cls-17,.cls-21,.cls-9{stroke:#e6e6e6;}.cls-13,.cls-17,.cls-19,.cls-20,.cls-21,.cls-9{stroke-miterlimit:10;}.cls-10{fill:#ccc;}.cls-11{opacity:0.4;}.cls-12{opacity:0;}.cls-13{stroke:#4d4d4d;}.cls-14{fill:#7095ff;}.cls-15{fill:#1e1e1e;}.cls-16{fill:#ffa73f;}.cls-18{opacity:0.8;}.cls-19{stroke:#ccc;}.cls-20{stroke:#b3b3b3;}</style><linearGradient id="名称未設定グラデーション_146" x1="707.1" y1="-41.58" x2="713.33" y2="987.39" gradientUnits="userSpaceOnUse"><stop offset="0" stop-color="#50b4ff"/><stop offset="0.09" stop-color="#61bafd"/><stop offset="0.53" stop-color="#aed7f6"/><stop offset="0.84" stop-color="#dee9f2"/><stop offset="1" stop-color="#f0f0f0"/></linearGradient><linearGradient id="名称未設定グラデーション_146-2" x1="707.83" y1="80.97" x2="712.49" y2="851.29" xlink:href="#名称未設定グラデーション_146"/></defs><title>アセット 22</title><g id="レイヤー_2" data-name="レイヤー 2"><g id="レイヤー_1-2" data-name="レイヤー 1"><rect class="cls-1" width="1420" height="876"/><path class="cls-2" d="M921.34,810.3A66.06,66.06,0,0,1,855.5,876H562.82a65.89,65.89,0,0,1-65.7-65.7V65.7A65.89,65.89,0,0,1,562.82,0h294.5a65.73,65.73,0,0,1,65.56,65.7Z"/><path class="cls-3" d="M562.82,873.08A62.85,62.85,0,0,1,500,810.3V65.7A62.85,62.85,0,0,1,562.82,2.92h294.5A62.8,62.8,0,0,1,920,65.7l-1.54,744.59a63,63,0,0,1-62.92,62.79Z"/><path class="cls-4" d="M562.82,870.16A59.92,59.92,0,0,1,503,810.3V65.7A59.92,59.92,0,0,1,562.82,5.84h294.5A59.87,59.87,0,0,1,917,65.69l-1.54,744.6a60.09,60.09,0,0,1-60,59.87Z"/><path class="cls-5" d="M562.82,867.24a57,57,0,0,1-56.94-56.94V65.7A57,57,0,0,1,562.82,8.76h294.5a57,57,0,0,1,56.8,56.92l-1.54,744.6a57.17,57.17,0,0,1-57.08,57Z"/><path class="cls-5" d="M510.81,810.3V65.7a62.73,62.73,0,0,1,25.05-50.14,57,57,0,0,0-30,50.14V810.3a57,57,0,0,0,30,50.14A62.73,62.73,0,0,1,510.81,810.3Z"/><path class="cls-5" d="M908.92,810.3V65.7a62.73,62.73,0,0,0-25-50.14,57,57,0,0,1,30,50.14V810.3a57,57,0,0,1-30,50.14A62.73,62.73,0,0,0,908.92,810.3Z"/><rect class="cls-6" x="519.02" y="104.64" width="381.2" height="672.57" rx="2.19"/><path d="M521.21,777.2A2.19,2.19,0,0,1,519,775V106.83a2.19,2.19,0,0,1,2.19-2.19H898a2.19,2.19,0,0,1,2.19,2.19V775A2.19,2.19,0,0,1,898,777.2ZM898,775V106.83H521.21V775Z"/><rect class="cls-7" x="525" y="110" width="370" height="660"/><rect class="cls-8" x="558.25" y="657" width="303.5" height="50" rx="5"/><line class="cls-9" x1="854.16" y1="703.01" x2="563.31" y2="703.01"/><line class="cls-9" x1="854.16" y1="696.43" x2="563.31" y2="696.43"/><line class="cls-9" x1="854.16" y1="689.86" x2="563.31" y2="689.86"/><line class="cls-9" x1="854.16" y1="683.29" x2="563.31" y2="683.29"/><line class="cls-9" x1="854.16" y1="676.72" x2="563.31" y2="676.72"/><line class="cls-9" x1="854.16" y1="670.14" x2="563.31" y2="670.14"/><line class="cls-9" x1="581.04" y1="665.69" x2="581.04" y2="707"/><line class="cls-9" x1="574.46" y1="665.69" x2="574.46" y2="707"/><line class="cls-9" x1="567.89" y1="665.69" x2="567.89" y2="707"/><line class="cls-9" x1="587.61" y1="665.69" x2="587.61" y2="707"/><line class="cls-9" x1="594.19" y1="665.69" x2="594.19" y2="707"/><line class="cls-9" x1="600.77" y1="665.69" x2="600.77" y2="707"/><line class="cls-9" x1="607.34" y1="665.69" x2="607.34" y2="707"/><line class="cls-9" x1="613.92" y1="665.69" x2="613.92" y2="707"/><line class="cls-9" x1="620.49" y1="665.69" x2="620.49" y2="707"/><line class="cls-9" x1="627.07" y1="665.69" x2="627.07" y2="707"/><line class="cls-9" x1="633.65" y1="665.69" x2="633.65" y2="707"/><line class="cls-9" x1="640.22" y1="665.69" x2="640.22" y2="707"/><line class="cls-9" x1="646.8" y1="665.69" x2="646.8" y2="707"/><line class="cls-9" x1="653.37" y1="665.69" x2="653.37" y2="707"/><line class="cls-9" x1="659.95" y1="665.69" x2="659.95" y2="707"/><line class="cls-9" x1="666.52" y1="665.69" x2="666.52" y2="707"/><line class="cls-9" x1="673.1" y1="665.69" x2="673.1" y2="707"/><line class="cls-9" x1="679.68" y1="665.69" x2="679.68" y2="707"/><line class="cls-9" x1="686.25" y1="665.69" x2="686.25" y2="707"/><line class="cls-9" x1="692.83" y1="665.69" x2="692.83" y2="707"/><line class="cls-9" x1="699.4" y1="665.69" x2="699.4" y2="707"/><line class="cls-9" x1="705.98" y1="665.69" x2="705.98" y2="707"/><line class="cls-9" x1="712.56" y1="665.69" x2="712.56" y2="707"/><line class="cls-9" x1="719.13" y1="665.69" x2="719.13" y2="707"/><line class="cls-9" x1="725.71" y1="665.69" x2="725.71" y2="707"/><line class="cls-9" x1="732.28" y1="665.69" x2="732.28" y2="707"/><line class="cls-9" x1="738.86" y1="665.69" x2="738.86" y2="707"/><line class="cls-9" x1="745.43" y1="665.69" x2="745.43" y2="707"/><line class="cls-9" x1="752.01" y1="665.69" x2="752.01" y2="707"/><line class="cls-9" x1="758.59" y1="665.69" x2="758.59" y2="707"/><line class="cls-9" x1="765.16" y1="665.69" x2="765.16" y2="707"/><line class="cls-9" x1="771.74" y1="665.69" x2="771.74" y2="707"/><line class="cls-9" x1="778.31" y1="665.69" x2="778.31" y2="707"/><line class="cls-9" x1="784.89" y1="665.69" x2="784.89" y2="707"/><line class="cls-9" x1="791.47" y1="665.69" x2="791.47" y2="707"/><line class="cls-9" x1="798.04" y1="665.69" x2="798.04" y2="707"/><line class="cls-9" x1="804.62" y1="665.69" x2="804.62" y2="707"/><line class="cls-9" x1="811.19" y1="665.69" x2="811.19" y2="707"/><line class="cls-9" x1="817.77" y1="665.69" x2="817.77" y2="707"/><line class="cls-9" x1="824.34" y1="665.69" x2="824.34" y2="707"/><line class="cls-9" x1="830.92" y1="665.69" x2="830.92" y2="707"/><line class="cls-9" x1="837.5" y1="665.69" x2="837.5" y2="707"/><line class="cls-9" x1="844.07" y1="665.69" x2="844.07" y2="707"/><ellipse class="cls-10" cx="570.17" cy="676.83" rx="5.42" ry="5.41"/><ellipse class="cls-10" cx="570.17" cy="691.8" rx="5.42" ry="5.41"/><path class="cls-10" d="M564.75,707a5.42,5.42,0,0,1,10.84,0"/><path d="M599.07,692l-.48.09a25.93,25.93,0,0,1-2.83.48v2.77a11.5,11.5,0,0,1,3.44-.57,5.37,5.37,0,0,1,2.83.67,3.29,3.29,0,0,1-1.61,6.14,2.36,2.36,0,0,1-2.47-1.8,5.87,5.87,0,0,1-.19-1.81,3.36,3.36,0,0,0,1.06-.42,3.84,3.84,0,0,0,0,.63c0,1.66.48,2.35,1.65,2.35a2.13,2.13,0,0,0,2.15-2.26c0-1.57-1.33-2.54-3.43-2.54a10.82,10.82,0,0,0-3.39.62v4c0,.87-.38,1.28-1.17,1.28a4.23,4.23,0,0,1-2.64-1,1.92,1.92,0,0,1-.74-1.51,2.87,2.87,0,0,1,1.27-2.12,8.63,8.63,0,0,1,2.26-1.32v-3l-.65,0h-2.52v-1.06a9,9,0,0,0,1.63.11c.43,0,1,0,1.54-.05v-1.58a11.25,11.25,0,0,0-.08-1.52h1.18a9.65,9.65,0,0,0-.08,1.49v1.53a15.27,15.27,0,0,0,3.26-.69Zm-4.33,4.72c-1.59.77-2.49,1.63-2.49,2.4q0,.51.69,1a3,3,0,0,0,1.43.46c.32,0,.37-.09.37-.78Zm8.78-3a13.22,13.22,0,0,0-3.23-3.14l.83-.62a13.51,13.51,0,0,1,3.23,3Z"/><path d="M613.12,689.36A7.71,7.71,0,0,0,613,688h1.18a5.62,5.62,0,0,0-.11,1.36v.12h4a9.14,9.14,0,0,0,1.72-.1v1.07a13.67,13.67,0,0,0-1.72-.08h-9.28v2.82c0,4.91-.58,7.15-2.35,9.35a3,3,0,0,0-.87-.71,6.89,6.89,0,0,0,1.51-2.45,10.58,10.58,0,0,0,.6-3c-.33.21-1.12.68-1.72,1-.16.08-.42.24-.48.28l-.42-1a11.05,11.05,0,0,0,2.67-1.2c0-.3,0-.57,0-1.79v-.27a32.63,32.63,0,0,0-.1-4,16.41,16.41,0,0,0,1.78.08h3.57Zm-7,1.56a15.79,15.79,0,0,1,1.19,2.93l-.85.44a13.12,13.12,0,0,0-1.14-3Zm5.06,5.46a9.9,9.9,0,0,1-2,6.08,3.26,3.26,0,0,0-.82-.59c1.43-1.7,1.92-3.75,1.92-7.88a15.52,15.52,0,0,0-.09-1.78,13.6,13.6,0,0,0,1.61.07h2.4v-.1a6.38,6.38,0,0,0-.09-1.38h1.12a8.35,8.35,0,0,0-.08,1.38v.1h2.08a9.74,9.74,0,0,0,1.71-.08l.63.49a10.66,10.66,0,0,0-.76,1.22c-.19.32-.43.67-.78,1.15a2.92,2.92,0,0,0-.86-.38,6.81,6.81,0,0,0,1.07-1.54h-3.09v2.42h1.28a7.65,7.65,0,0,0,1.47-.08l.64.61a3.93,3.93,0,0,0-.35.54,13.48,13.48,0,0,1-2.48,3.12,12.41,12.41,0,0,0,4.42,1.79,2.63,2.63,0,0,0-.63,1,13.62,13.62,0,0,1-4.51-2.13,15.14,15.14,0,0,1-3.94,2.13,2.63,2.63,0,0,0-.65-.8,14.13,14.13,0,0,0,3.85-1.94,8.09,8.09,0,0,1-2.25-3.39Zm3-.82v-2.42h-3v1.3c0,.37,0,.61,0,1.12Zm-1.26.82a6.66,6.66,0,0,0,2,2.81,9.25,9.25,0,0,0,2.26-2.81Z"/><path d="M620.83,698.3a24.71,24.71,0,0,0,2.82-2.71c0-.64,0-1.65.09-3.06a16.71,16.71,0,0,0-2.51.23l-.06-1.11a2.53,2.53,0,0,0,.49,0l2.1-.13c0-1.22.06-1.94.06-2.15a5.29,5.29,0,0,0-.05-.8l1.27,0a18.06,18.06,0,0,0-.19,2.85,1.16,1.16,0,0,0,.32-.08l.41.49a5.84,5.84,0,0,0-.81,1,2.24,2.24,0,0,1,0,.4c0,.32,0,.32,0,1.07a.64.64,0,0,1,0,.14c0,.13,0,.16,0,.26h0a11.48,11.48,0,0,1,2-1.87,6.44,6.44,0,0,1,3.62-1.76,1.74,1.74,0,0,1,1.87,1.87,10.22,10.22,0,0,1-.37,2.34,17.52,17.52,0,0,0-.68,3.79c0,.74.33,1.14,1,1.14a1.94,1.94,0,0,0,1.36-.88,6.58,6.58,0,0,0,.91-1.84,4.85,4.85,0,0,0,.74,1.09,7.53,7.53,0,0,1-1,1.58,2.75,2.75,0,0,1-2.21,1.16,2,2,0,0,1-1.12-.34,2,2,0,0,1-.75-1.83,15.34,15.34,0,0,1,.61-3.72,12,12,0,0,0,.4-2.41.81.81,0,0,0-.88-.86,4.54,4.54,0,0,0-2.42,1.09A25.19,25.19,0,0,0,624.7,696v3.46a23.77,23.77,0,0,0,0,2.65H623.5a12.85,12.85,0,0,0,.11-2.64c0-1.87,0-1.87,0-2.59h0a1.39,1.39,0,0,1-.29.38l-.78.88-.67.76a2.69,2.69,0,0,0-.42.51Z"/><path d="M637.79,689.75a10.09,10.09,0,0,0-.08-1.67h1.12a11.11,11.11,0,0,0-.08,1.65v1.57h.63a5.56,5.56,0,0,0,1-.06v1c-.3,0-.62,0-1,0h-.58a8.76,8.76,0,0,0,1.49,2.6,7.24,7.24,0,0,0-.56.87,11.14,11.14,0,0,1-1-2.24c0,1.34.06,2.05.06,2.61v4.85a11.94,11.94,0,0,0,.1,1.85h-1.16a12.47,12.47,0,0,0,.1-1.85v-4.53c0-.64,0-.64.05-1.41,0-.1,0-.39,0-.79,0-.12,0-.32,0-.59a13.26,13.26,0,0,1-1,3.09,12.73,12.73,0,0,1-1,1.81,4,4,0,0,0-.61-1,9.06,9.06,0,0,0,1.5-2.53,16.84,16.84,0,0,0,.9-2.75h-.83a6.74,6.74,0,0,0-1.12.06v-1a6.39,6.39,0,0,0,1.12.06h1Zm4.18,1.46a7.49,7.49,0,0,0-1.39.08v-1a8.62,8.62,0,0,0,1.4.08h.85a7.4,7.4,0,0,0-1-1.76l.85-.37a9.91,9.91,0,0,1,1.15,2.13h1.86a10.43,10.43,0,0,0,1.09-2.16l.94.33c-.25.51-.78,1.44-1,1.83h1.41a8.67,8.67,0,0,0,1.45-.1v1a9.93,9.93,0,0,0-1.45-.09h-2.92v1.37h2.42a9.25,9.25,0,0,0,1.46-.09v1a9.59,9.59,0,0,0-1.44-.08h-2.44v1.44h3.14a10.27,10.27,0,0,0,1.46-.09v1a8.87,8.87,0,0,0-1.44-.1h-3.06a8.57,8.57,0,0,0,1.31,2.4,8.76,8.76,0,0,0,1.75-2.06l.81.57a12.27,12.27,0,0,1-2,2.18,9.08,9.08,0,0,0,3,2.24,4.19,4.19,0,0,0-.67.93,11.63,11.63,0,0,1-2.35-1.84A10,10,0,0,1,645,696.9a13.11,13.11,0,0,1,.12,1.59v3c0,.86-.3,1.09-1.5,1.09a11.62,11.62,0,0,1-1.31-.07,2.76,2.76,0,0,0-.29-1,9.6,9.6,0,0,0,1.58.15c.47,0,.56-.07.56-.35v-2.26a21.36,21.36,0,0,1-3.39,2.06,6.85,6.85,0,0,0-.72.43l-.46-1a17,17,0,0,0,4.57-2.43v-2.31H641.7a8.5,8.5,0,0,0-1.38.08v-1a10.54,10.54,0,0,0,1.39.06h2.48v-1.44h-1.77a8.54,8.54,0,0,0-1.4.08v-1a7.2,7.2,0,0,0,1.36.08h1.81v-1.37Zm-.59,4.91a15.83,15.83,0,0,1,1.52,1.94l-.74.52a10.1,10.1,0,0,0-1.5-2Z"/><rect class="cls-11" x="525" y="704" width="370" height="66"/><rect class="cls-12" x="828.29" y="705" width="48" height="64"/><path class="cls-13" d="M850.19,757.77s23.43,16-18.26,9.82"/><path class="cls-14" d="M872.6,733.88c-.75,10.75-10.26,24.45-21,23.7s-18.68-15.67-17.93-26.42a19.52,19.52,0,1,1,38.94,2.72Z"/><polygon class="cls-14" points="851.03 754.89 846.7 759.52 854.3 760.32 851.03 754.89"/><path class="cls-15" d="M840.56,732.42a.59.59,0,0,1,0-1.17h4a.59.59,0,0,1,0,1.17Zm.59,8.66a.7.7,0,0,1-.8-.8v-2.44a.7.7,0,0,1,.8-.8h2.72a.7.7,0,0,1,.8.8v2.44a.7.7,0,0,1-.8.8ZM841,730.49a.59.59,0,0,1,0-1.17h3.16a.59.59,0,0,1,0,1.17Zm0,5.79a.59.59,0,0,1,0-1.17h3.16a.59.59,0,0,1,0,1.17Zm0-1.93a.59.59,0,0,1,0-1.17h3.14a.59.59,0,0,1,0,1.17Zm2.44,4c0-.11-.06-.16-.17-.16h-1.49a.14.14,0,0,0-.16.16v1.4a.14.14,0,0,0,.16.16h1.49c.11,0,.17,0,.17-.16ZM850.5,734c-.69,0-1-.4-1-1.17v-2.21c0-.08,0-.1-.14-.1h-1.87c-.08,0-.11,0-.11.11-.06,1.62-.36,2.69-1.55,3.45a.6.6,0,0,1-.33.1.75.75,0,0,1-.7-.72.55.55,0,0,1,.28-.48c.89-.61,1-1.13,1-2.9a.74.74,0,0,1,.83-.8h3a.73.73,0,0,1,.83.83v2.37c0,.19,0,.28.19.28s.29-.2.38-1.48a.5.5,0,0,1,.52-.52.62.62,0,0,1,.62.63v.07c-.19,1.82-.33,2.54-1.28,2.54Zm0,1.84s0-.09-.11-.09h-4.87a.58.58,0,0,1-.56-.62.57.57,0,0,1,.56-.62h5.27c.7,0,1.07.37,1.07,1a7.12,7.12,0,0,1-2,3.81,13.6,13.6,0,0,0,2.12.68.62.62,0,0,1,.5.61.68.68,0,0,1-.67.7,9.43,9.43,0,0,1-3-1.17,10.9,10.9,0,0,1-3.18,1.17.18.18,0,0,1-.1,0c-.35,0-.64-.43-.64-.8a.46.46,0,0,1,.4-.48,11.52,11.52,0,0,0,2.38-.71,6.17,6.17,0,0,1-1.92-2.75.65.65,0,0,1,.67-.6.46.46,0,0,1,.43.25,6.63,6.63,0,0,0,2,2.44,5,5,0,0,0,1.75-2.76Z"/><path class="cls-15" d="M865.66,739.55a.55.55,0,0,1,.57.61.76.76,0,0,1-.64.8c-1,0-2.19,0-3.51,0-2.25,0-4-.29-5.53-2-.47,1-1.34,2.38-1.85,2.38a1,1,0,0,1-.84-.88.6.6,0,0,1,.17-.4,7.72,7.72,0,0,0,2-4.41.58.58,0,0,1,.63-.51.68.68,0,0,1,.74.61s0,.06,0,.09a15.56,15.56,0,0,1-.37,1.81,4.68,4.68,0,0,0,2.26,1.65v-5.19H855.6a.59.59,0,0,1-.57-.64.58.58,0,0,1,.57-.63h8.85a.57.57,0,0,1,.56.63.58.58,0,0,1-.56.64h-3.74v1.77h3.19a.65.65,0,0,1,0,1.29h-3.19v2.44a12.23,12.23,0,0,0,1.37.06c1.1,0,1.73,0,3.53-.12Zm-1.16-8.08c0-.14-.15-.2-.29-.2h-8.47c-.14,0-.21.06-.21.2v1c0,.31-.35.47-.69.47s-.69-.16-.69-.47V731a.89.89,0,0,1,1-1h4.11v-.63c0-.29.39-.43.77-.43s.76.14.76.43V730h4.11a.89.89,0,0,1,1,1v1.47c0,.3-.34.47-.69.47s-.69-.17-.69-.47Z"/><rect class="cls-12" x="733.29" y="705" width="48" height="64"/><path class="cls-13" d="M755.19,757.77s23.43,16-18.26,9.82"/><path class="cls-14" d="M777.6,733.88c-.75,10.75-10.26,24.45-21,23.7s-18.68-15.67-17.93-26.42a19.52,19.52,0,1,1,38.94,2.72Z"/><polygon class="cls-14" points="756.03 754.89 751.7 759.52 759.3 760.32 756.03 754.89"/><path class="cls-15" d="M745.79,734.78c-.14.3-.32.41-.48.41a.81.81,0,0,1-.68-.81.51.51,0,0,1,.11-.34,11.13,11.13,0,0,0,2-4.69.55.55,0,0,1,.59-.41c.33,0,.69.19.69.52a.49.49,0,0,1,0,.12,19.19,19.19,0,0,1-.94,3v8.17a.56.56,0,0,1-.62.57.57.57,0,0,1-.62-.57Zm7.43,1.37a13,13,0,0,0,3.56,3.36.5.5,0,0,1,.23.43.8.8,0,0,1-.72.77c-.48,0-2.48-1.86-3.55-3.56v3.61a.58.58,0,0,1-.64.55.55.55,0,0,1-.6-.55v-3.61c-1.17,1.93-3,3.52-3.45,3.52a.82.82,0,0,1-.72-.78.51.51,0,0,1,.24-.44,12.13,12.13,0,0,0,3.5-3.3h-3a.58.58,0,0,1-.57-.63.57.57,0,0,1,.57-.62h3.46v-1.08h-2.29a.88.88,0,0,1-1-1v-2.51a.88.88,0,0,1,1-1h6a.88.88,0,0,1,1,1v2.51a.88.88,0,0,1-1,1h-2.52v1.08h3.65a.57.57,0,0,1,.57.62.58.58,0,0,1-.57.63Zm1.79-5.38a.19.19,0,0,0-.21-.21h-5.14a.18.18,0,0,0-.2.21v1.6a.18.18,0,0,0,.2.21h5.14a.19.19,0,0,0,.21-.21Z"/><path class="cls-15" d="M763.63,731.83a12.7,12.7,0,0,1-2.32,2.91v6c0,.38-.34.56-.69.56s-.69-.18-.69-.56v-4.95c-.51.34-.67.37-.78.37a.85.85,0,0,1-.77-.84.47.47,0,0,1,.23-.44,10.63,10.63,0,0,0,3.42-3.09h-2.8a.59.59,0,0,1-.56-.65.58.58,0,0,1,.56-.64h3.53a13.4,13.4,0,0,0,.54-1.25.58.58,0,0,1,.58-.33c.37,0,.77.22.77.56a4.47,4.47,0,0,1-.37,1h5.92a.58.58,0,0,1,.57.64.59.59,0,0,1-.57.65Zm5,7.42c0,1.47-1.07,2.06-2.75,2.06h-.24a6.26,6.26,0,0,1-2.45-.58.6.6,0,0,1-.37-.55.66.66,0,0,1,.66-.66,1.38,1.38,0,0,1,.26,0,6.76,6.76,0,0,0,1.86.46h.15c.9,0,1.37-.33,1.39-.88V739a2.37,2.37,0,0,0-.59-1.5h-4.23a.58.58,0,0,1-.56-.62.57.57,0,0,1,.56-.62h3.09a1.8,1.8,0,0,1-.19-.21.37.37,0,0,1-.1-.26.76.76,0,0,1,.51-.65c.73-.28,1.51-.66,2.41-1.1h-4.34a.6.6,0,0,1-.62-.61.59.59,0,0,1,.62-.59H769c.69,0,1,.38,1,.8a1.05,1.05,0,0,1-.51.85,17.25,17.25,0,0,1-2.51,1.34c-.16.07-.22.14-.22.21a.1.1,0,0,0,.06.09l.11.13h3.33a.56.56,0,0,1,.57.62.57.57,0,0,1-.57.62H768a2.8,2.8,0,0,1,.58,1.65Z"/><rect class="cls-12" x="637.29" y="705" width="48" height="64"/><path class="cls-13" d="M657.84,757.53s2.14,4.82-.59,11.47"/><path class="cls-16" d="M684.13,729.5c-.88,12.61-12,28.68-24.65,27.8s-21.91-18.38-21-31a22.9,22.9,0,1,1,45.68,3.2Z"/><polygon class="cls-16" points="658.83 754.14 653.75 759.58 662.66 760.52 658.83 754.14"/><path class="cls-15" d="M653.64,733c-.85,1.71-3.08,4.52-3.93,4.52a1.09,1.09,0,0,1-1-1,.73.73,0,0,1,.36-.63,17.12,17.12,0,0,0,4.2-4.27h-3.1a.67.67,0,0,1-.66-.43,15.59,15.59,0,0,1-1.53.7v4.68c0,1.23-.45,1.84-1.82,1.84s-2-.29-2-1a.78.78,0,0,1,.68-.86l.2,0a3.77,3.77,0,0,0,.84.17c.29,0,.33-.17.33-.47v-3.73a9.6,9.6,0,0,1-1.21.31,1,1,0,0,1-.86-1,.65.65,0,0,1,.54-.67c.52-.1,1-.25,1.53-.39v-3.6H645.2a.76.76,0,0,1-.74-.81.75.75,0,0,1,.74-.81h1.06V723a.77.77,0,0,1,.86-.73c.44,0,.87.23.87.73v2.49h.93a.65.65,0,0,1,.42.12V724a1.19,1.19,0,0,1,1.22-1.22h8.15a1.19,1.19,0,0,1,1.23,1.22v1.62a.5.5,0,0,1-.16.38,1,1,0,0,1,.61.83.78.78,0,0,1,0,.21c-.54,1.77-1.17,1.84-2.32,1.84h-1a1.66,1.66,0,0,1-1.81-1.84v-1.65a.84.84,0,0,1,1.67,0v1.35c0,.3.07.52.4.52H658c.61,0,.66-.11.82-.72a1,1,0,0,1,.15-.33c-.34-.05-.63-.25-.63-.59v-1a.19.19,0,0,0-.22-.22h-6.93c-.14,0-.21.07-.21.22v1.15c0,.41-.4.61-.81.61a1,1,0,0,1-.49-.11.75.75,0,0,1-.74.78H648v3c.34-.12.68-.27,1-.41a.76.76,0,0,1,.31-.07.55.55,0,0,1,.5.43.92.92,0,0,1,.38-.09h3.46v-1a.85.85,0,0,1,1.69,0v1h4.09a.8.8,0,0,1,0,1.6h-3.8a20.76,20.76,0,0,0,4.44,4.27.69.69,0,0,1,.33.59,1.13,1.13,0,0,1-1,1.06.82.82,0,0,1-.49-.19,18.78,18.78,0,0,1-3.56-4.31v4.77a.85.85,0,0,1-1.69,0Zm-3.58-3.69a.44.44,0,0,1-.15,0,1.06,1.06,0,0,1-.95-1.06.69.69,0,0,1,.65-.7c1.87-.25,2.55-1,2.89-2.4a.63.63,0,0,1,.65-.5.93.93,0,0,1,1,.81.55.55,0,0,1,0,.18A4.57,4.57,0,0,1,650.06,729.29Z"/><path class="cls-15" d="M677.87,726l-4.27-.07c0,1.31,0,2.63,0,3.62a5.16,5.16,0,0,1,.32,1.87c0,3.47-1.24,6.17-6.14,7l-.18,0a1,1,0,0,1-1-1,.8.8,0,0,1,.73-.81c3-.52,4.2-1.6,4.7-3.08a4.76,4.76,0,0,1-2.81.83c-3,0-4.46-1.46-4.46-3.58s1.69-3.69,4.55-3.69a4.85,4.85,0,0,1,2.54.61c0-.54,0-1.15,0-1.71h-1.14c-2.62,0-5.27.05-8,.14h0c-.48,0-.71-.45-.71-.88s.21-.84.66-.84q4.65-.06,9.11-.06c0-.36,0-.72-.07-1.06v-.07c0-.47.45-.72.93-.72a.85.85,0,0,1,.94.75c0,.35,0,.72,0,1.08l4.34,0a.77.77,0,0,1,.74.85.78.78,0,0,1-.74.86Zm-8.52,2.68c-1.76,0-2.77.83-2.77,2.09,0,1,.88,1.87,2.65,1.87s2.89-.63,2.89-2.17C672.12,729.47,671.1,728.66,669.35,728.66Z"/><rect class="cls-12" x="542" y="705" width="48" height="64"/><path class="cls-13" d="M563.9,757.77s23.43,16-18.26,9.82"/><path class="cls-14" d="M586.31,733.88c-.75,10.75-10.26,24.45-21,23.7s-18.68-15.67-17.93-26.42a19.52,19.52,0,1,1,38.94,2.72Z"/><polygon class="cls-14" points="564.74 754.89 560.41 759.52 568.01 760.32 564.74 754.89"/><path class="cls-15" d="M553.86,736.18h-1.62c-.06,2.27-.58,3.58-1.81,4.74a.56.56,0,0,1-.39.16.69.69,0,0,1-.68-.65.56.56,0,0,1,.2-.44c1.11-1,1.49-1.79,1.54-3.81h-1.23a.47.47,0,0,1-.49-.52.52.52,0,0,1,.49-.56h1.24v-1a5.72,5.72,0,0,1-1,.34.68.68,0,0,1-.59-.68.39.39,0,0,1,.3-.38,7.46,7.46,0,0,0,2.89-1.38A.35.35,0,0,1,553,732a.61.61,0,0,1,.55.59c0,.29-.31.53-1.25,1.07v1.48h1.61v-2.59c0-.33.31-.49.61-.49a.53.53,0,0,1,.59.49v2.59h1.2a1.05,1.05,0,0,1,1.08,1.17c0,1.94.26,2.72.75,3.38.1.15.21.23.31.23s.43-.39.66-1.24a8.28,8.28,0,0,0-1.13-.6.44.44,0,0,1-.28-.39.54.54,0,0,1,.3-.47.6.6,0,0,1-.27-.48.44.44,0,0,1,.25-.4,5.26,5.26,0,0,0,.83-.57.79.79,0,0,1-.3,0c-1,0-2.24-1.53-2.24-3.81,0-.09,0-.18-.14-.18h-5.75a.47.47,0,0,1-.49-.52.52.52,0,0,1,.49-.56h6a.88.88,0,0,1,1,1c0,2.42,1,2.91,1.14,2.91s.36-.3.56-1c-.31-.17-.75-.38-1.13-.55a.4.4,0,0,1-.21-.38.62.62,0,0,1,.27-.52.68.68,0,0,1-.31-.54.37.37,0,0,1,.24-.35,4.79,4.79,0,0,0,1.05-.63.32.32,0,0,1,.23-.08.65.65,0,0,1,.53.63.46.46,0,0,1-.17.36,3.69,3.69,0,0,1-1.11.65c.88.37,1.18.51,1.18.83a.46.46,0,0,1-.06.23.71.71,0,0,1,.57.64,3.21,3.21,0,0,1-.94,1.58.57.57,0,0,1,.49.54.49.49,0,0,1-.17.37,5.47,5.47,0,0,1-1.16.78,9,9,0,0,1,1.27.58.44.44,0,0,1,.25.39.45.45,0,0,1,0,.16.68.68,0,0,1,.37.57c0,.17-.71,2.32-1.83,2.32-.7,0-2.23-1.11-2.23-4.76,0-.19-.06-.25-.2-.25h-.9v4.54a.53.53,0,0,1-.59.49c-.3,0-.61-.16-.61-.49Z"/><path class="cls-15" d="M563.25,736.47a10.88,10.88,0,0,0,.4,3.44.9.9,0,0,1,0,.28.69.69,0,0,1-1.37.09,15.74,15.74,0,0,1-.33-3.56,22.56,22.56,0,0,1,.67-5.56.64.64,0,0,1,.64-.45.57.57,0,0,1,.62.5,1,1,0,0,1,0,.16,15.68,15.68,0,0,0-.65,4.5Zm8.3-3.87c.3,0,.45.29.45.57a.51.51,0,0,1-.42.55c-.53.06-1.16.11-1.85.13,0,.09.07,2.55.07,3.74a15.43,15.43,0,0,1,2,1.15.63.63,0,0,1,.3.55.65.65,0,0,1-.59.68.69.69,0,0,1-.39-.15c-.37-.27-.83-.59-1.32-.88-.15,1.75-1.26,2.2-2.68,2.2-1.62,0-2.76-.94-2.76-2.31s1.08-2,2.64-2a5.29,5.29,0,0,1,1.59.3c0-1,0-2.11-.06-3.22h-.81c-.88,0-1.81,0-2.71,0a.6.6,0,0,1-.58-.63.52.52,0,0,1,.54-.54H565c1,.07,2,.1,2.93.1h.53c0-.68,0-1.29,0-1.79v0c0-.33.31-.5.62-.5a.54.54,0,0,1,.59.51c0,.47,0,1.07,0,1.76.69,0,1.3-.08,1.79-.13Zm-2.95,5.73a4.26,4.26,0,0,0-1.6-.39c-.91,0-1.38.36-1.38.93s.55,1.1,1.5,1.1,1.48-.32,1.48-1.46Zm2.57-6a.4.4,0,0,1-.36-.23,7.3,7.3,0,0,0-.63-.94.39.39,0,0,1,.33-.64.4.4,0,0,1,.32.17,4.11,4.11,0,0,1,.79,1.23A.45.45,0,0,1,571.17,732.33Zm1.18-.53a.39.39,0,0,1-.33-.19,7.07,7.07,0,0,0-.64-.88.42.42,0,0,1-.11-.25.4.4,0,0,1,.41-.37c.18,0,.37.1,1,1.09a.37.37,0,0,1,.08.22A.43.43,0,0,1,572.35,731.8Z"/><path class="cls-15" d="M584,732.83c-.94,0-1.89,0-2.86-.05,0,.88,0,1.76,0,2.42a3.54,3.54,0,0,1,.21,1.26c0,2.33-.83,4.14-4.11,4.65l-.12,0a.69.69,0,0,1-.69-.69.54.54,0,0,1,.5-.54c2-.35,2.81-1.08,3.15-2.07a3.23,3.23,0,0,1-1.89.56c-2,0-3-1-3-2.4s1.14-2.47,3-2.47a3.23,3.23,0,0,1,1.71.41c0-.37,0-.78,0-1.15h-.76c-1.76,0-3.53,0-5.34.1h0a.53.53,0,0,1-.48-.59c0-.28.14-.57.45-.57,2.07,0,4.11,0,6.1,0,0-.24,0-.48,0-.71v-.05c0-.31.3-.48.63-.48a.56.56,0,0,1,.62.51c0,.23,0,.48,0,.72H584a.52.52,0,0,1,.49.57.53.53,0,0,1-.49.58Zm-5.7,1.8c-1.19,0-1.86.55-1.86,1.39,0,.66.59,1.26,1.77,1.26s1.94-.42,1.94-1.46C580.13,735.17,579.45,734.63,578.28,734.63Z"/><rect class="cls-17" x="558.25" y="486.21" width="303.5" height="136.5" rx="5"/><g class="cls-18"><ellipse class="cls-10" cx="570.17" cy="506.04" rx="5.42" ry="5.41"/><ellipse class="cls-10" cx="570.17" cy="521.01" rx="5.42" ry="5.41"/><ellipse class="cls-10" cx="570.17" cy="535.98" rx="5.42" ry="5.41"/><ellipse class="cls-10" cx="570.17" cy="550.95" rx="5.42" ry="5.41"/><ellipse class="cls-10" cx="570.17" cy="565.92" rx="5.42" ry="5.41"/><ellipse class="cls-10" cx="570.17" cy="580.89" rx="5.42" ry="5.41"/><ellipse class="cls-10" cx="570.17" cy="595.86" rx="5.42" ry="5.41"/><ellipse class="cls-10" cx="570.17" cy="610.83" rx="5.42" ry="5.41"/></g><g class="cls-18"><line class="cls-19" x1="849.24" y1="523.79" x2="581.15" y2="523.79"/><line class="cls-19" x1="849.24" y1="538.79" x2="581.15" y2="538.79"/><line class="cls-20" x1="849.24" y1="538.79" x2="581.15" y2="538.79"/><line class="cls-19" x1="849.24" y1="551.94" x2="581.15" y2="551.94"/><line class="cls-19" x1="849.24" y1="565.08" x2="581.15" y2="565.08"/><line class="cls-19" x1="581.15" y1="578.23" x2="849.24" y2="578.23"/><line class="cls-19" x1="849.24" y1="591.37" x2="581.15" y2="591.37"/><line class="cls-19" x1="849.24" y1="604.51" x2="581.15" y2="604.51"/><line class="cls-19" x1="849.24" y1="617.66" x2="581.15" y2="617.66"/></g><path d="M594.58,524.91c-1,.86-1.53,1.6-1.53,2.35s.47,1.27,1.37,1.57a10,10,0,0,0,2.92.32,15.15,15.15,0,0,0,4.81-.61l.14,1.32a3.21,3.21,0,0,0-.54.08,26.26,26.26,0,0,1-4.33.36,11.48,11.48,0,0,1-3.68-.49,2.55,2.55,0,0,1-1.82-2.42,4.21,4.21,0,0,1,1.84-3.09Zm-1.69-5.84a18.5,18.5,0,0,0,4.26.38,17.78,17.78,0,0,0,4.05-.33l.08,1a23.06,23.06,0,0,0-4,2.44l-.82-.66c1-.69,1.41-.93,2.13-1.33l.4-.21a3.16,3.16,0,0,0,.31-.16,12.78,12.78,0,0,1-2.42.21,30.83,30.83,0,0,1-3.52-.21,4.17,4.17,0,0,0-.53,0Z"/><path d="M605.2,527.44a24.05,24.05,0,0,0,2.81-2.71c0-.64,0-1.65.1-3.05a16.17,16.17,0,0,0-2.51.22l-.07-1.1a3.56,3.56,0,0,0,.5,0l2.1-.13c0-1.22.06-1.94.06-2.14a7.19,7.19,0,0,0-.05-.81l1.27,0a19.05,19.05,0,0,0-.2,2.85,1.14,1.14,0,0,0,.33-.08l.41.5a5.16,5.16,0,0,0-.82,1c0,.18,0,.3,0,.4,0,.32,0,.32,0,1.07a.69.69,0,0,1,0,.15c0,.12,0,.16,0,.25l0,0a11.36,11.36,0,0,1,2-1.88,6.51,6.51,0,0,1,3.62-1.76,1.74,1.74,0,0,1,1.87,1.88,10.85,10.85,0,0,1-.37,2.33,17.86,17.86,0,0,0-.69,3.8c0,.73.34,1.13,1,1.13a1.94,1.94,0,0,0,1.37-.88,7,7,0,0,0,.91-1.84,5.22,5.22,0,0,0,.73,1.09,7.55,7.55,0,0,1-1,1.59,2.76,2.76,0,0,1-2.21,1.15,1.85,1.85,0,0,1-1.87-2.16,15.38,15.38,0,0,1,.61-3.73,12.06,12.06,0,0,0,.4-2.4.82.82,0,0,0-.88-.87,4.51,4.51,0,0,0-2.42,1.09,27.1,27.1,0,0,0-3.09,2.72v3.46a23.9,23.9,0,0,0,0,2.66h-1.25a13,13,0,0,0,.11-2.64c0-1.88,0-1.88,0-2.6h0a1.87,1.87,0,0,1-.29.39l-.78.88-.68.75a4,4,0,0,0-.41.51Z"/><path d="M624.93,519.8a6.82,6.82,0,0,0,.77-2.19l1.28.22a3.13,3.13,0,0,0-.42.87c-.21.51-.42.94-.5,1.09l.34,0a22.48,22.48,0,0,0,5-.61l.1,1.09a5.32,5.32,0,0,0-.64.08,51.89,51.89,0,0,1-5.28.42,11.51,11.51,0,0,1-1.45,2.27,6.59,6.59,0,0,1-.54.61l-.21.16s0,0,0,0h0a.09.09,0,0,0,0,0l.73-.56a4.29,4.29,0,0,1,2.42-.78,2,2,0,0,1,2.12,1.77c1.16-.46,2.08-.8,2.78-1a3.7,3.7,0,0,0,1.09-.47l.51,1.12a27.79,27.79,0,0,0-4.27,1.41c0,.42,0,.58,0,1,0,.21,0,.56,0,.88s0,.57,0,.72a3.63,3.63,0,0,0,0,.57l-1.09,0a22.14,22.14,0,0,0,.1-2.31,3.47,3.47,0,0,0,0-.48c-2.18,1-3,1.78-3,2.74s1,1.52,3.25,1.52a13.31,13.31,0,0,0,4.27-.62l.15,1.23-.64.08A24.69,24.69,0,0,1,628,531c-2.87,0-4.26-.82-4.26-2.46a3.29,3.29,0,0,1,1.63-2.53,12.53,12.53,0,0,1,2.39-1.28c-.13-.88-.51-1.27-1.27-1.27a6,6,0,0,0-3.57,1.7,5.33,5.33,0,0,0-1.23,1.33l-.89-.9a16,16,0,0,0,3.58-4.58l.15-.24a1.55,1.55,0,0,1-.31,0l-2.35,0h-.61l0-1.1a22.81,22.81,0,0,0,3.42.17Z"/><path d="M638.91,527.1c-.9,0-1.31,0-1.81,0a11.4,11.4,0,0,0,.08-1.68V520a20.16,20.16,0,0,0-.08-2.12,14.61,14.61,0,0,0,1.72.08h6.69c.65,0,1.24,0,1.71-.08a20.3,20.3,0,0,0-.08,2.12v5.43a11.25,11.25,0,0,0,.08,1.68c-.45,0-.93,0-1.79,0H644V530c0,.5.16.54,1.8.54s1.88-.06,2.11-.4a5.12,5.12,0,0,0,.38-2.09,5.1,5.1,0,0,0,1,.43c-.37,2.86-.54,3-3.58,3a5.7,5.7,0,0,1-2.36-.27c-.29-.18-.38-.39-.38-.9V527.1h-2a4.76,4.76,0,0,1-1.41,2.92,8,8,0,0,1-4.1,1.89,3.23,3.23,0,0,0-.56-1,9.11,9.11,0,0,0,2.45-.67,4,4,0,0,0,2.22-2.06,3.55,3.55,0,0,0,.29-1.11Zm-.74-6.42h8v-1.74h-8Zm0,2.74h8v-1.84h-8Zm0,2.8h8v-1.9h-8Z"/><path d="M651,520.52a10.72,10.72,0,0,0,2,.15c.32,0,.5,0,1,0a16.54,16.54,0,0,0,.35-2.95l1.26.13c-.09.38-.09.38-.29,1.52-.08.51-.12.74-.2,1.22a13.15,13.15,0,0,0,2.88-.55l.08,1.11a2.42,2.42,0,0,0-.45.08,23.84,23.84,0,0,1-2.71.38c-.24,1.27-.69,3.07-1.12,4.53A42.16,42.16,0,0,1,651.9,531l-1.17-.49a32,32,0,0,0,3-8.86c-.32,0-.51,0-1.1,0s-.71,0-1.33,0H651Zm7.16,5.81a6.34,6.34,0,0,0-.48.61,1.93,1.93,0,0,0-.4,1.14c0,1,1,1.47,2.8,1.47a12,12,0,0,0,3.54-.54l.11,1.2-.7.11a16.36,16.36,0,0,1-2.85.27c-2.63,0-4-.81-4-2.4,0-.72.22-1.22,1.07-2.3Zm5-2.76a16.25,16.25,0,0,0-1.89-.12,14,14,0,0,0-4,.55l-.11-1.09a18.19,18.19,0,0,1,4.24-.53c.31,0,.55,0,1.75,0Z"/><path d="M666.46,519.68a11.37,11.37,0,0,0,3,.25h.4c0-.39,0-.39.08-1.2,0-.18,0-.8,0-.92s0-.13,0-.24l1.25.08a10.14,10.14,0,0,0-.34,2.24A24.41,24.41,0,0,0,677,519l.06,1.12-.56.08a45.22,45.22,0,0,1-5.66.64c-.1,1.36-.1,1.36-.12,2.14a8.63,8.63,0,0,1,2.37-.32c.34,0,.53,0,.93.05a6.43,6.43,0,0,0,.39-1.44l1.1.34c0,.09-.22.52-.5,1.28,2.21.51,3.44,1.87,3.44,3.74a4.1,4.1,0,0,1-2.51,3.7,8.66,8.66,0,0,1-3.26.91,3.42,3.42,0,0,0-.52-1.07,7.49,7.49,0,0,0,2.41-.43c1.74-.61,2.75-1.78,2.75-3.2s-.91-2.34-2.64-2.79a14.37,14.37,0,0,1-3,4.8,5.27,5.27,0,0,1-3.57,1.94,2.19,2.19,0,0,1-2.07-2.43c0-2,1.4-3.76,3.72-4.77,0-1.17,0-1.25.09-2.42h-.64l-2.16-.08a2.09,2.09,0,0,0-.29,0,1.29,1.29,0,0,0-.25,0ZM668,525.6a3.78,3.78,0,0,0-1,2.38c0,.88.47,1.46,1.15,1.46a2.9,2.9,0,0,0,1.85-.82,22.11,22.11,0,0,1-.32-4.33A5.69,5.69,0,0,0,668,525.6Zm2.93,2.37a1.69,1.69,0,0,1,.3-.42,14.31,14.31,0,0,0,2.45-4c-.51,0-.59,0-.77,0a7.18,7.18,0,0,0-2.22.37,26.76,26.76,0,0,0,.17,3.66.9.9,0,0,1,0,.23V528Z"/><path d="M685.82,517.77a5.59,5.59,0,0,0-.25,1c-.11.54-.21.92-.43,1.74A13.56,13.56,0,0,0,688,520l0,1.11-.56.09a19.35,19.35,0,0,1-2.63.34,29.58,29.58,0,0,1-1.77,4.67c-.39.77-.53,1-1.14,2.1-.14.22-.24.42-.32.54l-1.09-.64a14.1,14.1,0,0,0,1.54-2.49,24.25,24.25,0,0,0,1.66-4.13l-1.18,0-1.06,0h-.56l0-1.11a9.69,9.69,0,0,0,1.9.13l1.16,0a16.7,16.7,0,0,0,.54-3Zm7.61,12.42a9.16,9.16,0,0,0-2.8-2.17,3.47,3.47,0,0,1,0,.51c0,1.65-1.09,2.56-3,2.56s-3.12-.9-3.12-2.32a2.28,2.28,0,0,1,1.48-2,4.86,4.86,0,0,1,1.89-.35,5.49,5.49,0,0,1,1.62.24c-.08-1-.11-1.79-.11-2.19a6.33,6.33,0,0,1,.16-1.55l1.09.11a4.92,4.92,0,0,0-.21,1.49,20.29,20.29,0,0,0,.17,2.43,11.42,11.42,0,0,1,3.14,1.94,2.08,2.08,0,0,0,.29.25Zm-5.64-2.86c-1.36,0-2.22.56-2.22,1.44s.77,1.31,2,1.31,2-.54,2-1.74c0-.2,0-.69,0-.69A4.76,4.76,0,0,0,687.79,527.33Zm5.62-4.36a16.93,16.93,0,0,0-4.24-2.17l.59-.9A22.48,22.48,0,0,1,694,522Z"/><path d="M696.09,520.52a10.72,10.72,0,0,0,2,.15c.33,0,.5,0,1,0a15.57,15.57,0,0,0,.35-2.95l1.26.13c-.09.38-.09.38-.29,1.52-.08.51-.12.74-.2,1.22a13.15,13.15,0,0,0,2.88-.55l.08,1.11a2.42,2.42,0,0,0-.45.08,23.84,23.84,0,0,1-2.71.38c-.24,1.27-.69,3.07-1.12,4.53A42.16,42.16,0,0,1,697,531l-1.17-.49a32,32,0,0,0,3-8.86c-.32,0-.51,0-1.1,0s-.71,0-1.33,0h-.34Zm7.16,5.81a6.34,6.34,0,0,0-.48.61,1.93,1.93,0,0,0-.4,1.14c0,1,1,1.47,2.8,1.47a12,12,0,0,0,3.54-.54l.11,1.2-.7.11a16.36,16.36,0,0,1-2.85.27c-2.63,0-4-.81-4-2.4,0-.72.22-1.22,1.07-2.3Zm5-2.76a16.25,16.25,0,0,0-1.89-.12,14,14,0,0,0-4,.55l-.11-1.09a18.19,18.19,0,0,1,4.24-.53c.31,0,.55,0,1.75,0Z"/><path d="M710.33,525.41a19.46,19.46,0,0,0,3.22-3.57,6.9,6.9,0,0,1,.8-1,2,2,0,0,1,1.28-.61A2,2,0,0,1,717,521c.16.14.43.45,1.17,1.3a42,42,0,0,0,5.07,4.92,5.33,5.33,0,0,0,1.28.84l-.54,1.37a3.68,3.68,0,0,0-.39-.33c-1-.79-2.81-2.42-3.89-3.48s-1.55-1.61-3.1-3.42c-.43-.5-.69-.69-1-.69s-.5.13-1.27,1.15a41,41,0,0,1-2.8,3.41c-.29.32-.32.36-.46.53Z"/><path d="M730.08,529.22a2.4,2.4,0,1,1-2.4-2.41A2.4,2.4,0,0,1,730.08,529.22Zm-3.89,0a1.49,1.49,0,1,0,1.49-1.49A1.49,1.49,0,0,0,726.19,529.22Z"/><path d="M594.58,577.23c-1,.86-1.53,1.6-1.53,2.35s.47,1.27,1.37,1.57a10,10,0,0,0,2.92.32,15.15,15.15,0,0,0,4.81-.61l.14,1.31c-.21,0-.27,0-.54.08a26.28,26.28,0,0,1-4.33.37,11.48,11.48,0,0,1-3.68-.49,2.56,2.56,0,0,1-1.82-2.42,4.21,4.21,0,0,1,1.84-3.09Zm-1.69-5.84a18.5,18.5,0,0,0,4.26.38,17.09,17.09,0,0,0,4.05-.34l.08,1.06a23.53,23.53,0,0,0-4,2.43l-.82-.65c1-.69,1.41-.93,2.13-1.33l.4-.21a3.16,3.16,0,0,0,.31-.16,12.78,12.78,0,0,1-2.42.21,30.83,30.83,0,0,1-3.52-.21,4.17,4.17,0,0,0-.53-.05Z"/><path d="M611.44,570.43a44.9,44.9,0,0,0-1.78,4.4,25.57,25.57,0,0,1-1.15,2.64c0,.06-.09.19-.18.35a2,2,0,0,0-.14.29l.08,0c1.06-1.52,1.87-2.1,3-2.1a1.77,1.77,0,0,1,1.6,1,4,4,0,0,1,.27,1.81v1.09a2.74,2.74,0,0,0,.26,1.52,1.5,1.5,0,0,0,1.21.49,2.77,2.77,0,0,0,2.57-2,7,7,0,0,0,.6-2.27,5,5,0,0,0,1.06.82,8.53,8.53,0,0,1-1.14,2.81,3.72,3.72,0,0,1-3.18,1.75,2.26,2.26,0,0,1-2.34-1.44,7,7,0,0,1-.14-1.73v-.92a3.3,3.3,0,0,0-.13-1.21.85.85,0,0,0-.91-.59c-.93,0-2,.84-2.87,2.37a16.26,16.26,0,0,0-1.47,3.68l-1.23-.39c.21-.45.21-.45,2.51-6.59a62.84,62.84,0,0,0,2.19-6.12Z"/><path d="M623.49,570.6a22.52,22.52,0,0,0-.68,2.56,24.07,24.07,0,0,0-.48,5c0,1.25,0,2.2.1,3a14.83,14.83,0,0,1,1-3.12l.77.37a14.06,14.06,0,0,0-1.3,4.4v.24l-1.15.1c0-.26,0-.34-.1-.64a23.28,23.28,0,0,1-.41-4.53,26.42,26.42,0,0,1,.72-6.34,8.37,8.37,0,0,0,.22-1.28Zm4.08,6.44a3.72,3.72,0,0,0-1.2,2.35c0,1.18,1,1.76,3.07,1.76a10.54,10.54,0,0,0,3.68-.56l.16,1.23-.56.08a16.06,16.06,0,0,1-3.28.32c-1.82,0-3-.38-3.66-1.21a2.27,2.27,0,0,1-.48-1.48,4.41,4.41,0,0,1,1.39-3Zm-2-4.74a11.11,11.11,0,0,0,2.72.24,17.67,17.67,0,0,0,4.29-.43l.08,1.13-1.11.15a28.75,28.75,0,0,1-3.44.2,19.74,19.74,0,0,1-2.56-.16Z"/><path d="M636.09,572.51a14.85,14.85,0,0,0,3.46.27,12,12,0,0,0,.51-2.87l1.28.13a7.5,7.5,0,0,0-.25,1c-.23.92-.27,1.12-.43,1.69a26.57,26.57,0,0,0,6.3-.69l.08,1.16c-.27,0-.37,0-.7.08a55.49,55.49,0,0,1-5.94.46,21.49,21.49,0,0,1-1.6,4.11l0,0a8.14,8.14,0,0,1,4.65-1.35c2.53,0,4.15,1.15,4.15,2.95,0,2.17-2.13,3.6-5.36,3.6a11.78,11.78,0,0,1-4-.63,1.34,1.34,0,0,0,0-.25v-.1c0-.08,0-.37-.08-.88a9.66,9.66,0,0,0,4,.8c2.53,0,4.19-1,4.19-2.54,0-1.22-1.15-2-3.07-2a8.64,8.64,0,0,0-3.71.87,3.47,3.47,0,0,0-1.35,1l-1.15-.46a23.88,23.88,0,0,0,2.14-5.22c-1,0-1.72,0-2.65-.11a4.33,4.33,0,0,0-.45,0h-.13Z"/><path d="M653.49,570.54a22.72,22.72,0,0,0-1.24,7.5c0,.57,0,1.51.07,2.25,0,.12,0,.16,0,.44V581h.07a14.48,14.48,0,0,1,.94-2.81,1.79,1.79,0,0,0,.13-.32l.78.37a13.79,13.79,0,0,0-1.37,4.54,1.83,1.83,0,0,0,0,.32l-1.14.11c0-.14,0-.22-.09-.59a25.34,25.34,0,0,1-.45-4.75,27.33,27.33,0,0,1,.83-6.58,7.49,7.49,0,0,0,.18-1Zm1.61,3a10.77,10.77,0,0,0,2.88.26c.63,0,1.06,0,1.72,0,0-1.5,0-1.5,0-2.72a2.9,2.9,0,0,0,0-.65h1.2a16.4,16.4,0,0,0-.11,2.51c0,.18,0,.43,0,.78a10.64,10.64,0,0,0,2.77-.59l0,1.09-1.12.22a14.77,14.77,0,0,1-1.69.26c0,1.58,0,2.4.17,4.53a11.54,11.54,0,0,1,2.68,1.57c.19.13.22.16.4.27l-.5,1.12a8.5,8.5,0,0,0-2.27-1.66l-.16-.1-.15-.1a1.9,1.9,0,0,1,0,.42,2.36,2.36,0,0,1-2.87,2.43c-1.86,0-3-.88-3-2.27s1.26-2.27,3-2.27a4.52,4.52,0,0,1,1.77.32c0-.34-.11-1.84-.16-4.18-.72,0-1.21,0-1.82,0s-1.25,0-1.81,0a4.47,4.47,0,0,0-.51,0l-.27,0h-.23Zm3.08,6c-1.25,0-2.07.53-2.07,1.33s.74,1.29,1.86,1.29a2.21,2.21,0,0,0,1.63-.56,1.85,1.85,0,0,0,.31-1.25c0-.11,0-.48,0-.48A4.23,4.23,0,0,0,658.18,579.52Z"/><path d="M669.92,581.53a2.4,2.4,0,1,1-2.4-2.4A2.4,2.4,0,0,1,669.92,581.53Zm-3.89,0a1.49,1.49,0,1,0,1.49-1.48A1.49,1.49,0,0,0,666,581.53Z"/><path d="M684.82,577.23c-1,.86-1.53,1.6-1.53,2.35s.47,1.27,1.37,1.57a10,10,0,0,0,2.92.32,15.15,15.15,0,0,0,4.81-.61l.14,1.31c-.21,0-.27,0-.54.08a26.25,26.25,0,0,1-4.32.37,11.5,11.5,0,0,1-3.69-.49,2.56,2.56,0,0,1-1.82-2.42,4.21,4.21,0,0,1,1.84-3.09Zm-1.69-5.84a18.5,18.5,0,0,0,4.26.38,17.09,17.09,0,0,0,4.05-.34l.08,1.06a23.53,23.53,0,0,0-4,2.43l-.82-.65c1-.69,1.41-.93,2.13-1.33l.4-.21a3.16,3.16,0,0,0,.31-.16,12.78,12.78,0,0,1-2.42.21,30.83,30.83,0,0,1-3.52-.21,4.17,4.17,0,0,0-.53-.05Z"/><path d="M695.44,579.76a24.05,24.05,0,0,0,2.81-2.71c0-.64,0-1.65.1-3a16.17,16.17,0,0,0-2.51.22l-.07-1.1a3.56,3.56,0,0,0,.5,0l2.1-.13c0-1.22.06-1.94.06-2.15a5.29,5.29,0,0,0,0-.8l1.27,0a18.2,18.2,0,0,0-.19,2.85,1.16,1.16,0,0,0,.32-.08l.41.49a5.38,5.38,0,0,0-.81,1,2.24,2.24,0,0,1,0,.4c0,.32,0,.32,0,1.07a.64.64,0,0,1,0,.14c0,.13,0,.16,0,.26l0,0a11,11,0,0,1,2-1.88A6.51,6.51,0,0,1,705,572.6a1.74,1.74,0,0,1,1.87,1.88,10.85,10.85,0,0,1-.37,2.33,17.86,17.86,0,0,0-.69,3.8c0,.73.34,1.13,1,1.13a1.94,1.94,0,0,0,1.37-.88A7,7,0,0,0,709,579a5.22,5.22,0,0,0,.73,1.09,7.17,7.17,0,0,1-1,1.58,2.75,2.75,0,0,1-2.21,1.16,1.85,1.85,0,0,1-1.87-2.16,15.32,15.32,0,0,1,.61-3.73,12.06,12.06,0,0,0,.4-2.4.82.82,0,0,0-.88-.87,4.51,4.51,0,0,0-2.42,1.09,25.19,25.19,0,0,0-3.09,2.72V581a24,24,0,0,0,.05,2.66h-1.25a13.06,13.06,0,0,0,.11-2.65c0-1.87,0-1.87,0-2.59h0a1.64,1.64,0,0,1-.29.38l-.78.89-.68.75a3.42,3.42,0,0,0-.41.51Z"/><path d="M715.17,572.12a6.82,6.82,0,0,0,.77-2.19l1.28.22a3.13,3.13,0,0,0-.42.87c-.21.51-.42.94-.5,1.09l.34,0a22.48,22.48,0,0,0,5-.61l.1,1.09a5.32,5.32,0,0,0-.64.08,51.89,51.89,0,0,1-5.28.42,12,12,0,0,1-1.44,2.27,8.17,8.17,0,0,1-.55.61l-.21.16h0v0a.09.09,0,0,0,0,.05c.58-.45.58-.45.74-.56a4.25,4.25,0,0,1,2.41-.79,2,2,0,0,1,2.12,1.78c1.16-.46,2.08-.8,2.78-1.06a3.52,3.52,0,0,0,1.09-.46l.51,1.12a25.68,25.68,0,0,0-4.27,1.41c0,.41,0,.58,0,1,0,.2,0,.56,0,.88s0,.57,0,.72a3.63,3.63,0,0,0,0,.57l-1.09,0a22.14,22.14,0,0,0,.1-2.31,3.47,3.47,0,0,0,0-.48c-2.18,1-3,1.78-3,2.74s1,1.52,3.25,1.52a13.6,13.6,0,0,0,4.27-.62l.15,1.23a4.62,4.62,0,0,0-.64.08,24.69,24.69,0,0,1-3.89.32c-2.87,0-4.26-.82-4.26-2.47a3.31,3.31,0,0,1,1.63-2.52A12.47,12.47,0,0,1,718,577c-.13-.88-.51-1.26-1.27-1.26a6,6,0,0,0-3.57,1.7,5.32,5.32,0,0,0-1.23,1.32l-.89-.89a16,16,0,0,0,3.58-4.58l.15-.24a1.55,1.55,0,0,1-.31,0l-2.35,0h-.61l0-1.1a22.81,22.81,0,0,0,3.42.17Z"/><path d="M729.15,579.42c-.9,0-1.31,0-1.81.05a11.48,11.48,0,0,0,.08-1.68v-5.43a20.39,20.39,0,0,0-.08-2.13,12.73,12.73,0,0,0,1.72.08h6.69a16.65,16.65,0,0,0,1.71-.08,20.67,20.67,0,0,0-.08,2.13v5.43a11.25,11.25,0,0,0,.08,1.68c-.45,0-.93-.05-1.79-.05h-1.4v2.9c0,.49.16.54,1.8.54s1.89-.06,2.11-.4a5.17,5.17,0,0,0,.38-2.09,5.1,5.1,0,0,0,1,.43c-.37,2.86-.54,3-3.58,3a5.7,5.7,0,0,1-2.36-.27c-.29-.18-.38-.39-.38-.9v-3.22h-2a4.7,4.7,0,0,1-1.41,2.91,7.81,7.81,0,0,1-4.1,1.89,3.31,3.31,0,0,0-.56-1,9.5,9.5,0,0,0,2.45-.67,4,4,0,0,0,2.22-2.06,3.55,3.55,0,0,0,.29-1.11Zm-.73-6.42h8v-1.74h-8Zm0,2.74h8V573.9h-8Zm0,2.8h8v-1.9h-8Z"/><path d="M741,572.33h.57c.23,0,.42,0,.92-.05,1.9-.14,7-.43,9.09-.53a10.67,10.67,0,0,0,1.9-.17l.1,1.2a7.21,7.21,0,0,0-1.8.21,8,8,0,0,0-3.07,1.61,4.91,4.91,0,0,0-2,3.7,3.13,3.13,0,0,0,2.24,3,8.22,8.22,0,0,0,2.4.51h.16l-.2,1.3-.5-.1a8,8,0,0,1-3.46-1.23,3.9,3.9,0,0,1-1.77-3.26,6.06,6.06,0,0,1,3-4.92,11.41,11.41,0,0,1,1.52-.85,28.11,28.11,0,0,1-3.52.36,48,48,0,0,0-5.52.52Z"/><path d="M765.51,570.83c-.18.14-.31.25-2,1.85a47.44,47.44,0,0,1-3.68,3c-.6.45-.71.57-.71.8s.13.4,1.43,1.41a46.63,46.63,0,0,1,5.12,4.37,4.34,4.34,0,0,0,.45.4l-1,1a14.74,14.74,0,0,0-2.07-2.19,51.72,51.72,0,0,0-4.05-3.35c-.89-.7-1.15-1.06-1.15-1.6a1.56,1.56,0,0,1,.46-1.07,15.56,15.56,0,0,1,1.37-1.09,25.65,25.65,0,0,0,4.69-4.39Z"/><path d="M771.15,572.84a10.57,10.57,0,0,0,2,.15c.32,0,.5,0,1,0a19.9,19.9,0,0,0,.35-2.84V570l1.27.13c-.07.25-.08.33-.13.56s-.06.41-.16,1-.13.78-.21,1.22a13.16,13.16,0,0,0,2.88-.55l.08,1.1-.16,0-.28.06a21.72,21.72,0,0,1-2.71.39,42.55,42.55,0,0,1-3,9.41l-1.17-.5a32.34,32.34,0,0,0,3-8.85c-.32,0-.51,0-1.11,0s-.7,0-1.32,0h-.34Zm7.15,5.81a6,6,0,0,0-.47.61,1.92,1.92,0,0,0-.41,1.14c0,1,1,1.47,2.81,1.47a11.84,11.84,0,0,0,3.53-.54l.12,1.2-.21,0-.5.09a17.11,17.11,0,0,1-2.85.26c-2.62,0-4-.82-4-2.4,0-.72.22-1.22,1.07-2.3Zm5-2.77a16.12,16.12,0,0,0-1.89-.11,14,14,0,0,0-4,.55l-.11-1.09a18.19,18.19,0,0,1,4.24-.53c.3,0,.54,0,1.75,0Zm-2.4-5.61a11.89,11.89,0,0,1,1.65,2.48l-.8.48a11.54,11.54,0,0,0-1.65-2.53Zm1.81-.87a12.89,12.89,0,0,1,1.65,2.48l-.8.47a12.24,12.24,0,0,0-1.63-2.52Z"/><path d="M786.91,573.26a7.46,7.46,0,0,0,1.23.08,36.93,36.93,0,0,0,4.77-.34c-.24-.54-.49-1.18-.78-1.9-.18-.42-.27-.64-.42-.93L793,570a4.82,4.82,0,0,0,.46,1.44,10.26,10.26,0,0,0,.58,1.41,18.16,18.16,0,0,0,3.87-1l.16,1.14c-.34.07-.46.1-.94.23-1,.25-1.16.3-2.16.49l-.55.11a30,30,0,0,0,2.88,4.66l-1.07.61a3.23,3.23,0,0,0-1.11-.66,8.7,8.7,0,0,0-2.8-.41,5.66,5.66,0,0,0-3,.67,1.8,1.8,0,0,0-.86,1.49,1.6,1.6,0,0,0,.61,1.25,5.44,5.44,0,0,0,3.12.73,10.6,10.6,0,0,0,4.54-1l.18,1.23a13.31,13.31,0,0,1-4.71.86c-1.95,0-3.42-.43-4.16-1.2a2.59,2.59,0,0,1-.72-1.76,3,3,0,0,1,1.81-2.61,6.9,6.9,0,0,1,3.11-.59,8,8,0,0,1,3.31.58,19.75,19.75,0,0,1-1.92-3.14c-.18-.33-.18-.37-.27-.53a45.66,45.66,0,0,1-5.7.42,3.74,3.74,0,0,0-.63,0Z"/><path d="M802.22,576.4a8.27,8.27,0,0,0,1.47-.29,20.58,20.58,0,0,1,4.89-.71,3.67,3.67,0,0,1,3.39,1.49,3.51,3.51,0,0,1,.5,1.83c0,1.79-1.44,3.42-3.67,4.13a16.1,16.1,0,0,1-3.3.61,3.53,3.53,0,0,0-.41-1.11.94.94,0,0,0,.22,0,11,11,0,0,0,3.15-.5c1.83-.59,2.93-1.81,2.93-3.23s-1-2.24-3-2.24a18.56,18.56,0,0,0-4.21.64,7.21,7.21,0,0,0-1.71.52Z"/><path d="M816.21,572.33h.57c.23,0,.42,0,.91-.05,1.91-.14,7-.43,9.1-.53a10.78,10.78,0,0,0,1.9-.17l.1,1.2a7.21,7.21,0,0,0-1.8.21,8,8,0,0,0-3.07,1.61,4.91,4.91,0,0,0-2,3.7,3.13,3.13,0,0,0,2.24,3,8.22,8.22,0,0,0,2.4.51h.16l-.2,1.3-.5-.1a8,8,0,0,1-3.46-1.23,3.9,3.9,0,0,1-1.77-3.26,6.06,6.06,0,0,1,3-4.92,10.82,10.82,0,0,1,1.52-.85,28.33,28.33,0,0,1-3.52.36,48,48,0,0,0-5.52.52Z"/><path d="M592.56,598.5a11.76,11.76,0,0,0-.11,1.91,27.57,27.57,0,0,0,.41,5c.35,1.63,1,2.73,1.62,2.73.29,0,.56-.27.8-.8a11.52,11.52,0,0,0,.83-2.74,4.89,4.89,0,0,0,.95.92c-.79,2.8-1.52,3.87-2.66,3.87-.9,0-1.73-.9-2.27-2.43s-.79-3.57-.87-7.51a5.81,5.81,0,0,0,0-.94Zm7.73.85a13.82,13.82,0,0,1,2.29,3.65,15.29,15.29,0,0,1,1.2,4.27l-1.14.47a14.07,14.07,0,0,0-3.33-7.89Z"/><path d="M607.87,597.91a7.4,7.4,0,0,0,1.51.1c1.32,0,3.45-.1,4.89-.21a1.63,1.63,0,0,0,.77-.18l.67.88a3.06,3.06,0,0,0-.81.67,40.5,40.5,0,0,1-5.27,4.55l0,0a8.09,8.09,0,0,1,3.92-1c2.68,0,4.39,1.31,4.39,3.36,0,2.49-2.32,4.14-5.87,4.14-2.26,0-3.56-.83-3.56-2.3a2.08,2.08,0,0,1,2.32-1.87,3.2,3.2,0,0,1,2.64,1.31,4.42,4.42,0,0,1,.74,1.54c1.68-.47,2.56-1.45,2.56-2.81,0-1.53-1.28-2.44-3.44-2.44a10.29,10.29,0,0,0-6.74,2.73l-.72-1a18,18,0,0,0,2.24-1.63c1.72-1.37,4.24-3.59,5.35-4.68l.22-.22.07-.07.06-.06,0,0h-.14c-.52.1-2.44.21-4.87.29-.35,0-.51,0-.87.08Zm3,9.11c-.8,0-1.3.38-1.3,1a1.1,1.1,0,0,0,.64,1,4.19,4.19,0,0,0,1.8.37,5.47,5.47,0,0,0,1.16-.12C612.83,607.79,612,607,610.88,607Z"/><path d="M621.34,598.93a10.81,10.81,0,0,0,3,.26l.41,0c0-.38,0-.38.08-1.2,0-.17,0-.8,0-.91s0-.13,0-.24l1.25.08a10,10,0,0,0-.34,2.24,24.89,24.89,0,0,0,6.1-.89l.06,1.12-.56.08a45.22,45.22,0,0,1-5.66.64c-.1,1.36-.1,1.36-.12,2.14a8.63,8.63,0,0,1,2.37-.32c.34,0,.53,0,.93.05a6.43,6.43,0,0,0,.39-1.44l1.1.34c0,.09-.22.52-.5,1.28,2.21.51,3.44,1.87,3.44,3.74a4.11,4.11,0,0,1-2.51,3.7,8.66,8.66,0,0,1-3.26.91,3.42,3.42,0,0,0-.52-1.07,7.49,7.49,0,0,0,2.41-.43c1.74-.61,2.75-1.78,2.75-3.2s-.91-2.34-2.64-2.79a14.37,14.37,0,0,1-3,4.8,5.27,5.27,0,0,1-3.57,1.94,2.19,2.19,0,0,1-2.07-2.43c0-2,1.39-3.77,3.72-4.77,0-1.17,0-1.25.09-2.42H624l-2.16-.08a2.09,2.09,0,0,0-.29,0,1.29,1.29,0,0,0-.25,0Zm1.54,5.93a3.73,3.73,0,0,0-1,2.38c0,.88.47,1.46,1.15,1.46a2.9,2.9,0,0,0,1.85-.82,22.15,22.15,0,0,1-.32-4.34A5.7,5.7,0,0,0,622.88,604.86Zm2.93,2.37a1.69,1.69,0,0,1,.3-.42,14.55,14.55,0,0,0,2.45-4c-.51,0-.59,0-.77,0a7.16,7.16,0,0,0-2.22.36,26.84,26.84,0,0,0,.17,3.67.86.86,0,0,1,0,.22v.18Z"/><path d="M640.7,597a5.42,5.42,0,0,0-.25,1c-.11.55-.21.93-.43,1.75a13.56,13.56,0,0,0,2.86-.53l0,1.11-.56.09a19.35,19.35,0,0,1-2.63.34,29.58,29.58,0,0,1-1.77,4.67c-.39.77-.53,1-1.14,2.1-.14.22-.24.41-.32.54l-1.09-.64A14.1,14.1,0,0,0,637,605a24.25,24.25,0,0,0,1.66-4.13l-1.18,0-1.06,0h-.56l0-1.11a9.69,9.69,0,0,0,1.9.13l1.16,0a16.7,16.7,0,0,0,.54-3Zm7.61,12.42a9.33,9.33,0,0,0-2.8-2.18,3.66,3.66,0,0,1,0,.52c0,1.64-1.09,2.56-3,2.56s-3.12-.9-3.12-2.32a2.28,2.28,0,0,1,1.48-2,4.69,4.69,0,0,1,1.89-.35,5.49,5.49,0,0,1,1.62.24c-.08-1-.11-1.79-.11-2.19a6.33,6.33,0,0,1,.16-1.55l1.09.11a4.92,4.92,0,0,0-.21,1.49,20.29,20.29,0,0,0,.17,2.43,11.42,11.42,0,0,1,3.14,1.94,2.08,2.08,0,0,0,.29.25Zm-5.64-2.86c-1.36,0-2.22.56-2.22,1.44s.77,1.31,2,1.31,2-.55,2-1.75c0-.19,0-.68,0-.68A4.76,4.76,0,0,0,642.67,606.59Zm5.62-4.36a16.93,16.93,0,0,0-4.24-2.17l.59-.9a22.48,22.48,0,0,1,4.23,2.11Z"/><path d="M651,599.78a10.72,10.72,0,0,0,2,.15c.32,0,.5,0,1,0a16.63,16.63,0,0,0,.35-2.95l1.26.13c-.09.38-.09.38-.29,1.52-.08.51-.12.73-.2,1.22a13.15,13.15,0,0,0,2.88-.55l.08,1.11a2.42,2.42,0,0,0-.45.08,23.84,23.84,0,0,1-2.71.38c-.24,1.26-.69,3.07-1.12,4.53a42.16,42.16,0,0,1-1.84,4.88l-1.17-.5a31.84,31.84,0,0,0,3-8.85c-.32,0-.51,0-1.1,0s-.71,0-1.33,0H651Zm7.16,5.81a6.34,6.34,0,0,0-.48.61,1.91,1.91,0,0,0-.4,1.14c0,1,1,1.47,2.8,1.47a12,12,0,0,0,3.54-.54l.11,1.2-.7.11a16.36,16.36,0,0,1-2.85.27c-2.63,0-4-.81-4-2.4,0-.72.22-1.22,1.07-2.3Zm5-2.77a16.12,16.12,0,0,0-1.89-.11,14,14,0,0,0-4,.55l-.11-1.09a18.19,18.19,0,0,1,4.24-.53c.31,0,.55,0,1.75.05Z"/><path d="M665.45,601.05a33.27,33.27,0,0,0,3.54-.42,20,20,0,0,0,.48-3.39V597l1.28.14a11.61,11.61,0,0,0-.3,1.54c-.07.4-.21,1.14-.34,1.83a7.56,7.56,0,0,1,.95,0,3,3,0,0,1,2.3.67,3.23,3.23,0,0,1,.79,2.58c0,2.45-.42,4.57-1.08,5.5a1.66,1.66,0,0,1-1.57.76,6,6,0,0,1-2.41-.63,3.82,3.82,0,0,0,0-.58,2.81,2.81,0,0,0,0-.62,6.06,6.06,0,0,0,2.39.74c.4,0,.7-.26.91-.77a12.48,12.48,0,0,0,.67-4.45c0-1.7-.48-2.24-2-2.24a8.13,8.13,0,0,0-1.15.08,30.93,30.93,0,0,1-3.46,8.71l-1.09-.65a23.5,23.5,0,0,0,3.43-8,20.67,20.67,0,0,0-3.22.58ZM676,599.58a14.77,14.77,0,0,1,3.35,5.66l-1,.58a13.59,13.59,0,0,0-3.26-5.75Zm.72-2.73a12.44,12.44,0,0,1,1.65,2.48l-.8.49a12.21,12.21,0,0,0-1.65-2.55Zm1.81-.86a12.89,12.89,0,0,1,1.65,2.48l-.8.46a11.6,11.6,0,0,0-1.64-2.51Z"/><path d="M685.46,597.14a28.46,28.46,0,0,0,1.2,5.3c.88-.37,1.4-.58,3.87-1.42a7,7,0,0,0,1-.44l.48,1.22a42.55,42.55,0,0,0-4.81,1.55c-2.74,1.11-3.93,2.16-3.93,3.49s1.24,2,4.38,2a15.65,15.65,0,0,0,4.57-.55l.13,1.33a3.4,3.4,0,0,0-.48,0h-.16l-.54.07a32.27,32.27,0,0,1-3.54.21,10.72,10.72,0,0,1-3.55-.44,2.64,2.64,0,0,1-2-2.62,3.46,3.46,0,0,1,1.43-2.72,9.36,9.36,0,0,1,2.09-1.31,34.64,34.64,0,0,1-1.17-4.47,6.14,6.14,0,0,0-.27-1Zm5.41-.24a12.83,12.83,0,0,1,1.64,2.48l-.81.48a12.39,12.39,0,0,0-1.63-2.54Zm1.79-.88a12.77,12.77,0,0,1,1.66,2.5l-.8.45a13.13,13.13,0,0,0-1.63-2.52Z"/><path d="M701.68,597.37a44.9,44.9,0,0,0-1.78,4.4,25.57,25.57,0,0,1-1.15,2.64l-.17.35a2.57,2.57,0,0,0-.15.29l.08,0c1.06-1.52,1.87-2.1,3-2.1a1.77,1.77,0,0,1,1.6.95,4.08,4.08,0,0,1,.27,1.81v1.09a2.74,2.74,0,0,0,.26,1.52,1.51,1.51,0,0,0,1.22.49,2.77,2.77,0,0,0,2.56-2,7.24,7.24,0,0,0,.61-2.27,4.74,4.74,0,0,0,1.05.82A8.76,8.76,0,0,1,708,608.2a3.75,3.75,0,0,1-3.19,1.75,2.26,2.26,0,0,1-2.34-1.44,7,7,0,0,1-.14-1.73v-.91a3.37,3.37,0,0,0-.13-1.22.85.85,0,0,0-.91-.59c-.93,0-2,.85-2.87,2.37a16.26,16.26,0,0,0-1.47,3.68l-1.23-.39c.21-.44.21-.44,2.51-6.59a62.84,62.84,0,0,0,2.19-6.12Z"/><path d="M715.9,597a5.42,5.42,0,0,0-.25,1c-.11.55-.21.93-.43,1.75a13.56,13.56,0,0,0,2.86-.53l0,1.11-.56.09a19.35,19.35,0,0,1-2.63.34,29.58,29.58,0,0,1-1.77,4.67c-.39.77-.53,1-1.14,2.1-.14.22-.24.41-.32.54l-1.09-.64a14.1,14.1,0,0,0,1.54-2.49,24.25,24.25,0,0,0,1.66-4.13l-1.18,0-1.06,0H711l0-1.11a9.69,9.69,0,0,0,1.9.13l1.16,0a16.7,16.7,0,0,0,.54-3Zm7.61,12.42a9.33,9.33,0,0,0-2.8-2.18,3.66,3.66,0,0,1,0,.52c0,1.64-1.09,2.56-3,2.56s-3.12-.9-3.12-2.32a2.28,2.28,0,0,1,1.48-2,4.69,4.69,0,0,1,1.89-.35,5.49,5.49,0,0,1,1.62.24c-.08-1-.11-1.79-.11-2.19a6.33,6.33,0,0,1,.16-1.55l1.09.11a4.92,4.92,0,0,0-.21,1.49,20.29,20.29,0,0,0,.17,2.43,11.42,11.42,0,0,1,3.14,1.94,2.08,2.08,0,0,0,.29.25Zm-5.64-2.86c-1.36,0-2.22.56-2.22,1.44s.77,1.31,2,1.31,2-.55,2-1.75c0-.19,0-.68,0-.68A4.76,4.76,0,0,0,717.87,606.59Zm5.62-4.36a16.93,16.93,0,0,0-4.24-2.17l.59-.9a22.48,22.48,0,0,1,4.23,2.11Z"/><path d="M733,596.73a10.48,10.48,0,0,0-.08,1.42,20.93,20.93,0,0,0,.35,3.47,14,14,0,0,0,2.06,4.49,14.47,14.47,0,0,0,2.37,2.52,10.89,10.89,0,0,0,1.86,1.25,3.9,3.9,0,0,0-.84,1,14.74,14.74,0,0,1-4.24-4.1,13.76,13.76,0,0,1-2.08-5.09,13.75,13.75,0,0,1-1.1,3.57,10.69,10.69,0,0,1-2.29,3.28,13.5,13.5,0,0,1-2.95,2.34,3,3,0,0,0-.86-.94,11.42,11.42,0,0,0,3.27-2.42c2.22-2.38,3.31-5.46,3.31-9.4a10.22,10.22,0,0,0-.07-1.4Z"/><path d="M740.86,601c.58,0,2.24-.2,3.54-.41a19.8,19.8,0,0,0,.48-3.4V597l1.28.14a9.58,9.58,0,0,0-.3,1.54c-.08.46-.2,1.05-.34,1.82.37,0,.58-.05.94-.05a3.07,3.07,0,0,1,2.31.68,3.21,3.21,0,0,1,.78,2.57c0,2.45-.41,4.58-1.07,5.51a1.67,1.67,0,0,1-1.57.75,6.08,6.08,0,0,1-2.41-.62,3.7,3.7,0,0,0,0-.56,2.94,2.94,0,0,0,0-.64,6,6,0,0,0,2.38.73c.4,0,.71-.25.92-.77a12.4,12.4,0,0,0,.67-4.45c0-1.69-.48-2.24-2-2.24a10,10,0,0,0-1.15.08,30,30,0,0,1-2.42,6.79c-.21.38-.54,1-1,1.92l-1.09-.64a14.91,14.91,0,0,0,1.67-2.9,26.77,26.77,0,0,0,1.76-5.07c-1.38.21-2.15.34-2.29.37a6.67,6.67,0,0,0-.93.21Zm10.52-1.47a14.45,14.45,0,0,1,3.34,5.67l-1,.59a13.09,13.09,0,0,0-3.27-5.75Z"/><path d="M757.34,608.28a1,1,0,0,1-2,0,1,1,0,1,1,2,0Z"/><path d="M761.76,608.28a1,1,0,0,1-2,0,1,1,0,1,1,2,0Z"/><path d="M766.76,608.28a1,1,0,0,1-2,0,1,1,0,1,1,2,0Z"/><rect class="cls-21" x="558.25" y="315.44" width="303.5" height="136.5" rx="5"/><g class="cls-18"><line class="cls-19" x1="839.15" y1="367.9" x2="581.18" y2="367.9"/><line class="cls-19" x1="839.15" y1="394.19" x2="581.18" y2="394.19"/><line class="cls-19" x1="839.15" y1="420.48" x2="581.18" y2="420.48"/><line class="cls-19" x1="839.15" y1="446.77" x2="581.18" y2="446.77"/></g><path d="M585.12,350.93a14,14,0,0,1-1.92,2.5,2.62,2.62,0,0,0-.9-.64,11.11,11.11,0,0,0,2.53-3.41,6.45,6.45,0,0,0,.66-1.78l1.15.32a7.23,7.23,0,0,0-.56,1.19l-.43.88h2.86v-.77a10.87,10.87,0,0,0-.09-1.94h1.23a16.23,16.23,0,0,0-.11,2.71H593a10,10,0,0,0,1.79-.11V351a13,13,0,0,0-1.79-.1h-3.46a20.9,20.9,0,0,1-.29,3H594a10.3,10.3,0,0,0,1.81-.12V355a12.78,12.78,0,0,0-1.81-.1H589.7a7.35,7.35,0,0,0,1.73,2.64,10.91,10.91,0,0,0,4.72,2.85,3.36,3.36,0,0,0-.67,1.06,11,11,0,0,1-6.55-6.13,7.55,7.55,0,0,1-2,3.29,12.36,12.36,0,0,1-4.4,2.87,3.46,3.46,0,0,0-.69-1A11.13,11.13,0,0,0,585,359,7.67,7.67,0,0,0,588,354.9h-4.2a15,15,0,0,0-1.77.1v-1.16a11.32,11.32,0,0,0,1.72.12h4.47a21.29,21.29,0,0,0,.24-3Z"/><path d="M596.56,360.15a8,8,0,0,0,1.34-2,8.76,8.76,0,0,0,.74-2.06l.91.38a11.52,11.52,0,0,1-2.16,4.41Zm4.06-9.39a9.29,9.29,0,0,1-3,3.68,3.69,3.69,0,0,0-.77-.76,6.47,6.47,0,0,0,1.73-1.4,6.63,6.63,0,0,0,1.15-1.89Zm-2-1a11.08,11.08,0,0,0-1.71.08v-1.06a11.72,11.72,0,0,0,1.73.1h4.69v-.56a5.56,5.56,0,0,0-.1-1.14h1.24a5.43,5.43,0,0,0-.1,1.14v.56h4.85a11.43,11.43,0,0,0,1.73-.1v1.06a12.86,12.86,0,0,0-1.75-.08h-3v4.05c0,.8-.3,1.05-1.29,1.05-.4,0-.88,0-1.43-.06a3.78,3.78,0,0,0-.25-1,12.51,12.51,0,0,0,1.55.13c.37,0,.45-.08.45-.37v-3.84h-2.05a8.33,8.33,0,0,1-.59,3.17,5.2,5.2,0,0,1-2.77,2.64,3.12,3.12,0,0,0-.77-.77,4.36,4.36,0,0,0,2.72-2.43,7.23,7.23,0,0,0,.42-2.61Zm3.25,9.87c0,.64.21.71,2.13.71,1.75,0,2.4-.08,2.66-.31s.29-.7.33-1.9a3.33,3.33,0,0,0,1,.4c-.16,1.57-.31,2-.72,2.32s-1.28.4-3.43.4c-2.5,0-3-.22-3-1.42V357.4a11.49,11.49,0,0,0-.09-1.47H602a7.2,7.2,0,0,0-.1,1.47Zm3.39-.89a12.77,12.77,0,0,0-2.32-2.66l.74-.56a14,14,0,0,1,2.37,2.53Zm2.42-8.26a24.71,24.71,0,0,1,3,3.29l-.86.71A14.85,14.85,0,0,0,607,351Zm2.47,10.21a15.71,15.71,0,0,0-2.6-4.27l.8-.52A19.4,19.4,0,0,1,611,360Z"/><path d="M588.18,401.24a6.31,6.31,0,0,0-.1-1.09h1.22a5.22,5.22,0,0,0-.1,1.08v.32h5a10.37,10.37,0,0,0,1.59-.1v1.06a11,11,0,0,0-1.59-.08H583.42a10.88,10.88,0,0,0-1.58.08v-1.06a10.3,10.3,0,0,0,1.61.1h4.73Zm-5.81,7.88a12.86,12.86,0,0,0-.07-1.44,14.45,14.45,0,0,0,1.59.06h9.92a12.1,12.1,0,0,0,1.55-.06c0,.49-.06.85-.06,1.41v4.24c0,.54-.1.81-.37,1s-.53.22-1.38.22c-.36,0-.46,0-1.48,0a3.41,3.41,0,0,0-.21-1,11.82,11.82,0,0,0,1.81.15c.57,0,.65,0,.65-.37v-4.69h-11v4.61a10,10,0,0,0,.09,1.63h-1.18a12,12,0,0,0,.1-1.61Zm2.12-4.5c0-.51,0-.88,0-1.22a12.07,12.07,0,0,0,1.52.07h5.94a10.46,10.46,0,0,0,1.36-.07,11.87,11.87,0,0,0,0,1.24v.86a7.75,7.75,0,0,0,0,1.25,12.28,12.28,0,0,0-1.48-.06h-5.9a12.77,12.77,0,0,0-1.44.06c0-.34,0-.63,0-1.25Zm1,1.25h6.77V404.3h-6.77Zm6.53,5.84a10.2,10.2,0,0,0,0,1.14c-.42,0-.91-.05-1.47-.05h-4.07v.88h-1a9,9,0,0,0,.08-1.33v-1.6a9.58,9.58,0,0,0,0-1.17c.37,0,.71.05,1.3.05h3.84c.61,0,1,0,1.41-.05a9.83,9.83,0,0,0,0,1.09Zm-5.5.29h4.57v-1.57H586.5Z"/><path d="M600.13,404.35a7.1,7.1,0,0,0,1.73,2.72,4,4,0,0,0-.57.85,8.58,8.58,0,0,1-1.26-2.29c.05,1.78.06,2,.06,2.61V413a10.79,10.79,0,0,0,.1,1.85H599a14.26,14.26,0,0,0,.09-1.85v-4.52c0-.7,0-1.15.08-2.51A13.22,13.22,0,0,1,597,410.8a4.51,4.51,0,0,0-.64-.95,14.43,14.43,0,0,0,2.58-5.5H598a7.52,7.52,0,0,0-1.15.06v-1a7.27,7.27,0,0,0,1.17.06h1.05v-1.61a9.19,9.19,0,0,0-.08-1.67h1.15a10.94,10.94,0,0,0-.08,1.65v1.63h.81a6,6,0,0,0,1-.06v1a8.36,8.36,0,0,0-1,0Zm8.56,3c-.1.19-.1.19-.54,1.12a14.48,14.48,0,0,1-1.41,2.45,8.27,8.27,0,0,0,1.61,1.41,11.44,11.44,0,0,0,2.93,1.41,3.81,3.81,0,0,0-.59,1,10.75,10.75,0,0,1-4.56-3.05,11.41,11.41,0,0,1-4.48,3.08,3.24,3.24,0,0,0-.63-.89,10,10,0,0,0,4.5-2.95,16,16,0,0,1-1.58-2.83l-.16-.35-.13-.26,1-.46a10,10,0,0,0,1.51,3.13,9.81,9.81,0,0,0,1.55-3.23Zm-3.54-3a11.58,11.58,0,0,1-2.8,3.87,3,3,0,0,0-.69-.75,8.34,8.34,0,0,0,2.6-3.54Zm.52-2.67a7.08,7.08,0,0,0-.1-1.27h1.2a6.92,6.92,0,0,0-.1,1.25v.88h2.72a14.88,14.88,0,0,0,1.65-.08v1.07c-.46,0-1-.08-1.65-.08h-5.6a12.39,12.39,0,0,0-1.66.1v-1.1a12.2,12.2,0,0,0,1.66.09h1.88ZM608,403.9a10.16,10.16,0,0,0,2.94,3.25,3.94,3.94,0,0,0-.62.88,12,12,0,0,1-3.15-3.68Z"/><path d="M617.61,413.47a12.15,12.15,0,0,0-1.76.08,7.47,7.47,0,0,1,.47-2.11,7,7,0,0,1,2.08-2.75,20.88,20.88,0,0,1,2.45-1.76c1.58-1.08,2.11-1.78,2.11-2.76,0-1.21-1-2-2.66-2a2.65,2.65,0,0,0-2.32,1,3.27,3.27,0,0,0-.56,1.62l-1.34-.23a4.32,4.32,0,0,1,1-2.3,4.06,4.06,0,0,1,3.21-1.23c2.42,0,4,1.21,4,3.1a3.33,3.33,0,0,1-.94,2.27,12.6,12.6,0,0,1-2.72,2.07,8.77,8.77,0,0,0-2.31,2,4.5,4.5,0,0,0-.91,1.86h5.11a13.85,13.85,0,0,0,2-.12v1.35a16.58,16.58,0,0,0-2-.1Z"/><path d="M632.17,406.56c0-.35,0-.63,0-.95.33,0,.68.05,1.13.05h3.48v-2.61H633a13.09,13.09,0,0,1-2.65,3.27,2.57,2.57,0,0,0-.77-.77,10.45,10.45,0,0,0,3.2-4.31,6,6,0,0,0,.4-1.17l1.14.32c-.07.13-.12.24-.21.44l-.61,1.29h7.94a7.84,7.84,0,0,0,1.44-.08v1.09a9.18,9.18,0,0,0-1.44-.08h-3.62v2.61h2.9a9,9,0,0,0,1.42-.08v1.06a10.92,10.92,0,0,0-1.4-.07h-2.92v3.14h4a9.8,9.8,0,0,0,1.61-.1v1.16a10.56,10.56,0,0,0-1.61-.1h-4v2.64a8.17,8.17,0,0,0,.11,1.49h-1.26a7.06,7.06,0,0,0,.1-1.49v-2.64H631a10.7,10.7,0,0,0-1.62.1v-1.16a10.27,10.27,0,0,0,1.62.1h1.21Zm4.57,3.15v-3.14h-3.53v3.14Z"/><path d="M646.05,412.91a12.16,12.16,0,0,0,.09,1.79H645a12.64,12.64,0,0,0,.09-1.79V402.57a17.25,17.25,0,0,0-.06-1.76,14.52,14.52,0,0,0,1.68.06H649a13.76,13.76,0,0,0,1.63-.06c0,.45-.05.93-.05,1.52v2c0,.64,0,1.08.05,1.48-.43,0-1,0-1.61,0h-2.93Zm0-10h3.58v-1.28h-3.58Zm0,2.05h3.58v-1.3h-3.58Zm8.4,6.06c0,.61,0,1.05,0,1.46-.45,0-1-.05-1.63-.05h-3.51v1.12h-1a10.3,10.3,0,0,0,.08-1.5v-3.55c0-.58,0-1-.05-1.51a13.6,13.6,0,0,0,1.58.07h2.93a13.56,13.56,0,0,0,1.59-.07c0,.45,0,.87,0,1.51Zm-5.09-1.74h4.18v-1.42h-4.18Zm0,2.35h4.18v-1.55h-4.18Zm8.58,1.49c0,1.06-.34,1.33-1.63,1.33-.34,0-1.2,0-1.6-.06a4,4,0,0,0-.29-1,16.15,16.15,0,0,0,1.76.16c.65,0,.78-.08.78-.46v-7.33h-3.28c-.67,0-1.18,0-1.62,0,0-.41.05-.89.05-1.48v-2c0-.56,0-1-.05-1.52a13.75,13.75,0,0,0,1.64.06h2.64a14.63,14.63,0,0,0,1.68-.06,16.15,16.15,0,0,0-.08,1.76ZM653,402.94H657v-1.28H653Zm0,2.05H657v-1.3H653Z"/><path d="M667.36,402.81l0-1.12a4.82,4.82,0,0,0-.07-.93h1.2a13.89,13.89,0,0,0-.08,2v.18l.92,0h2.81a9.42,9.42,0,0,0,1.06-.08V404a29.63,29.63,0,0,0-3.06-.08c-.24,0-.43,0-1.71,0v3.17a4.59,4.59,0,0,1,.39,1.88,5.14,5.14,0,0,1-2.15,4.18,10.29,10.29,0,0,1-2.53,1.3,3.4,3.4,0,0,0-.7-1c2.91-.88,4.3-2.34,4.38-4.58a2.24,2.24,0,0,1-.43.79,2.56,2.56,0,0,1-2,.86A2.5,2.5,0,0,1,662.7,408a2.67,2.67,0,0,1,2.85-2.64,2.48,2.48,0,0,1,1.86.72,8.78,8.78,0,0,1,0-.88c0-.08,0-.21,0-.42v-.83c-2.53,0-7,.27-7.53.4l0-1.17c.28,0,.4,0,.64,0,.46,0,.46,0,3-.1,1.61-.06,3-.11,3.87-.12Zm-3.58,5.12a1.56,1.56,0,0,0,1.66,1.59,1.8,1.8,0,0,0,1.87-1.89,1.21,1.21,0,0,0-.67-1.14,2.52,2.52,0,0,0-1.07-.24A1.69,1.69,0,0,0,663.78,407.93Zm6.8-8.11a12.18,12.18,0,0,1,1.6,2.18l-.79.49a11.54,11.54,0,0,0-1.6-2.22Zm2.27-.32a13.81,13.81,0,0,1,1.68,2.37l-.8.46a13.55,13.55,0,0,0-1.65-2.38Z"/><path d="M676.21,407.07a7.39,7.39,0,0,0,1.47-.29,20.94,20.94,0,0,1,4.88-.7c1.65,0,2.79.49,3.39,1.49a3.47,3.47,0,0,1,.5,1.82c0,1.79-1.44,3.43-3.66,4.13a15.56,15.56,0,0,1-3.3.61,3.57,3.57,0,0,0-.42-1.11,1,1,0,0,0,.22,0,10.71,10.71,0,0,0,3.16-.5c1.82-.59,2.93-1.81,2.93-3.23s-1-2.24-3-2.24a18.41,18.41,0,0,0-4.21.64,6.65,6.65,0,0,0-1.72.53Z"/><path d="M694.85,400.76a27.14,27.14,0,0,0,1.2,5.3c.94-.38,1.39-.56,3.87-1.42a9.07,9.07,0,0,0,1-.42l.48,1.22a36.31,36.31,0,0,0-4.82,1.55c-2.74,1.09-3.92,2.14-3.92,3.47s1.23,2,4.37,2a16.06,16.06,0,0,0,4.57-.54l.13,1.32a8,8,0,0,0-1.18.1,32.27,32.27,0,0,1-3.54.21,11.09,11.09,0,0,1-3.55-.43,2.66,2.66,0,0,1-2-2.63,3.46,3.46,0,0,1,1.43-2.72,10,10,0,0,1,2.09-1.3,32.88,32.88,0,0,1-1.16-4.48,5.47,5.47,0,0,0-.28-1Z"/><path d="M707.65,409.12a9.64,9.64,0,0,1-2.28,5.54,3.11,3.11,0,0,0-.89-.85,6.42,6.42,0,0,0,1.69-2.87,20,20,0,0,0,.66-5.84v-2.61a14.72,14.72,0,0,0-.1-2H708a14.23,14.23,0,0,0-.1,1.87v2h4.69V402a11.26,11.26,0,0,0-.1-1.69h1.27a9.71,9.71,0,0,0-.1,1.69v2.45h3.12a10.14,10.14,0,0,0,1.7-.11v1.18a10.27,10.27,0,0,0-1.68-.11h-8.9c0,1,0,2-.13,2.8h5.4a15.09,15.09,0,0,0,1.6-.06,10.3,10.3,0,0,0-.08,1.5v3.32a12.45,12.45,0,0,0,.11,1.84h-1.31a15.91,15.91,0,0,0,.09-1.86v-3.79Z"/><path d="M719.58,413.26a6.24,6.24,0,0,0,1.11-1.6,9.21,9.21,0,0,0,.91-2.56l1,.34a14.63,14.63,0,0,1-1,2.7,8.36,8.36,0,0,1-1.09,1.78Zm12.63-6.8a14.6,14.6,0,0,0,.06,1.49,11.51,11.51,0,0,0-1.5-.08h-8.08a13.27,13.27,0,0,0-1.49.08,12.66,12.66,0,0,0,.06-1.49v-3.9a13.46,13.46,0,0,0-.06-1.56,9.19,9.19,0,0,0,1.5.08h8.07a9.19,9.19,0,0,0,1.5-.08,15.19,15.19,0,0,0-.06,1.56Zm-10-4.5v2h3.94v-2Zm0,2.9V407h3.94v-2.13Zm2.56,7.88c0,.6.27.68,2.32.68,1.84,0,2.45-.08,2.67-.38a4.14,4.14,0,0,0,.29-1.84,3.17,3.17,0,0,0,1,.4c-.16,1.57-.3,2.06-.7,2.35s-1.34.42-3.44.42c-2.66,0-3.14-.21-3.14-1.43v-2.48a6.41,6.41,0,0,0-.09-1.47h1.2a6.85,6.85,0,0,0-.1,1.47Zm3.36-1a10.34,10.34,0,0,0-2.24-2.77l.75-.53a16.35,16.35,0,0,1,2.31,2.66Zm3.07-7.76v-2h-4.11v2Zm0,3v-2.13h-4.11V407Zm2,6.75a15.29,15.29,0,0,0-2.52-4.27l.79-.48a20.53,20.53,0,0,1,2.64,4.13Z"/><path d="M737.26,402.24a11.54,11.54,0,0,0-.11,1.9,27.45,27.45,0,0,0,.42,5c.35,1.63,1,2.73,1.61,2.73.29,0,.56-.27.8-.8a11.42,11.42,0,0,0,.84-2.73,5.08,5.08,0,0,0,.94.91c-.78,2.8-1.52,3.87-2.66,3.87-.89,0-1.72-.89-2.27-2.43s-.78-3.57-.86-7.51c0-.6,0-.65-.05-.94Zm7.73.84a14,14,0,0,1,2.29,3.65,15,15,0,0,1,1.2,4.28l-1.13.46a14.17,14.17,0,0,0-3.33-7.89Z"/><path d="M753.89,401.08a24.28,24.28,0,0,0-.21,3.38c-.06,1.92-.11,4.1-.11,4.82,0,.19,0,.59,0,1a2.5,2.5,0,0,0,.75,1.92,3,3,0,0,0,2,.62,4.59,4.59,0,0,0,4.29-2.78,9.65,9.65,0,0,0,.79-2.51,4.5,4.5,0,0,0,1.15.76,9.68,9.68,0,0,1-1.78,3.64,5.6,5.6,0,0,1-4.51,2,3.82,3.82,0,0,1-3-1.12c-.66-.75-.88-1.6-.88-3.28,0-1.08,0-1.48.14-6.52,0-.48,0-.78,0-1a6,6,0,0,0-.06-.85Z"/><path d="M765.39,403H766l.91,0c1.9-.15,7-.44,9.09-.53a10.51,10.51,0,0,0,1.91-.18l.09,1.2a7.62,7.62,0,0,0-1.79.21,8.06,8.06,0,0,0-3.07,1.62,4.86,4.86,0,0,0-2,3.69,3.14,3.14,0,0,0,2.24,3,8.42,8.42,0,0,0,2.4.51h.16l-.21,1.29-.5-.09a8.08,8.08,0,0,1-3.45-1.23,3.9,3.9,0,0,1-1.78-3.27,6.06,6.06,0,0,1,3-4.91,10.94,10.94,0,0,1,1.52-.85,30.44,30.44,0,0,1-3.52.35,44.89,44.89,0,0,0-5.52.53Z"/><path d="M780.64,403.52a11.64,11.64,0,0,0,2,.14c.32,0,.49,0,1,0a15.57,15.57,0,0,0,.35-2.95l1.26.13c-.09.38-.09.38-.28,1.52-.08.51-.13.74-.21,1.22a13,13,0,0,0,2.88-.55l.08,1.11a2.42,2.42,0,0,0-.45.08,23.67,23.67,0,0,1-2.7.38c-.24,1.27-.69,3.08-1.12,4.53a44.08,44.08,0,0,1-1.84,4.88l-1.17-.49a32.74,32.74,0,0,0,3-8.85H782.3c-.56,0-.7,0-1.33,0h-.06l-.27,0Zm7.15,5.81a5.51,5.51,0,0,0-.48.6,2,2,0,0,0-.4,1.14c0,1,1,1.47,2.8,1.47a11.91,11.91,0,0,0,3.54-.54l.11,1.2-.7.11a16.19,16.19,0,0,1-2.85.27c-2.63,0-4-.81-4-2.4,0-.72.23-1.21,1.08-2.3Zm5-2.77a16.25,16.25,0,0,0-1.89-.12,13.88,13.88,0,0,0-4,.55l-.11-1.09a18.07,18.07,0,0,1,4.24-.53c.3,0,.54,0,1.74.05Z"/><path d="M794.33,407.28a11.89,11.89,0,0,0,.71-4l.81.21a14.91,14.91,0,0,1-.7,4.19Zm2,7.44a18.25,18.25,0,0,0,.09-2.1V402.14a11.94,11.94,0,0,0-.09-1.87h1.18a11.3,11.3,0,0,0-.09,1.87V412.7a15.5,15.5,0,0,0,.09,2Zm2-8.55a11.1,11.1,0,0,0-.6-2.73l.68-.26a11.86,11.86,0,0,1,.68,2.7Zm2.72,4c-.69,0-1.14,0-1.49.05,0-.32.05-.69.05-1.47v-1.89a9.12,9.12,0,0,0-.05-1.39c.32,0,.77,0,1.5,0h5.57c.64,0,1.12,0,1.46,0a13.08,13.08,0,0,0,0,1.41v1.84c0,.81,0,1.31,0,1.5-.38,0-.82-.05-1.49-.05h-2.42v1.15h2.77a11,11,0,0,0,1.57-.08v1c-.49-.05-1.09-.08-1.58-.08h-2.76v1.3h3.38a8.43,8.43,0,0,0,1.59-.1v1a10.77,10.77,0,0,0-1.68-.1h-7.59a11.24,11.24,0,0,0-1.67.1v-1a8.62,8.62,0,0,0,1.59.1h3.49v-1.3h-2.59a13.85,13.85,0,0,0-1.59.08v-1a8.94,8.94,0,0,0,1.59.08h2.59v-1.15Zm5.94-8.75c.6,0,1.12,0,1.56-.08v.94a12.76,12.76,0,0,0-1.47-.08h-.46a15.69,15.69,0,0,1-.75,1.55h1.64a8.88,8.88,0,0,0,1.6-.08v1a10.5,10.5,0,0,0-1.58-.08h-7a8.38,8.38,0,0,0-1.51.08v-1a7.83,7.83,0,0,0,1.48.08h1.08a11.17,11.17,0,0,0-.64-1.55h-.17a11.38,11.38,0,0,0-1.51.08v-.94c.47,0,1,.08,1.56.08h2.33v-.13a7,7,0,0,0-.08-1.07h1.14a6.7,6.7,0,0,0-.08,1.05v.15Zm-6.49,4.88v1.12h2.79v-1.12Zm0,1.89v1.2h2.79v-1.2Zm4.36-4.44a8.19,8.19,0,0,0,.73-1.55h-3.61c.22.5.43,1,.62,1.55Zm-.68,3.67h3v-1.12h-3Zm0,2h3v-1.2h-3Z"/><path d="M810.06,410.43a25.27,25.27,0,0,0,2.82-2.7c0-.64,0-1.65.09-3.06a16.17,16.17,0,0,0-2.51.22l-.06-1.1a3.36,3.36,0,0,0,.49,0l2.1-.13c0-1.21.06-1.94.06-2.14a6.91,6.91,0,0,0,0-.8h1.26a18.35,18.35,0,0,0-.19,2.85.89.89,0,0,0,.32-.08l.41.5a5.69,5.69,0,0,0-.81,1,2.19,2.19,0,0,1,0,.4c0,.32,0,.32,0,1.07a.69.69,0,0,1,0,.15c0,.13,0,.16,0,.25l0,0a11.09,11.09,0,0,1,2-1.87,6.44,6.44,0,0,1,3.62-1.76,1.74,1.74,0,0,1,1.87,1.87,10.71,10.71,0,0,1-.36,2.34,17,17,0,0,0-.69,3.79c0,.74.33,1.14,1,1.14a2,2,0,0,0,1.36-.88,6.63,6.63,0,0,0,.91-1.85,5,5,0,0,0,.74,1.09,7.94,7.94,0,0,1-1,1.59,2.76,2.76,0,0,1-2.2,1.15,1.85,1.85,0,0,1-1.88-2.16,15.38,15.38,0,0,1,.61-3.73,12.06,12.06,0,0,0,.4-2.4.81.81,0,0,0-.88-.87,4.65,4.65,0,0,0-2.42,1.09,28,28,0,0,0-3.09,2.72v3.46a23.9,23.9,0,0,0,.05,2.66h-1.25a13.25,13.25,0,0,0,.12-2.64c0-1.88,0-1.88,0-2.6h0a1.56,1.56,0,0,1-.29.39l-.78.88c-.18.19-.4.45-.67.75a3.52,3.52,0,0,0-.42.51Z"/><path d="M831.28,409.31c-.93,2.11-1.87,3.07-3,3.07-1.52,0-2.65-1.66-2.65-3.9a6.5,6.5,0,0,1,6.85-6.55,6.17,6.17,0,0,1,4.4,1.59,5.32,5.32,0,0,1,1.55,3.9,5.82,5.82,0,0,1-3.66,5.52,11.93,11.93,0,0,1-2.44.74,2.44,2.44,0,0,0-.56-1.07,9.36,9.36,0,0,0,2.68-.76,4.83,4.83,0,0,0,2.83-4.48,4.22,4.22,0,0,0-2.54-4,4.56,4.56,0,0,0-1.86-.4A24,24,0,0,1,831.28,409.31Zm-2-5.59a5.54,5.54,0,0,0-2.61,4.77c0,1.54.67,2.72,1.54,2.72.67,0,1.31-.75,2-2.32A21.84,21.84,0,0,0,831.7,403,5.18,5.18,0,0,0,829.31,403.72Z"/><path d="M584.88,429.32a12.83,12.83,0,0,1-1.75,2.28,3.16,3.16,0,0,0-.84-.7,9,9,0,0,0,2.06-2.7,8.1,8.1,0,0,0,.75-2.26l1.14.3c-.11.26-.19.47-.3.77-.23.59-.34.88-.56,1.36h2.92v-1.26a10.13,10.13,0,0,0-.09-1.41h1.23a9.83,9.83,0,0,0-.1,1.41v1.26h3.83a10.51,10.51,0,0,0,1.54-.09v1.13a11,11,0,0,0-1.54-.09h-3.83v2.85h5a11.53,11.53,0,0,0,1.64-.1v1.14a10.9,10.9,0,0,0-1.64-.1H591v5.33c0,.42.21.48,1.54.48s1.77-.1,2-.46a5.67,5.67,0,0,0,.31-2.39,3.5,3.5,0,0,0,1,.43,7.08,7.08,0,0,1-.48,2.53c-.37.71-1,.87-3,.87-1.92,0-2.4-.23-2.4-1.11v-5.68h-2.4a7.84,7.84,0,0,1-.66,3.38,6.14,6.14,0,0,1-2.64,2.8,11.71,11.71,0,0,1-2,1,2.12,2.12,0,0,0-.3-.51,4.49,4.49,0,0,1-.35-.5A7.8,7.8,0,0,0,585,437.4a4.92,4.92,0,0,0,1.36-2.77,12.23,12.23,0,0,0,.13-1.52h-2.93a11,11,0,0,0-1.65.1v-1.14a11.58,11.58,0,0,0,1.65.1h4.78v-2.85Z"/><path d="M598.51,427.2a7.76,7.76,0,0,0-1.33.08v-.88a6.74,6.74,0,0,0,1.33.08h3.79a4.13,4.13,0,0,0-.09-.86h1.12a8.29,8.29,0,0,0-.07,1,8,8,0,0,1-.46,3.09,3.44,3.44,0,0,1-2,1.89,2.32,2.32,0,0,0-.73-.6,3.5,3.5,0,0,0,1.61-1c-1,.16-1.47.22-3.87.46l-.82.12-.19-.87a3,3,0,0,0,.39,0c.84,0,2.92-.16,4.85-.39.08-.28.11-.38.16-.62h-3.33a7.24,7.24,0,0,0-1.3.08v-.85a6.18,6.18,0,0,0,1.3.08h3.41c0-.27,0-.46,0-.77Zm0,5.29a6.85,6.85,0,0,0-1.34.08v-.93a7.82,7.82,0,0,0,1.34.08h4.76c0-.47,0-.66-.08-1h1.1a7.35,7.35,0,0,0-.1,1h5.08a7.4,7.4,0,0,0,1.33-.08v.93a6.86,6.86,0,0,0-1.33-.08h-5.08v.8h3.86a6.36,6.36,0,0,0,1.25-.08,8,8,0,0,0-.06,1.21v1.41a8,8,0,0,0,.06,1.25c-.34,0-.66-.05-1.23-.05h-3.88v.83h5.24a8,8,0,0,0,1.47-.08v1a10.4,10.4,0,0,0-1.47-.1h-5.24v.21a8.93,8.93,0,0,0,.1,1.39h-1.1a8.56,8.56,0,0,0,.08-1.39v-.21h-5a10.73,10.73,0,0,0-1.47.1v-1a8.26,8.26,0,0,0,1.49.08h4.95V437h-3.62a8.09,8.09,0,0,0-1.25.07,8,8,0,0,0,.06-1.22v-1.46a8.47,8.47,0,0,0-.06-1.21,6.36,6.36,0,0,0,1.25.08h3.62v-.8Zm.9,1.48v.85h3.86V434Zm0,1.52v.85h3.86v-.85Zm4.78-.67h4.1V434h-4.1Zm0,1.52h4.1v-.85h-4.1Zm1.35-6a4.48,4.48,0,0,0,.08.83h-1.09a5.61,5.61,0,0,0,.08-1.15V426.8a6.07,6.07,0,0,0-.08-1.18h1.09a6.12,6.12,0,0,0-.08.88h3.74a8.1,8.1,0,0,0,1.35-.08v.88a7.88,7.88,0,0,0-1.35-.08h-3.74v.85h3.25a7.24,7.24,0,0,0,1.3-.08v.85a6.41,6.41,0,0,0-1.3-.08h-3.25v.86h4a7.77,7.77,0,0,0,1.37-.08v.88a7.77,7.77,0,0,0-1.37-.08Z"/><path d="M615.28,426.63a22.79,22.79,0,0,0-.67,2.56,23.41,23.41,0,0,0-.48,5c0,1.25,0,2.19.09,3a15.42,15.42,0,0,1,1-3.12l.77.37a13.92,13.92,0,0,0-1.3,4.4v.24l-1.15.09c0-.25-.05-.33-.09-.64a22.47,22.47,0,0,1-.42-4.53,26.29,26.29,0,0,1,.72-6.33,8.79,8.79,0,0,0,.22-1.28Zm4.08,6.43a3.72,3.72,0,0,0-1.2,2.35c0,1.19,1,1.77,3.07,1.77a10.65,10.65,0,0,0,3.69-.56l.16,1.23a4.44,4.44,0,0,0-.57.08,16.8,16.8,0,0,1-3.28.32c-1.82,0-3-.39-3.66-1.22a2.26,2.26,0,0,1-.48-1.47,4.43,4.43,0,0,1,1.39-3Zm-2-4.74a10.68,10.68,0,0,0,2.72.24,17.07,17.07,0,0,0,4.29-.43l.08,1.14-1.11.14a26.43,26.43,0,0,1-3.44.21,21.81,21.81,0,0,1-2.56-.16Z"/><path d="M638.07,429.17a13.91,13.91,0,0,0,1.6-.06,9.14,9.14,0,0,0-.07,1.29V433a9.14,9.14,0,0,0,.07,1.29,13.39,13.39,0,0,0-1.54-.06h-3.84a7.75,7.75,0,0,1-.18,1.15h4.45a13.47,13.47,0,0,0,1.48-.06,6.74,6.74,0,0,0-.13,1.21,6.24,6.24,0,0,1-.68,2.79c-.32.37-.75.48-1.82.48-.61,0-.93,0-2-.11a3,3,0,0,0-.28-1,15,15,0,0,0,2.49.22c.75,0,.91-.11,1.07-.78a11.46,11.46,0,0,0,.25-1.88h-5.07a5.27,5.27,0,0,1-2.16,2.45,10.63,10.63,0,0,1-4,1.46,4.26,4.26,0,0,0-.64-.91c3.07-.43,4.91-1.36,5.81-3h-4a8.6,8.6,0,0,0-1.41.08v-1a8.47,8.47,0,0,0,1.44.08h4.33a8.85,8.85,0,0,0,.16-1.15h-3.45a12.45,12.45,0,0,0-1.5.06,9.8,9.8,0,0,0,.06-1.29V430.4a9.8,9.8,0,0,0-.06-1.29,13.24,13.24,0,0,0,1.57.06h3.52a14.23,14.23,0,0,0-2.56-1.25l.62-.6a18.22,18.22,0,0,1,2.37,1.2A20.23,20.23,0,0,0,637,427h-7a10.86,10.86,0,0,0-1.6.09v-1a11.85,11.85,0,0,0,1.68.1h6.85a9.13,9.13,0,0,0,1.45-.07l.55.75-.61.36a23.44,23.44,0,0,1-3.65,1.84l.18.14Zm-8.69,2.08h4V430h-4Zm0,2.13h4V432h-4ZM634.3,430v1.28h4.33V430Zm0,2v1.36h4.33V432Z"/><path d="M645,427.91a12.72,12.72,0,0,1-2.51,3.09,1.91,1.91,0,0,0-.75-.71,10.78,10.78,0,0,0,3-4.05,3.12,3.12,0,0,0,.31-.94l1.13.25a6.14,6.14,0,0,0-.27.56c-.14.29-.21.44-.45.87h7.88a13.33,13.33,0,0,0,2-.11V428a11.71,11.71,0,0,0-2-.11Zm6.15,11.47A28.34,28.34,0,0,0,648,436.6a17.17,17.17,0,0,1-5,3.26,2.8,2.8,0,0,0-.77-.88,15.38,15.38,0,0,0,5-3,31.51,31.51,0,0,0-3.06-2l.69-.64a29.46,29.46,0,0,1,3.06,1.94,8.11,8.11,0,0,0,1.79-2.48l1,.59-.23.27-.4.55a16.41,16.41,0,0,1-1.38,1.66,37.26,37.26,0,0,1,3.17,2.64Zm-6.79-6.94a12.45,12.45,0,0,0-1.65.09v-1.09a8.94,8.94,0,0,0,1.49.1h7.67a13.35,13.35,0,0,0,1.81-.08,12,12,0,0,0-.07,1.36,15,15,0,0,0,.59,4.66c.23.64.63,1.26.81,1.26s.48-1.2.57-2.67a2.26,2.26,0,0,0,.88.62,9.39,9.39,0,0,1-.43,2.2c-.21.67-.56,1-1,1-.63,0-1.41-.95-1.84-2.24a17.34,17.34,0,0,1-.61-5.25Zm.27-3.25a7.94,7.94,0,0,0,1.4.08h6.48a8.16,8.16,0,0,0,1.57-.1v1.09a8.13,8.13,0,0,0-1.57-.1h-6.39a10,10,0,0,0-1.49.08Z"/><path d="M661.84,428.15a6.77,6.77,0,0,0,.77-2.2l1.28.23a3.16,3.16,0,0,0-.42.86c-.21.52-.41.95-.49,1.09h.33a22.48,22.48,0,0,0,5-.61l.1,1.09a3.86,3.86,0,0,0-.64.08,51.78,51.78,0,0,1-5.28.41,11.36,11.36,0,0,1-1.44,2.27,5.44,5.44,0,0,1-.55.61l-.21.16s0,0,0,0v0s0,0,0,0l.74-.56a4.24,4.24,0,0,1,2.41-.78,2,2,0,0,1,2.12,1.78c1.17-.47,2.08-.8,2.78-1.06a3.32,3.32,0,0,0,1.09-.47l.51,1.13a26.35,26.35,0,0,0-4.27,1.4c0,.42,0,.58,0,1,0,.21,0,.56,0,.88s0,.58,0,.72a3.76,3.76,0,0,0,0,.58h-1.09a22.06,22.06,0,0,0,.1-2.3,3.33,3.33,0,0,0,0-.48c-2.17,1-3,1.77-3,2.73s1,1.53,3.25,1.53a13.39,13.39,0,0,0,4.28-.63l.14,1.23-.64.08a24.59,24.59,0,0,1-3.89.32c-2.86,0-4.26-.81-4.26-2.46a3.32,3.32,0,0,1,1.64-2.53,12.09,12.09,0,0,1,2.38-1.28c-.13-.88-.51-1.26-1.26-1.26a6,6,0,0,0-3.57,1.69,5.39,5.39,0,0,0-1.24,1.33l-.89-.9a15.91,15.91,0,0,0,3.58-4.57l.15-.24-.31,0-2.35-.05h-.26l-.35,0,0-1.11a22.39,22.39,0,0,0,3.42.18Z"/><path d="M678.43,427.14a6.55,6.55,0,0,0-.11-1.46h1.3a7.25,7.25,0,0,0-.12,1.46v4.05h4.21v-3a8.31,8.31,0,0,0-.06-1.16h1.2a8.29,8.29,0,0,0-.08,1.21v3.19c0,.32,0,.54,0,.81l-1,0H679.5V438h4.77v-3a7.88,7.88,0,0,0-.08-1.38h1.22a9.45,9.45,0,0,0-.08,1.43v3.61a7.44,7.44,0,0,0,.1,1.35h-1.16v-1h-10.4v1h-1.15a9,9,0,0,0,.09-1.35v-3.52a8.17,8.17,0,0,0-.08-1.42H674a8.47,8.47,0,0,0-.08,1.36v3h4.56v-5.86h-4l-1,0c0-.3,0-.54,0-.81v-3.17a10.71,10.71,0,0,0-.08-1.23h1.2a7.87,7.87,0,0,0-.06,1.18v3h3.9Z"/><path d="M691.22,426.44a24.08,24.08,0,0,0-.21,3.37c-.07,1.92-.11,4.1-.11,4.82,0,.19,0,.59,0,1a2.5,2.5,0,0,0,.75,1.92,3,3,0,0,0,2,.63,4.6,4.6,0,0,0,4.29-2.79,9.3,9.3,0,0,0,.78-2.51,4.68,4.68,0,0,0,1.16.77,9.86,9.86,0,0,1-1.78,3.63,5.62,5.62,0,0,1-4.51,2,3.79,3.79,0,0,1-3-1.12c-.66-.75-.88-1.6-.88-3.28,0-1.07,0-1.47.14-6.52,0-.48,0-.78,0-1a4.61,4.61,0,0,0-.07-.84Z"/><path d="M702.72,428.36h.57c.23,0,.42,0,.92-.05,1.9-.15,7-.43,9.09-.53a10.37,10.37,0,0,0,1.9-.18l.1,1.2a7.56,7.56,0,0,0-1.79.21,8.16,8.16,0,0,0-3.08,1.62,4.89,4.89,0,0,0-2,3.7,3.15,3.15,0,0,0,2.25,3,8.09,8.09,0,0,0,2.4.51h.16l-.21,1.3-.5-.1a8.18,8.18,0,0,1-3.46-1.23,3.92,3.92,0,0,1-1.77-3.27,6.08,6.08,0,0,1,3-4.91,10.4,10.4,0,0,1,1.52-.85,30.44,30.44,0,0,1-3.52.35,47.21,47.21,0,0,0-5.52.53Z"/><path d="M720.27,428.88a9.71,9.71,0,0,1-1.94,2.16,2.05,2.05,0,0,0-.8-.68,7.92,7.92,0,0,0,2.63-3.24,8.41,8.41,0,0,0,.48-1.31l1.06.37c-.13.24-.13.24-.32.65-.26.57-.39.82-.55,1.14h3v-.83a7.6,7.6,0,0,0-.09-1.51H725a8,8,0,0,0-.11,1.54v.8h3.39a11.68,11.68,0,0,0,1.64-.09V429a11.53,11.53,0,0,0-1.62-.1h-3.41v2.76h4.71a11.79,11.79,0,0,0,1.65-.1v1.14a11.22,11.22,0,0,0-1.65-.1H718.88a11.79,11.79,0,0,0-1.63.1v-1.14a12.37,12.37,0,0,0,1.61.1h5v-2.76Zm-1.09,11.18a10.55,10.55,0,0,0,.1-1.64v-2.88a9.68,9.68,0,0,0-.07-1.36,14,14,0,0,0,1.59.07h6.88a13.76,13.76,0,0,0,1.57-.07,10.22,10.22,0,0,0-.06,1.36v2.9a11.46,11.46,0,0,0,.09,1.62h-1.12v-.79H720.3v.79Zm1.12-1.72h7.86v-3.18H720.3Z"/><path d="M737.54,427.91a8.9,8.9,0,0,0,1-2.39l1.19.24a1.19,1.19,0,0,0-.13.29,16.91,16.91,0,0,1-.9,1.86h4.2a16.38,16.38,0,0,0,1.87-.08,15.05,15.05,0,0,0-.08,2V438a11.29,11.29,0,0,0,.09,1.91h-1.16V439h-8.7v.93h-1.16a14.8,14.8,0,0,0,.09-1.94v-8.15a15.05,15.05,0,0,0-.08-2,15.71,15.71,0,0,0,1.84.08Zm-2.65,4.83h8.7v-3.86h-8.7Zm0,5.24h8.7v-4.26h-8.7Z"/><path d="M751.38,426.44a24.08,24.08,0,0,0-.21,3.37c-.07,1.92-.11,4.1-.11,4.82,0,.19,0,.59,0,1a2.5,2.5,0,0,0,.75,1.92,3,3,0,0,0,2,.63,4.59,4.59,0,0,0,4.29-2.79,9.65,9.65,0,0,0,.79-2.51,4.45,4.45,0,0,0,1.15.77,9.7,9.7,0,0,1-1.78,3.63,5.62,5.62,0,0,1-4.51,2,3.79,3.79,0,0,1-3-1.12c-.66-.75-.88-1.6-.88-3.28,0-1.07,0-1.47.14-6.52,0-.48,0-.78,0-1a4.61,4.61,0,0,0-.07-.84Z"/><path d="M763.82,438a1,1,0,1,1-1-1A1,1,0,0,1,763.82,438Z"/><path d="M768.25,438a1,1,0,1,1-1-1A1,1,0,0,1,768.25,438Z"/><path d="M773.25,438a1,1,0,1,1-1-1A1,1,0,0,1,773.25,438Z"/><rect class="cls-21" x="558.25" y="146" width="303.5" height="136.5" rx="5"/><path d="M593.61,178.28a5,5,0,0,0-.26,1c-.11.54-.21.93-.43,1.74a12.89,12.89,0,0,0,2.86-.52l.05,1.1-.56.1a19.35,19.35,0,0,1-2.62.33,30.73,30.73,0,0,1-1.78,4.68c-.38.77-.53,1-1.14,2.09-.14.23-.24.42-.32.55l-1.08-.64a14.29,14.29,0,0,0,1.53-2.5,24.3,24.3,0,0,0,1.67-4.13l-1.19,0h-1.05a3.15,3.15,0,0,0-.36,0h-.2V181a10.89,10.89,0,0,0,1.91.12h1.15a16,16,0,0,0,.54-3Zm7.6,12.42a9.09,9.09,0,0,0-2.8-2.18,3.54,3.54,0,0,1,0,.51c0,1.65-1.09,2.56-3,2.56s-3.12-.89-3.12-2.32a2.27,2.27,0,0,1,1.49-2,4.69,4.69,0,0,1,1.89-.35,5.12,5.12,0,0,1,1.61.24c-.08-1-.11-1.8-.11-2.2a6.38,6.38,0,0,1,.16-1.55l1.09.11a5,5,0,0,0-.21,1.49,18.51,18.51,0,0,0,.18,2.44,11.31,11.31,0,0,1,3.14,1.93,1.43,1.43,0,0,0,.28.26Zm-5.63-2.87c-1.36,0-2.23.56-2.23,1.44s.77,1.31,2,1.31,2-.54,2-1.74c0-.19,0-.69,0-.69A4.71,4.71,0,0,0,595.58,187.83Zm5.61-4.35A17.29,17.29,0,0,0,597,181.3l.6-.9a22.06,22.06,0,0,1,4.22,2.12Z"/><path d="M609.46,178.61c-.2.39-.2.39-1.77,4.4a26.06,26.06,0,0,1-1.16,2.64l-.17.36a2.37,2.37,0,0,0-.15.28l.08,0c1.06-1.52,1.88-2.1,3-2.1a1.77,1.77,0,0,1,1.6.94,3.93,3.93,0,0,1,.28,1.81v1.09a2.76,2.76,0,0,0,.25,1.52,1.48,1.48,0,0,0,1.22.5,2.77,2.77,0,0,0,2.56-2,7,7,0,0,0,.61-2.28,4.32,4.32,0,0,0,1.06.82,8.72,8.72,0,0,1-1.14,2.82,3.73,3.73,0,0,1-3.19,1.74,2.25,2.25,0,0,1-2.33-1.44,6.34,6.34,0,0,1-.15-1.73v-.91a3.37,3.37,0,0,0-.13-1.22.85.85,0,0,0-.91-.59c-.93,0-2,.85-2.86,2.37a16.48,16.48,0,0,0-1.48,3.68l-1.23-.38c.21-.45.21-.45,2.52-6.6,1.74-4.62,2.09-5.63,2.19-6.11Z"/><path d="M618.58,180.48l.58,0c.22,0,.41,0,.91-.05.9-.06,1-.08,3-.19l2.51-.16c2-.11,2.18-.13,2.71-.14l.91,0a12,12,0,0,0,1.91-.17l.09,1.18a6.71,6.71,0,0,0-1.79.23,7.74,7.74,0,0,0-3.07,1.6,4.89,4.89,0,0,0-2,3.69,3.14,3.14,0,0,0,2.24,3,8.42,8.42,0,0,0,2.4.51h.16l-.21,1.29-.49-.09A8.08,8.08,0,0,1,625,189.9a3.88,3.88,0,0,1-1.78-3.27,6.07,6.07,0,0,1,3-4.91,9.9,9.9,0,0,1,1.52-.85,32.8,32.8,0,0,1-3.53.35,50.31,50.31,0,0,0-5.52.53Zm10.71,2.39a12.16,12.16,0,0,1,1.65,2.48l-.82.48a10.91,10.91,0,0,0-1.63-2.54Zm1.81-.88a13,13,0,0,1,1.65,2.5l-.8.44a12.52,12.52,0,0,0-1.64-2.51Z"/><path d="M634.33,184.61a10.43,10.43,0,0,0,2.86.64c.08-.78.24-2,.37-2.88a19.13,19.13,0,0,1-2.39-.43l-.49-.11.14-1.06a10.4,10.4,0,0,0,2.88.63,25.07,25.07,0,0,0,.39-3v-.13l1.28.14a7.46,7.46,0,0,0-.26,1.08c0,.14,0,.14-.16,1-.05.35-.08.51-.16,1,.45,0,.67,0,.93,0a12.71,12.71,0,0,0,2.93-.28l0,1.11-1.12.1q-.75.06-1.44.06c-.26,0-.53,0-1.41,0-.25,1.84-.27,2-.37,2.89l1.06,0a14.07,14.07,0,0,0,2.95-.26l0,1.08-.43,0a19.78,19.78,0,0,1-2.26.13c-.4,0-.65,0-1.37,0a2.21,2.21,0,0,1,0,.32c0,.39-.06.92-.06,1.19a2.38,2.38,0,0,0,.73,1.92,3.37,3.37,0,0,0,2.26.69c2.15,0,3.54-1.11,3.54-2.8a3.67,3.67,0,0,0-1.52-2.79,3.09,3.09,0,0,0,1.17-.32,4.29,4.29,0,0,1,1.5,3.19c0,2.25-1.89,3.77-4.69,3.77a4,4,0,0,1-3.58-1.6,4.29,4.29,0,0,1-.5-2.2,10.27,10.27,0,0,1,.06-1.06c0-.24,0-.24,0-.39a15.43,15.43,0,0,1-2.42-.4,1.51,1.51,0,0,0-.5-.09Z"/><path d="M653.77,178.28a5,5,0,0,0-.26,1c-.11.54-.21.93-.43,1.74a12.89,12.89,0,0,0,2.86-.52l0,1.1-.56.1a19.35,19.35,0,0,1-2.62.33,30.73,30.73,0,0,1-1.78,4.68c-.38.77-.53,1-1.14,2.09-.14.23-.24.42-.32.55l-1.08-.64a14.29,14.29,0,0,0,1.53-2.5,24.3,24.3,0,0,0,1.67-4.13l-1.19,0h-1l-.36,0h-.2V181a10.89,10.89,0,0,0,1.91.12H652a16,16,0,0,0,.54-3Zm7.6,12.42a9.09,9.09,0,0,0-2.8-2.18,3.54,3.54,0,0,1,0,.51c0,1.65-1.09,2.56-3,2.56s-3.12-.89-3.12-2.32a2.27,2.27,0,0,1,1.49-2,4.69,4.69,0,0,1,1.89-.35,5.12,5.12,0,0,1,1.61.24c-.08-1-.11-1.8-.11-2.2a6.38,6.38,0,0,1,.16-1.55l1.09.11a5,5,0,0,0-.21,1.49,18.51,18.51,0,0,0,.18,2.44,11.31,11.31,0,0,1,3.14,1.93,1.43,1.43,0,0,0,.28.26Zm-5.63-2.87c-1.36,0-2.23.56-2.23,1.44s.77,1.31,2,1.31,2-.54,2-1.74c0-.19,0-.69,0-.69A4.71,4.71,0,0,0,655.74,187.83Zm5.61-4.35a17.29,17.29,0,0,0-4.24-2.18l.6-.9a22.06,22.06,0,0,1,4.22,2.12Z"/><path d="M665.78,179.75a11.54,11.54,0,0,0-.11,1.9,27.37,27.37,0,0,0,.42,5c.35,1.63,1,2.74,1.61,2.74.29,0,.56-.27.8-.8a11.51,11.51,0,0,0,.84-2.74,4.78,4.78,0,0,0,.94.91c-.78,2.8-1.52,3.88-2.66,3.88-.89,0-1.72-.9-2.27-2.44s-.78-3.57-.86-7.5c0-.61,0-.66,0-1Zm7.73.85a13.66,13.66,0,0,1,2.29,3.65,15,15,0,0,1,1.2,4.27l-1.13.46a14.2,14.2,0,0,0-3.33-7.89Z"/><path d="M685.78,177.73a12,12,0,0,0,3.29,3.41,15.12,15.12,0,0,0,3.74,2.13,3.3,3.3,0,0,0-.66,1,21.33,21.33,0,0,1-3.85-2.4,14.34,14.34,0,0,1-3.11-3.21A16.61,16.61,0,0,1,682,182a17.55,17.55,0,0,1-3.59,2.23,3.71,3.71,0,0,0-.67-.93,16.84,16.84,0,0,0,4.48-2.86,11.76,11.76,0,0,0,2.34-2.71Zm5.3,8.56c-.19.2-.48.5-.65.72l-3.19,3.91c-.43.54-.75,1-1.07,1.44l-1.14-.67a11.34,11.34,0,0,0,1.27-1.31l3.13-3.78h-7.92c-.61,0-1.18,0-1.86.09v-1.18a18,18,0,0,0,1.86.1h7.12a11,11,0,0,0,1.8-.08Zm-9.22-3.73a8.13,8.13,0,0,0,1.27.07h4.21a9.27,9.27,0,0,0,1.34-.07v1.11a10.56,10.56,0,0,0-1.37-.06h-4.17a8.79,8.79,0,0,0-1.28.06Z"/><path d="M695.14,180.18a10.43,10.43,0,0,0-.08-1.57,12.09,12.09,0,0,0,1.71.08H704a10.89,10.89,0,0,0,1.65-.08,9.36,9.36,0,0,0-.08,1.47v10.26a13.19,13.19,0,0,0,.09,1.72h-1.17v-1h-8.25v1h-1.17a13.17,13.17,0,0,0,.09-1.7Zm1.08,4h8.25v-4.48h-8.25Zm0,5.89h8.25v-4.91h-8.25Z"/><path d="M714.68,186.82c-.93,2.12-1.87,3.08-3,3.08-1.52,0-2.65-1.67-2.65-3.91a6.5,6.5,0,0,1,6.85-6.55,6.17,6.17,0,0,1,4.4,1.59,5.34,5.34,0,0,1,1.55,3.9,5.83,5.83,0,0,1-3.66,5.53,12.67,12.67,0,0,1-2.44.73,2.44,2.44,0,0,0-.56-1.07,9.72,9.72,0,0,0,2.68-.75,4.84,4.84,0,0,0,2.83-4.48,4.22,4.22,0,0,0-2.54-4,4.56,4.56,0,0,0-1.86-.4A24,24,0,0,1,714.68,186.82Zm-2-5.58A5.54,5.54,0,0,0,710.1,186c0,1.53.67,2.72,1.54,2.72.67,0,1.31-.76,2-2.32a22,22,0,0,0,1.46-5.93A5.08,5.08,0,0,0,712.71,181.24Z"/><path d="M726.28,180c-.83.21-1.3.31-2.5.55a2.94,2.94,0,0,0-.46-.92,16.35,16.35,0,0,0,5.89-1.68l.7.85c-.19.06-.27.1-1,.4-.38.15-.88.31-1.66.55v2.45h1.25a8.83,8.83,0,0,0,1.47-.1v1.1a10.07,10.07,0,0,0-1.49-.08h-1.18a9.31,9.31,0,0,0,2.57,3.24,4.06,4.06,0,0,0-.57.89,10.92,10.92,0,0,1-2.11-3c0,1.12,0,1.12.06,2.67v3.47a10.76,10.76,0,0,0,.1,2h-1.19a13.31,13.31,0,0,0,.11-2v-3.29c0-.71,0-1.91.07-2.68a12.64,12.64,0,0,1-2.87,5,3.19,3.19,0,0,0-.64-.89,13.28,13.28,0,0,0,3.27-5.37h-1.28a10.61,10.61,0,0,0-1.52.08v-1.1a9.77,9.77,0,0,0,1.53.1h1.46Zm7.59-1.52a18.46,18.46,0,0,0-.56,2.37,71.8,71.8,0,0,1-2.77,9.38c1.9-.21,4.14-.51,5.68-.82A31.55,31.55,0,0,0,734,184.6l.9-.39a35.43,35.43,0,0,1,3.15,7.13l-1,.43c-.21-.72-.27-1-.47-1.52-2.09.41-4.37.75-7,1.05a8.32,8.32,0,0,0-1,.16l-.24-1.15a2.06,2.06,0,0,0,.34,0c.22,0,.5,0,.85-.05a62.79,62.79,0,0,0,2.61-8.8,16.85,16.85,0,0,0,.54-3.27Z"/><path d="M590.58,230.71a11.76,11.76,0,0,0-.11,1.91,27.45,27.45,0,0,0,.42,5c.35,1.63,1,2.73,1.61,2.73.29,0,.56-.27.8-.8a11.42,11.42,0,0,0,.84-2.73,5.08,5.08,0,0,0,.94.91c-.78,2.8-1.52,3.87-2.66,3.87-.89,0-1.73-.89-2.27-2.43s-.78-3.57-.86-7.51c0-.61,0-.65,0-.94Zm7.73.85a13.82,13.82,0,0,1,2.29,3.65,15,15,0,0,1,1.2,4.28l-1.13.46a14.17,14.17,0,0,0-3.33-7.89Z"/><path d="M605.62,230.71a11.76,11.76,0,0,0-.11,1.91,27.45,27.45,0,0,0,.42,5c.35,1.63,1,2.73,1.61,2.73.29,0,.56-.27.8-.8a11.42,11.42,0,0,0,.84-2.73,5.08,5.08,0,0,0,.94.91c-.78,2.8-1.52,3.87-2.66,3.87-.89,0-1.73-.89-2.27-2.43s-.78-3.57-.86-7.51c0-.61,0-.65-.05-.94Zm7.73.85a13.82,13.82,0,0,1,2.29,3.65,15,15,0,0,1,1.2,4.28l-1.13.46a14.17,14.17,0,0,0-3.33-7.89Z"/><path d="M624.52,236.54h-3.76a10.81,10.81,0,0,0-1.51.08v-1a9.88,9.88,0,0,0,1.54.08h3.73v-1h-3.35a9.85,9.85,0,0,0-1.31.06,7.21,7.21,0,0,0,.07-1.07V233a7.59,7.59,0,0,0-.07-1.09,12.7,12.7,0,0,0,1.33.06h3.33v-1.06h-4.64a14.25,14.25,0,0,0-1.79.1v-1.06a10.93,10.93,0,0,0,1.82.1h4.61a6.43,6.43,0,0,0-.1-1.44h1.17a5.47,5.47,0,0,0-.11,1.44h4.9a11.21,11.21,0,0,0,1.84-.1V231a15.1,15.1,0,0,0-1.81-.1h-4.93v1.06h3.68a12,12,0,0,0,1.31-.06,9.3,9.3,0,0,0-.06,1.09v.7a9,9,0,0,0,.06,1.07,9.62,9.62,0,0,0-1.29-.06h-3.7v1H629a14.74,14.74,0,0,0,1.79-.07,13.17,13.17,0,0,0,0,1.33v.68a8,8,0,0,0,1.7-.1v1a10.21,10.21,0,0,0-1.7-.08v1a9.86,9.86,0,0,0,.1,1.6h-1v-.66h-4.29v1.33c0,1.11-.32,1.33-1.87,1.33-.34,0-.63,0-1.52-.06a2.56,2.56,0,0,0-.28-1,14.24,14.24,0,0,0,2,.16c.58,0,.72-.08.72-.44v-1.31h-3.86a11.38,11.38,0,0,0-1.57.08v-1a10.13,10.13,0,0,0,1.54.08h3.89v-1.15h-4.8a11,11,0,0,0-1.75.08v-1a10.9,10.9,0,0,0,1.75.1h4.8Zm-3.63-3.82v1.18h3.63v-1.18Zm4.59,1.18h4v-1.18h-4Zm4.29,3.75v-1.11h-4.29v1.11Zm-4.29,2h4.29v-1.15h-4.29Z"/><path d="M633.4,233.26a33.88,33.88,0,0,0,3.54-.42,20,20,0,0,0,.48-3.39v-.21l1.28.15a9.24,9.24,0,0,0-.31,1.53c-.06.4-.21,1.14-.33,1.83.36,0,.57-.05.94-.05a3.07,3.07,0,0,1,2.31.67,3.28,3.28,0,0,1,.78,2.58c0,2.45-.42,4.58-1.07,5.5a1.68,1.68,0,0,1-1.57.76,6,6,0,0,1-2.42-.63,3.76,3.76,0,0,0,0-.57,3.61,3.61,0,0,0,0-.63,5.86,5.86,0,0,0,2.38.74c.4,0,.7-.26.91-.77a12.44,12.44,0,0,0,.67-4.45c0-1.7-.48-2.24-2-2.24a10.15,10.15,0,0,0-1.16.08,31.2,31.2,0,0,1-3.45,8.71l-1.09-.64a23.67,23.67,0,0,0,3.42-8,19.69,19.69,0,0,0-3.21.57Zm10.51-1.47a14.52,14.52,0,0,1,3.35,5.66l-1,.58a13.49,13.49,0,0,0-3.26-5.75Zm.72-2.72a11.89,11.89,0,0,1,1.65,2.48l-.8.48a12.21,12.21,0,0,0-1.65-2.55Zm1.81-.87a12.89,12.89,0,0,1,1.65,2.48l-.8.47a11.36,11.36,0,0,0-1.63-2.52Z"/><path d="M649.45,231.15a11.33,11.33,0,0,0,3,.25h.4c0-.39,0-.39.08-1.2,0-.18.05-.8.05-.92a1.43,1.43,0,0,0,0-.24l1.25.08a11.58,11.58,0,0,0-.34,2.24,24.33,24.33,0,0,0,6.1-.89l.07,1.12-.56.08a45.36,45.36,0,0,1-5.67.64c-.1,1.36-.1,1.36-.11,2.14a8.58,8.58,0,0,1,2.37-.32c.33,0,.53,0,.92,0a5.51,5.51,0,0,0,.39-1.44l1.1.34c0,.09-.22.53-.49,1.28,2.21.51,3.44,1.87,3.44,3.74a4.11,4.11,0,0,1-2.51,3.7,8.78,8.78,0,0,1-3.27.91,3.18,3.18,0,0,0-.51-1.07,7.48,7.48,0,0,0,2.4-.43c1.74-.61,2.75-1.78,2.75-3.2s-.91-2.34-2.64-2.79a14.37,14.37,0,0,1-3,4.8A5.25,5.25,0,0,1,651,242a2.18,2.18,0,0,1-2.06-2.43c0-2,1.39-3.76,3.71-4.77,0-1.17,0-1.25.1-2.42h-.64l-2.17-.08a2,2,0,0,0-.28,0,1.33,1.33,0,0,0-.26,0Zm1.53,5.92a3.79,3.79,0,0,0-1,2.38c0,.88.46,1.46,1.15,1.46a2.88,2.88,0,0,0,1.84-.82,22.92,22.92,0,0,1-.32-4.33A5.82,5.82,0,0,0,651,237.07Zm2.93,2.37a1.67,1.67,0,0,1,.31-.42,14.29,14.29,0,0,0,2.44-4l-.76,0a7.24,7.24,0,0,0-2.23.37,26.45,26.45,0,0,0,.18,3.66,1.77,1.77,0,0,1,0,.23v.17Z"/><path d="M664.89,235.55a7.39,7.39,0,0,0,1.47-.29,20.41,20.41,0,0,1,4.88-.7c1.65,0,2.79.49,3.39,1.48a3.53,3.53,0,0,1,.5,1.83c0,1.79-1.44,3.42-3.66,4.13a15.56,15.56,0,0,1-3.3.61,3.57,3.57,0,0,0-.42-1.11,1,1,0,0,0,.23,0,10.7,10.7,0,0,0,3.15-.5c1.82-.59,2.93-1.81,2.93-3.23s-1-2.24-3-2.24a18.41,18.41,0,0,0-4.21.64,6.65,6.65,0,0,0-1.72.53Z"/><path d="M679.08,232a10.57,10.57,0,0,0,2,.15c.32,0,.49,0,1,0a15.57,15.57,0,0,0,.35-3l1.27.13a12.76,12.76,0,0,0-.29,1.52c-.08.51-.13.74-.21,1.22a13,13,0,0,0,2.88-.55l.08,1.11a2.42,2.42,0,0,0-.45.08,23.67,23.67,0,0,1-2.7.38c-.24,1.27-.69,3.07-1.12,4.53a44.08,44.08,0,0,1-1.84,4.88l-1.17-.49a32.74,32.74,0,0,0,3-8.85h-1.11c-.56,0-.7,0-1.33,0h-.06l-.27,0Zm7.15,5.82a5.51,5.51,0,0,0-.48.6,2,2,0,0,0-.4,1.14c0,1,1,1.47,2.8,1.47a11.91,11.91,0,0,0,3.54-.54l.11,1.2-.7.11a16.19,16.19,0,0,1-2.85.27c-2.63,0-4-.81-4-2.4,0-.72.23-1.21,1.08-2.3Zm4.95-2.77a16.25,16.25,0,0,0-1.89-.12,13.93,13.93,0,0,0-4,.55l-.11-1.09a18.07,18.07,0,0,1,4.24-.53c.3,0,.54,0,1.74.05Z"/><path d="M698,240.69a2.4,2.4,0,1,1-2.4-2.4A2.4,2.4,0,0,1,698,240.69Zm-3.89,0a1.49,1.49,0,1,0,1.49-1.49A1.5,1.5,0,0,0,694.13,240.69Z"/><path d="M718.89,230.79a8.63,8.63,0,0,0,.86-2.24l1.15.21a15.55,15.55,0,0,1-.91,2h3.86a14.73,14.73,0,0,0,1.94-.08,14.53,14.53,0,0,0-.08,2v8.51a10.49,10.49,0,0,0,.09,1.86h-1.12v-.94h-8.45v.94h-1.1a13.88,13.88,0,0,0,.09-1.87v-8.5a15.13,15.13,0,0,0-.08-2,14.17,14.17,0,0,0,1.89.08Zm-2.66,3.4h8.47v-2.45h-8.47Zm0,3.46h8.47v-2.53h-8.47Zm0,3.53h8.47v-2.61h-8.47Z"/><path d="M730.65,240.17a7.69,7.69,0,0,1-1.72,2.93,2.75,2.75,0,0,0-.8-.65,6.28,6.28,0,0,0,1.67-2.69Zm-.4-.91a7.28,7.28,0,0,0-1.27.05c0-.42,0-.86,0-1.47v-7.05a12.45,12.45,0,0,0-.06-1.4c.38,0,.8,0,1.44,0h1.73a12.14,12.14,0,0,0,1.39,0,8.94,8.94,0,0,0,0,1.34v7.16c0,.68,0,1.08,0,1.42-.47,0-.75-.05-1.33-.05Zm-.27-6.88h2.57V230.3H730Zm0,3h2.57v-2.15H730Zm0,3h2.57v-2.22H730Zm2.2,1.33a9.4,9.4,0,0,0,1.11,2,4.16,4.16,0,0,0-.79.57,15.75,15.75,0,0,1-1.12-2.22Zm3.67-5.42a34.8,34.8,0,0,1-.45,5.1,9.66,9.66,0,0,1-1.49,3.81,2.66,2.66,0,0,0-.81-.69c1.37-1.89,1.79-4.43,1.79-11,0-.92,0-1.45-.07-2a13.64,13.64,0,0,0,1.7.08h4.68a11.21,11.21,0,0,0,1.56-.09v1.12a8.9,8.9,0,0,0-1.53-.08h-5.35v2.88h4.61a6.73,6.73,0,0,0,1.32-.08l.55.61a5.89,5.89,0,0,0-.23.61,15.66,15.66,0,0,1-2.38,5,9.76,9.76,0,0,0,3.31,2.66,4.55,4.55,0,0,0-.69.95,11.79,11.79,0,0,1-3.26-2.81,13.09,13.09,0,0,1-3.59,2.93,3.13,3.13,0,0,0-.75-.84,10.12,10.12,0,0,0,3.75-2.89,12.89,12.89,0,0,1-2-5.21Zm1.6,0a10.7,10.7,0,0,0,1.7,4.38,13.58,13.58,0,0,0,2-4.38Z"/><path d="M745.05,230.41a10.18,10.18,0,0,0-.08-1.66h1.1a13.16,13.16,0,0,0-.06,1.64V232h.43a5.62,5.62,0,0,0,1-.07v1a8.28,8.28,0,0,0-1-.06h-.38a6.23,6.23,0,0,0,1.18,1.94,5.53,5.53,0,0,0-.44.83,5.6,5.6,0,0,1-.87-1.71c0,1.1.07,1.79.07,2.35v5.25a12.23,12.23,0,0,0,.08,1.86H745a14.44,14.44,0,0,0,.09-1.86v-4.37c0-.63.07-1.87.16-3.09a13.7,13.7,0,0,1-1.81,5,3.46,3.46,0,0,0-.57-.93,13.7,13.7,0,0,0,2.08-5.28h-.56a8.19,8.19,0,0,0-1.11.06v-1a6,6,0,0,0,1.11.07h.69Zm4.69,7.32c0,.41,0,.44-.07.76a6.4,6.4,0,0,0,2.08,1.72,3.47,3.47,0,0,0-.53.76,7.07,7.07,0,0,1-1.74-1.52,6.62,6.62,0,0,1-2.19,3.62,2.55,2.55,0,0,0-.77-.69c1.47-1,2.14-2.37,2.3-4.65h-.17a8.76,8.76,0,0,0-1.44.08v-1a9.26,9.26,0,0,0,1.44.08h3.65a17.21,17.21,0,0,1-.28-2,44.76,44.76,0,0,1-.24-5,6,6,0,0,0-.08-1h1.12a9,9,0,0,0-.08,1.57,41.56,41.56,0,0,0,.45,6.45H756a8.28,8.28,0,0,0,1.69-.1v1a10.14,10.14,0,0,0-1.69-.09h-2.68a7.74,7.74,0,0,0,.8,2.14,5.66,5.66,0,0,0,1.49-1.79l.82.56a20.26,20.26,0,0,1-1.86,2c.69,1,1.35,1.55,1.76,1.55.19,0,.29-.13.43-.54a6.93,6.93,0,0,0,.29-1.62,3.42,3.42,0,0,0,.82.56c-.37,2-.69,2.61-1.44,2.61s-1.65-.67-2.56-2a12.58,12.58,0,0,1-4,2,2.5,2.5,0,0,0-.64-.81,11.15,11.15,0,0,0,4.14-1.94,9.07,9.07,0,0,1-1-2.7Zm.52-8.49a14.73,14.73,0,0,1-1.5,2.47,7.15,7.15,0,0,1,.77.93,13.47,13.47,0,0,0,1-1.77l.77.55a29.8,29.8,0,0,1-2.48,3.52c.78-.1,1.48-.19,2-.29a6.82,6.82,0,0,0-.53-1l.64-.24a10.06,10.06,0,0,1,1,2.29l-.72.3c-.08-.32-.11-.41-.19-.7-.68.14-1.52.3-3.06.54a3.54,3.54,0,0,0-.45.08l-.19-.91a.76.76,0,0,0,.19,0,1.48,1.48,0,0,0,.27,0,18.37,18.37,0,0,0,1.28-1.68,10.12,10.12,0,0,0-1.89-2l.58-.64c.13.13.27.27.45.43a8.45,8.45,0,0,0,1.22-2.3Zm2.93,5.33a1.25,1.25,0,0,0,.24,0,.47.47,0,0,0,.16,0c.55-.62.68-.78,1.19-1.44a9.69,9.69,0,0,0-1.84-1.94l.53-.67.49.48a8.65,8.65,0,0,0,1.17-2.11l.83.45a19.22,19.22,0,0,1-1.45,2.21,11.44,11.44,0,0,1,.76.91,17.79,17.79,0,0,0,1.24-1.92l.73.57a39.79,39.79,0,0,1-2.69,3.41,17.37,17.37,0,0,0,2-.22,6,6,0,0,0-.48-.9l.65-.25a13.51,13.51,0,0,1,1.17,2.46l-.74.29a7.07,7.07,0,0,0-.32-.94c-.36.08-1.42.22-3.15.44l-.27,0Zm1.73.77a5.36,5.36,0,0,1,1.22,1l-.58.54a5.78,5.78,0,0,0-1.2-1.06Z"/><path d="M759.05,231.45l.57,0c.23,0,.42,0,.91-.05.9-.07,1-.08,3-.19l2.51-.16c2-.12,2.18-.13,2.7-.15l.92,0a9.85,9.85,0,0,0,1.9-.18l.1,1.19a6.78,6.78,0,0,0-1.8.22,8,8,0,0,0-3.07,1.6,4.91,4.91,0,0,0-2,3.7,3.13,3.13,0,0,0,2.24,3,8.22,8.22,0,0,0,2.4.51h.16l-.2,1.3-.5-.1a8,8,0,0,1-3.46-1.23,3.88,3.88,0,0,1-1.77-3.26,6.08,6.08,0,0,1,3-4.92,11.41,11.41,0,0,1,1.52-.85,34.43,34.43,0,0,1-3.52.36,49.67,49.67,0,0,0-5.52.53Zm10.7,2.39a11.89,11.89,0,0,1,1.65,2.48l-.81.48a11.57,11.57,0,0,0-1.64-2.55Zm1.81-.88a13,13,0,0,1,1.65,2.49l-.8.45a12.61,12.61,0,0,0-1.63-2.51Z"/><path d="M775.48,233.63a25.47,25.47,0,0,1,4.06,2.08l-.62,1.09a17.8,17.8,0,0,0-4.08-2.2Zm-.42,7.31h.1a14.45,14.45,0,0,0,4.21-1,11.44,11.44,0,0,0,6.72-7.17,4.84,4.84,0,0,0,1,.86c-2,4.85-5.31,7.37-11.07,8.45a4.69,4.69,0,0,0-.63.16Zm1.67-11.14a24.64,24.64,0,0,1,4,2l-.66,1.07a17.3,17.3,0,0,0-3.94-2.13Zm8.38-.73a12.25,12.25,0,0,1,1.64,2.48l-.8.48a12.62,12.62,0,0,0-1.64-2.55Zm1.8-.87a12.49,12.49,0,0,1,1.66,2.48l-.8.47a11.84,11.84,0,0,0-1.65-2.52Z"/><path d="M799.55,241.1A6.73,6.73,0,0,0,801,241v1.16a9.38,9.38,0,0,0-1.46-.08h-7.84a9.06,9.06,0,0,0-1.46.08V241a6.79,6.79,0,0,0,1.44.09h4.87c.36-1.71.73-4.06.88-5.5h-4.28a7.69,7.69,0,0,0-1.41.06v-1.15a9,9,0,0,0,1.43.09h4.29a1.56,1.56,0,0,0,.75-.11l.53.47a3,3,0,0,0-.26,1.12c-.37,2.54-.49,3.34-.83,5Z"/><path d="M804.12,235.24a11.1,11.1,0,0,0,2,.1h9.3a13.24,13.24,0,0,0,1.94-.08v1.3a17.3,17.3,0,0,0-2-.07H806.1a16.42,16.42,0,0,0-2,.07Z"/><path d="M831.27,242.19a29.24,29.24,0,0,0-5.12-4.94,17.46,17.46,0,0,1-3,2.86A21,21,0,0,1,820,242a3.67,3.67,0,0,0-.79-1.06,12.31,12.31,0,0,0,3.25-1.84,17.28,17.28,0,0,0,5.72-7.22c0-.09.05-.11.08-.19a.54.54,0,0,0,0-.11,2.3,2.3,0,0,1-.39,0l-5.35.08a10,10,0,0,0-1.64.12l0-1.29a8.06,8.06,0,0,0,1.27.08h.41l5.72-.07a3,3,0,0,0,1-.12l.68.68a3,3,0,0,0-.45.79,19.61,19.61,0,0,1-2.64,4.48,41,41,0,0,1,5.33,4.8Z"/><path d="M593.19,267.86a9.34,9.34,0,0,1-2.21,1.29,15.22,15.22,0,0,1-2.49.85,3.34,3.34,0,0,0-.68-.9,14.67,14.67,0,0,0,2.69-.76,6,6,0,0,0,1.86-1.09Zm8.41-9.69a7.38,7.38,0,0,0,.06,1.14c-.42,0-.74-.05-1.75-.05h-9.68c-.88,0-1.41,0-1.74.05a9.82,9.82,0,0,0,.06-1.14V257a9.88,9.88,0,0,0-.06-1.17,16.2,16.2,0,0,0,1.79.06h9.59a16.31,16.31,0,0,0,1.79-.06,8,8,0,0,0-.06,1.17Zm-9.1-1.42h-3v1.71h3Zm6.36,3.47c1,0,1.31,0,1.81-.05a11.68,11.68,0,0,0-.08,1.72v3.55a10.68,10.68,0,0,0,.08,1.79,15.76,15.76,0,0,0-1.72-.08h-7.71a15.81,15.81,0,0,0-1.71.08,16.46,16.46,0,0,0,.08-1.81v-3.53a13.57,13.57,0,0,0-.08-1.72c.51,0,.81.05,1.77.05Zm-8.26,2h9V261h-9Zm0,2h9V263h-9Zm0,2.07h9v-1.27h-9Zm5.89-9.59h-3v1.71h3Zm1,10.48a7.87,7.87,0,0,0,2.3,1.15,14.39,14.39,0,0,0,2.5.63,2.74,2.74,0,0,0-.59.93,19.57,19.57,0,0,1-2.64-.8,12.11,12.11,0,0,1-2.39-1.28Zm3.12-8.77v-1.71h-3.19v1.71Z"/><path d="M604.73,262.14a7.39,7.39,0,0,0,1.47-.29,20.94,20.94,0,0,1,4.88-.7c1.65,0,2.79.5,3.39,1.49a3.5,3.5,0,0,1,.5,1.82c0,1.8-1.44,3.43-3.66,4.13a14.93,14.93,0,0,1-3.3.61,3.43,3.43,0,0,0-.42-1.1h.22a11,11,0,0,0,3.16-.49c1.82-.6,2.93-1.81,2.93-3.24s-1-2.24-3-2.24a18.41,18.41,0,0,0-4.21.64,7.56,7.56,0,0,0-1.72.53Z"/><path d="M618.92,258.59a11.64,11.64,0,0,0,2,.14c.32,0,.49,0,1,0a15.58,15.58,0,0,0,.35-2.94l1.27.12a13.82,13.82,0,0,0-.29,1.52c-.08.52-.13.74-.21,1.22a13.72,13.72,0,0,0,2.88-.54l.08,1.1-.45.08a23.74,23.74,0,0,1-2.7.39c-.24,1.26-.69,3.07-1.12,4.52a44.19,44.19,0,0,1-1.84,4.89l-1.17-.5a32.5,32.5,0,0,0,3-8.85c-.32,0-.52,0-1.11,0s-.7,0-1.33,0h-.06l-.27,0Zm7.15,5.81a4.49,4.49,0,0,0-.48.61,1.94,1.94,0,0,0-.4,1.13c0,1,1,1.48,2.8,1.48a11.9,11.9,0,0,0,3.54-.55l.11,1.2-.7.11a15.37,15.37,0,0,1-2.85.28c-2.63,0-4-.82-4-2.4,0-.72.23-1.22,1.08-2.31Zm4.95-2.77a16.12,16.12,0,0,0-1.89-.11,13.91,13.91,0,0,0-4,.54L625,261a18,18,0,0,1,4.24-.52c.3,0,.54,0,1.74,0Z"/><path d="M637.16,258.84a15.66,15.66,0,0,0-.37,1.77c-.38,2.32-.42,2.43-.46,2.8a2.3,2.3,0,0,1-.07.36l0,0a4.31,4.31,0,0,1,.5-.48,7.94,7.94,0,0,1,4.63-1.38c2.61,0,4.29,1.22,4.29,3.09a3.44,3.44,0,0,1-1.44,2.76,6.66,6.66,0,0,1-4,1.05,12.79,12.79,0,0,1-2.8-.29l-1.28-.32c0-.14,0-.24,0-.3a3.5,3.5,0,0,0-.11-1,11.53,11.53,0,0,0,4.08.8c2.65,0,4.33-1.06,4.33-2.69,0-1.31-1.16-2.08-3.11-2.08a7.75,7.75,0,0,0-4.48,1.39,2.53,2.53,0,0,0-.64.66L635,265c.05-.29.06-.44.13-1,.16-1.22.45-3.07.67-4.42a4.69,4.69,0,0,0,.11-.85Zm.7-2.78a19.79,19.79,0,0,0,5.43,1.78l-.45,1.12a23.45,23.45,0,0,1-3.12-.92,18.66,18.66,0,0,1-2.45-1Z"/><path d="M654.71,256.73a8.47,8.47,0,0,0-.09-1.44h1.23a7.3,7.3,0,0,0-.1,1.44v4.74h4.12a6.44,6.44,0,0,0,1.26-.1,10,10,0,0,0-.06,1.27v5.65a13.51,13.51,0,0,0,.09,1.62H660v-.85h-9.71a10.83,10.83,0,0,0-1.49.09V268a9.44,9.44,0,0,0,1.47.08H660v-2.45h-9.12a9.2,9.2,0,0,0-1.43.08v-1.13a9.29,9.29,0,0,0,1.48.07H660v-2.2h-9.6a8.88,8.88,0,0,0-1.46.08v-1.14a10.19,10.19,0,0,0,1.51.08h4.22Zm-4.54-.45a17.35,17.35,0,0,1,2.49,3.89l-.94.55a15.87,15.87,0,0,0-2.45-3.94Zm11,.39a16.3,16.3,0,0,1-2.67,4.32l-.88-.54a13.11,13.11,0,0,0,2.56-4.26Z"/><path d="M664,258.59a11.64,11.64,0,0,0,2,.14c.32,0,.49,0,1,0a15.58,15.58,0,0,0,.35-2.94l1.27.12a13.82,13.82,0,0,0-.29,1.52c-.08.52-.13.74-.21,1.22a13.72,13.72,0,0,0,2.88-.54l.08,1.1-.45.08a23.74,23.74,0,0,1-2.7.39c-.24,1.26-.69,3.07-1.12,4.52a44.19,44.19,0,0,1-1.84,4.89l-1.17-.5a32.5,32.5,0,0,0,3-8.85c-.32,0-.52,0-1.11,0s-.7,0-1.33,0h-.06l-.27,0Zm7.15,5.81a4.49,4.49,0,0,0-.48.61,1.94,1.94,0,0,0-.4,1.13c0,1,1,1.48,2.8,1.48a11.9,11.9,0,0,0,3.54-.55l.11,1.2-.7.11a15.37,15.37,0,0,1-2.85.28c-2.63,0-4-.82-4-2.4,0-.72.23-1.22,1.08-2.31Zm4.95-2.77a16.12,16.12,0,0,0-1.89-.11,13.91,13.91,0,0,0-4,.54l-.11-1.09a18,18,0,0,1,4.24-.52c.3,0,.54,0,1.74,0Z"/><path d="M682.81,255.8a8.72,8.72,0,0,0-.37,1.65c-.26,1.62-.48,3.36-.53,4.18l.07,0,.11-.47a7.15,7.15,0,0,1,1-2.38,3.83,3.83,0,0,1,3.21-2.07,3,3,0,0,1,2.56,1.43,7.54,7.54,0,0,1-2.74,10.18,12.36,12.36,0,0,1-2.85.94,3.29,3.29,0,0,0-.64-1.09,8.36,8.36,0,0,0,3.25-1c1.87-1.07,2.75-2.75,2.75-5.31s-.89-4.07-2.43-4.07c-1.22,0-2.24.92-3.15,2.79a8.37,8.37,0,0,0-.87,3.57c0,.06,0,.14,0,.38l-1.15,0v-.17l0-.29,0-1.67v-.37a40.34,40.34,0,0,1,.54-5.9,3.49,3.49,0,0,0,0-.51Z"/><path d="M693.78,258l.58,0c.22,0,.41,0,.91-.05.9-.06,1-.08,3-.19l2.51-.16c2-.11,2.18-.13,2.71-.14l.91,0a12,12,0,0,0,1.91-.17l.09,1.18a6.71,6.71,0,0,0-1.79.23,7.74,7.74,0,0,0-3.07,1.6,4.89,4.89,0,0,0-2,3.69,3.14,3.14,0,0,0,2.24,3,8.42,8.42,0,0,0,2.4.51h.16l-.21,1.29-.49-.09a8.08,8.08,0,0,1-3.46-1.23,3.88,3.88,0,0,1-1.78-3.27,6.07,6.07,0,0,1,3-4.91,9.9,9.9,0,0,1,1.52-.85,32.8,32.8,0,0,1-3.53.35,53.26,53.26,0,0,0-5.52.53Zm10.71,2.39a12.16,12.16,0,0,1,1.65,2.48l-.82.48a10.91,10.91,0,0,0-1.63-2.54Zm1.81-.88a13,13,0,0,1,1.65,2.5l-.8.44a12.52,12.52,0,0,0-1.64-2.51Z"/><path d="M709.53,262.17a10.43,10.43,0,0,0,2.86.64c.08-.78.24-2,.37-2.88a19.13,19.13,0,0,1-2.39-.43l-.49-.11.14-1.06a10.4,10.4,0,0,0,2.88.63,25.07,25.07,0,0,0,.39-3v-.13l1.28.14a7.46,7.46,0,0,0-.26,1.08c0,.14,0,.14-.16,1,0,.35-.08.51-.16,1,.45,0,.67,0,.93,0a12.71,12.71,0,0,0,2.93-.28l-.05,1.11-1.12.1c-.49,0-1,.06-1.44.06-.26,0-.53,0-1.41,0-.25,1.84-.27,2-.37,2.89l1.06,0a14.07,14.07,0,0,0,3-.26l0,1.08-.43,0a19.65,19.65,0,0,1-2.26.13c-.4,0-.65,0-1.37,0a2.21,2.21,0,0,1,0,.32c0,.39-.06.92-.06,1.19a2.38,2.38,0,0,0,.73,1.92,3.37,3.37,0,0,0,2.26.69c2.15,0,3.54-1.11,3.54-2.8a3.67,3.67,0,0,0-1.52-2.79,3.09,3.09,0,0,0,1.17-.32,4.29,4.29,0,0,1,1.5,3.19c0,2.25-1.89,3.77-4.69,3.77a4,4,0,0,1-3.58-1.6,4.29,4.29,0,0,1-.5-2.2,10.27,10.27,0,0,1,.06-1.06c0-.24,0-.24,0-.39a15.43,15.43,0,0,1-2.42-.4,1.51,1.51,0,0,0-.5-.09Z"/><path d="M724.89,261a12.24,12.24,0,0,0,1.61-.27,26.86,26.86,0,0,1,4.89-.58,5.14,5.14,0,0,1,2.75.61,2.86,2.86,0,0,1,1.36,2.55,5.11,5.11,0,0,1-2.75,4.32,12.48,12.48,0,0,1-4.65,1.52,3.82,3.82,0,0,0-.51-1.17,10.13,10.13,0,0,0,4.5-1.3,4,4,0,0,0,1.38-1.13,3.6,3.6,0,0,0,.81-2.18,1.94,1.94,0,0,0-1-1.79,4.39,4.39,0,0,0-2-.35,22.45,22.45,0,0,0-6.1,1.07Zm2.35-5a20.21,20.21,0,0,0,6.51,1l-.17,1.15a29.48,29.48,0,0,1-6.73-1.05Z"/><path d="M744,256.3a8.14,8.14,0,0,0,1.33.08h1a9.55,9.55,0,0,0,1.32-.08c-.09,1-.14,1.79-.14,2.66v7.78a9.74,9.74,0,0,0,.13,1.8h-1.52a10.61,10.61,0,0,0,.13-1.8v-9.27h-.87a10.25,10.25,0,0,0-1.39.09Z"/><path d="M753.76,268.54a1,1,0,1,1-1-1A1,1,0,0,1,753.76,268.54Z"/><path d="M758.18,268.54a1,1,0,1,1-1-1A1,1,0,0,1,758.18,268.54Z"/><path d="M763.18,268.54a1,1,0,1,1-1-1A1,1,0,0,1,763.18,268.54Z"/></g></g></svg>