<svg xmlns="http://www.w3.org/2000/svg" xmlns:xlink="http://www.w3.org/1999/xlink" viewBox="0 0 1420 876.5"><defs><style>.cls-1{fill:url(#名称未設定グラデーション_146);}.cls-2,.cls-3,.cls-7{fill:#fff;}.cls-2{opacity:0.2;}.cls-3{opacity:0;}.cls-10,.cls-11,.cls-13,.cls-4{fill:none;}.cls-4{stroke:#4d4d4d;}.cls-10,.cls-11,.cls-12,.cls-13,.cls-4,.cls-7{stroke-miterlimit:10;}.cls-5{fill:#7095ff;}.cls-6{fill:#ffa73f;}.cls-12,.cls-7{stroke:#e6e6e6;}.cls-8{opacity:0.8;}.cls-9{fill:#ccc;}.cls-10{stroke:#9da8da;}.cls-11{stroke:#ccc;}.cls-12{fill:#fffae6;}.cls-13{stroke:#b3b3b3;}</style><linearGradient id="名称未設定グラデーション_146" x1="707.1" y1="-41.08" x2="713.33" y2="987.89" gradientUnits="userSpaceOnUse"><stop offset="0" stop-color="#50b4ff"/><stop offset="0.09" stop-color="#61bafd"/><stop offset="0.53" stop-color="#aed7f6"/><stop offset="0.84" stop-color="#dee9f2"/><stop offset="1" stop-color="#f0f0f0"/></linearGradient></defs><title>アセット 27</title><g id="レイヤー_2" data-name="レイヤー 2"><g id="レイヤー_1-2" data-name="レイヤー 1"><rect class="cls-1" y="0.5" width="1420" height="876"/><rect class="cls-2" y="0.5" width="467" height="876"/><rect class="cls-3" x="0.86" y="15.6" width="463.68" height="161"/><path class="cls-4" d="M74.31,139.5s60.63,41.32-47.24,25.4"/><path class="cls-5" d="M132.31,77.68c-1.95,27.82-26.55,63.26-54.38,61.31S29.61,98.45,31.55,70.63a50.5,50.5,0,1,1,100.76,7.05Z"/><polygon class="cls-5" points="76.49 132.03 65.3 144.03 84.95 146.09 76.49 132.03"/><path d="M160.74,105a1.53,1.53,0,0,1-1.52-1.45,1.41,1.41,0,0,1,.31-.87,37.58,37.58,0,0,0,6.79-16,1.16,1.16,0,0,1,1.23-.92A1.26,1.26,0,0,1,168.93,87a.66.66,0,0,1,0,.24,45.76,45.76,0,0,1-7,17.17A1.34,1.34,0,0,1,160.74,105Zm20.24.17a1.36,1.36,0,0,1-1.33-1.09,85.73,85.73,0,0,0-6.6-16.49,1,1,0,0,1-.14-.58,1.34,1.34,0,0,1,1.4-1.21,1.14,1.14,0,0,1,1,.63,108.49,108.49,0,0,1,7.05,16.83,1.76,1.76,0,0,1,.07.49A1.47,1.47,0,0,1,181,105.18Zm-1.57-16a.83.83,0,0,1-.7-.41,15.63,15.63,0,0,0-1.77-2.17.8.8,0,0,1-.26-.58.88.88,0,0,1,.89-.85,1,1,0,0,1,.65.29c.8.78,2.13,2.23,2.13,2.81A1,1,0,0,1,179.41,89.19Zm2.39-1.35a.81.81,0,0,1-.68-.36,15.23,15.23,0,0,0-1.76-2,.78.78,0,0,1-.27-.58.83.83,0,0,1,.85-.77.89.89,0,0,1,.63.26c.24.24,2.07,1.93,2.07,2.61A.87.87,0,0,1,181.8,87.84Z"/><path d="M189,85.81a1.33,1.33,0,0,1,2.63,0V94c0,4.87-1.35,9-5.21,11.39a1.59,1.59,0,0,1-.8.27,1.52,1.52,0,0,1-1.42-1.52,1.18,1.18,0,0,1,.58-1c3-2,4.22-5.14,4.22-9.12Zm5.94-.07a1.21,1.21,0,0,1,1.33-1.16,1.19,1.19,0,0,1,1.3,1.16v15.6c0,.34.15.51.37.51a.8.8,0,0,0,.21,0A12,12,0,0,0,204.35,95a1.33,1.33,0,0,1,1.21-.94,1.41,1.41,0,0,1,1.35,1.45c0,.68-2,6.3-8.23,9.2a3.45,3.45,0,0,1-1.4.32,2.31,2.31,0,0,1-2.3-2.61Z"/><path d="M211.21,96.24a1.35,1.35,0,0,1,0-2.65h16.62a1.19,1.19,0,0,1,1.08,1.33c0,.67-.36,1.32-1.08,1.32Z"/><path d="M241.18,91.58a42.57,42.57,0,0,0-6.28-3.5,1.15,1.15,0,0,1-.75-1.06,1.44,1.44,0,0,1,1.38-1.43c.7,0,4.9,2.06,7.05,3.56a1.33,1.33,0,0,1,.65,1.11,1.59,1.59,0,0,1-1.44,1.52A1,1,0,0,1,241.18,91.58Zm-5.26,14a1,1,0,0,1-.29,0,1.46,1.46,0,0,1-1.45-1.5,1.21,1.21,0,0,1,1-1.23c9.32-1.6,14.15-5.48,16.39-12.58a1.18,1.18,0,0,1,1.16-.8,1.31,1.31,0,0,1,1.4,1.26,2.73,2.73,0,0,1,0,.38C252.22,98.3,246.06,104.07,235.92,105.54Z"/><path d="M270.38,100.33l0-3c-3.69,1.66-5,3.21-5,4.44s1.42,1.64,5.79,1.64a33.64,33.64,0,0,0,4.93-.36l.19,0a1.05,1.05,0,0,1,1,1.13,1.25,1.25,0,0,1-1.14,1.3,36,36,0,0,1-5,.3c-6.21,0-8.29-1.19-8.29-3.75,0-2.87,2.85-5.09,7.49-7a1.87,1.87,0,0,0-1.93-1.71c-3,0-5.92,2.58-8.33,6a1.29,1.29,0,0,1-1.06.6,1.39,1.39,0,0,1-1.38-1.32,1.28,1.28,0,0,1,.34-.8,30.44,30.44,0,0,0,5.57-8.6c-1.42,0-2.8,0-4.15,0a1.08,1.08,0,0,1-1-1.18,1,1,0,0,1,.94-1.07h.07c1.21,0,2.42,0,3.65,0h1.35c.22-.65.41-1.3.6-2a1,1,0,0,1,1.07-.72c.65,0,1.35.38,1.35,1.06a7.69,7.69,0,0,1-.44,1.57c2.71-.12,5.44-.29,8.09-.56h.12a1.12,1.12,0,0,1,1.09,1.19,1,1,0,0,1-.94,1.08c-1.93.17-5.58.44-9.2.51a26.37,26.37,0,0,1-1.74,3.43,7.08,7.08,0,0,1,4-1.42c2.13,0,3.67.89,4.23,3,1.23-.46,2.58-.91,4-1.35a1.35,1.35,0,0,1,.44-.07,1.17,1.17,0,0,1,1.13,1.23,1,1,0,0,1-.75,1c-1.76.48-3.3,1-4.63,1.45v4a1.13,1.13,0,0,1-1.26,1c-.63,0-1.23-.33-1.23-1Z"/><path d="M290.13,95.86h-3.26c-.12,4.54-1.15,7.17-3.62,9.49a1.09,1.09,0,0,1-.77.31,1.37,1.37,0,0,1-1.35-1.3,1.14,1.14,0,0,1,.38-.87c2.22-2,3-3.6,3.09-7.63h-2.46a1,1,0,0,1-1-1,1.06,1.06,0,0,1,1-1.14h2.49v-1.9a12.66,12.66,0,0,1-2,.67,1.35,1.35,0,0,1-1.18-1.35.76.76,0,0,1,.6-.77,14.78,14.78,0,0,0,5.78-2.76.71.71,0,0,1,.48-.16,1.23,1.23,0,0,1,1.11,1.18c0,.58-.63,1.06-2.51,2.15v2.94h3.23V88.52c0-.68.61-1,1.21-1a1.05,1.05,0,0,1,1.18,1v5.16h2.42A2.11,2.11,0,0,1,297.09,96c0,3.89.53,5.46,1.5,6.78.21.29.43.46.62.46.44,0,.87-.79,1.33-2.49a15.61,15.61,0,0,0-2.27-1.2.86.86,0,0,1-.55-.77,1.08,1.08,0,0,1,.6-1,1.2,1.2,0,0,1-.56-1,.87.87,0,0,1,.51-.8A10.84,10.84,0,0,0,299.94,95a1.63,1.63,0,0,1-.61.1c-2,0-4.49-3.06-4.49-7.63,0-.19,0-.36-.26-.36H283.06a1,1,0,0,1-1-1,1.05,1.05,0,0,1,1-1.13h12.1a1.76,1.76,0,0,1,2,2c0,4.82,2,5.82,2.27,5.82s.72-.61,1.13-2c-.63-.34-1.5-.78-2.27-1.12a.78.78,0,0,1-.41-.75,1.2,1.2,0,0,1,.53-1,1.42,1.42,0,0,1-.63-1.09.74.74,0,0,1,.49-.7,9.12,9.12,0,0,0,2.1-1.26.66.66,0,0,1,.46-.16,1.28,1.28,0,0,1,1.06,1.25.92.92,0,0,1-.34.73,7.6,7.6,0,0,1-2.22,1.3c1.76.75,2.37,1,2.37,1.67a1.08,1.08,0,0,1-.12.45,1.42,1.42,0,0,1,1.13,1.28,6.31,6.31,0,0,1-1.88,3.17,1.14,1.14,0,0,1,1,1.09,1,1,0,0,1-.34.72,11.51,11.51,0,0,1-2.32,1.57A20.69,20.69,0,0,1,301.68,99a.88.88,0,0,1,.5.77.83.83,0,0,1-.07.34,1.33,1.33,0,0,1,.75,1.13c0,.34-1.42,4.64-3.67,4.64-1.4,0-4.47-2.22-4.47-9.51,0-.39-.12-.51-.38-.51h-1.82v9.08a1.06,1.06,0,0,1-1.18,1c-.6,0-1.21-.32-1.21-1Z"/><path d="M308.92,96.44a22,22,0,0,0,.8,6.88,1.66,1.66,0,0,1,.1.56,1.37,1.37,0,0,1-1.4,1.35,1.39,1.39,0,0,1-1.36-1.16,31.76,31.76,0,0,1-.65-7.12,45,45,0,0,1,1.33-11.14A1.29,1.29,0,0,1,309,84.9a1.15,1.15,0,0,1,1.26,1,2,2,0,0,1,0,.31,32.22,32.22,0,0,0-1.31,9Zm16.62-7.75a1.16,1.16,0,0,1,.07,2.24c-1.06.12-2.32.22-3.72.27,0,.17.15,5.09.15,7.48a30.86,30.86,0,0,1,4,2.3,1.28,1.28,0,0,1,.61,1.11,1.3,1.3,0,0,1-1.18,1.35,1.37,1.37,0,0,1-.78-.29c-.75-.55-1.67-1.18-2.65-1.76-.29,3.5-2.52,4.39-5.37,4.39-3.23,0-5.53-1.88-5.53-4.61,0-2.53,2.18-4.06,5.29-4.06a10.66,10.66,0,0,1,3.19.61c-.05-1.91-.07-4.23-.12-6.45h-1.62c-1.76,0-3.62,0-5.43-.1a1.2,1.2,0,0,1-1.16-1.25,1,1,0,0,1,1.09-1.09h.12c1.93.15,3.93.19,5.86.19h1.07c0-1.35-.07-2.58-.1-3.57v0c0-.65.63-1,1.26-1a1.07,1.07,0,0,1,1.18,1c0,.94.05,2.14.07,3.52,1.38-.07,2.61-.17,3.58-.26Zm-5.9,11.47a8.58,8.58,0,0,0-3.21-.77c-1.81,0-2.75.72-2.75,1.85,0,1.31,1.09,2.2,3,2.2s3-.63,3-2.92Zm5.15-12a.84.84,0,0,1-.73-.46,16.3,16.3,0,0,0-1.25-1.89.92.92,0,0,1-.2-.48.85.85,0,0,1,.85-.8.83.83,0,0,1,.65.34,8.25,8.25,0,0,1,1.57,2.46A.9.9,0,0,1,324.79,88.16Zm2.37-1.07a.81.81,0,0,1-.68-.38,13.3,13.3,0,0,0-1.28-1.77.75.75,0,0,1-.22-.5.8.8,0,0,1,.82-.73c.36,0,.75.19,2.05,2.18a.75.75,0,0,1,.15.43A.84.84,0,0,1,327.16,87.09Z"/><path d="M350.44,89.15c-1.89-.05-3.79-.08-5.73-.1.05,1.76.05,3.52.05,4.85a6.77,6.77,0,0,1,.44,2.51c0,4.66-1.67,8.29-8.24,9.33l-.24,0a1.37,1.37,0,0,1-1.38-1.38,1.09,1.09,0,0,1,1-1.08c4-.7,5.63-2.15,6.31-4.13a6.53,6.53,0,0,1-3.77,1.11c-4,0-6-2-6-4.81s2.27-5,6.11-5a6.51,6.51,0,0,1,3.4.82c0-.72,0-1.54-.07-2.29H340.8c-3.53,0-7.08.07-10.7.19h-.05c-.65,0-1-.6-1-1.18s.29-1.14.89-1.14c4.15,0,8.24-.07,12.22-.07,0-.48-.05-1-.1-1.42v-.1c0-.63.61-1,1.26-1a1.15,1.15,0,0,1,1.26,1c0,.46,0,1,0,1.45l5.82,0a1,1,0,0,1,1,1.14,1.05,1.05,0,0,1-1,1.16ZM339,92.74c-2.36,0-3.72,1.11-3.72,2.81,0,1.3,1.19,2.51,3.55,2.51,2.2,0,3.89-.85,3.89-2.93C342.73,93.83,341.36,92.74,339,92.74Z"/><rect class="cls-3" x="0.86" y="234.6" width="463.68" height="161"/><path class="cls-4" d="M74.31,358.5s60.63,41.32-47.24,25.4"/><path class="cls-5" d="M132.31,296.68c-1.95,27.82-26.55,63.26-54.38,61.31s-48.32-40.54-46.38-68.36a50.5,50.5,0,1,1,100.76,7.05Z"/><polygon class="cls-5" points="76.49 351.03 65.3 363.02 84.95 365.09 76.49 351.03"/><path d="M160.74,324a1.53,1.53,0,0,1-1.52-1.45,1.41,1.41,0,0,1,.31-.87,37.58,37.58,0,0,0,6.79-16,1.16,1.16,0,0,1,1.23-.92,1.26,1.26,0,0,1,1.38,1.14.66.66,0,0,1,0,.24,45.76,45.76,0,0,1-7,17.17A1.34,1.34,0,0,1,160.74,324Zm20.24.17a1.36,1.36,0,0,1-1.33-1.09,85.73,85.73,0,0,0-6.6-16.49,1,1,0,0,1-.14-.58,1.34,1.34,0,0,1,1.4-1.21,1.14,1.14,0,0,1,1,.63,108.49,108.49,0,0,1,7.05,16.83,1.76,1.76,0,0,1,.07.49A1.47,1.47,0,0,1,181,324.18Zm-1.57-16a.83.83,0,0,1-.7-.41,15.63,15.63,0,0,0-1.77-2.17.8.8,0,0,1-.26-.58.88.88,0,0,1,.89-.85,1,1,0,0,1,.65.29c.8.78,2.13,2.23,2.13,2.81A1,1,0,0,1,179.41,308.19Zm2.39-1.35a.81.81,0,0,1-.68-.36,15.23,15.23,0,0,0-1.76-2,.78.78,0,0,1-.27-.58.83.83,0,0,1,.85-.77.89.89,0,0,1,.63.26c.24.24,2.07,1.93,2.07,2.61A.87.87,0,0,1,181.8,306.84Z"/><path d="M189,304.81a1.33,1.33,0,0,1,2.63,0V313c0,4.87-1.35,9-5.21,11.39a1.59,1.59,0,0,1-.8.27,1.52,1.52,0,0,1-1.42-1.52,1.18,1.18,0,0,1,.58-1c3-2,4.22-5.14,4.22-9.12Zm5.94-.07a1.21,1.21,0,0,1,1.33-1.16,1.19,1.19,0,0,1,1.3,1.16v15.6c0,.34.15.51.37.51a.8.8,0,0,0,.21-.05,12,12,0,0,0,6.16-6.79,1.33,1.33,0,0,1,1.21-.94,1.41,1.41,0,0,1,1.35,1.45c0,.68-2,6.3-8.23,9.2a3.45,3.45,0,0,1-1.4.32,2.31,2.31,0,0,1-2.3-2.61Z"/><path d="M211.21,315.24a1.35,1.35,0,0,1,0-2.65h16.62a1.19,1.19,0,0,1,1.08,1.33c0,.67-.36,1.32-1.08,1.32Z"/><path d="M241.18,310.58a42.57,42.57,0,0,0-6.28-3.5,1.15,1.15,0,0,1-.75-1.06,1.44,1.44,0,0,1,1.38-1.43c.7,0,4.9,2.06,7.05,3.56a1.33,1.33,0,0,1,.65,1.11,1.59,1.59,0,0,1-1.44,1.52A1,1,0,0,1,241.18,310.58Zm-5.26,14a1,1,0,0,1-.29,0,1.46,1.46,0,0,1-1.45-1.5,1.21,1.21,0,0,1,1-1.23c9.32-1.6,14.15-5.48,16.39-12.58a1.18,1.18,0,0,1,1.16-.8,1.31,1.31,0,0,1,1.4,1.26,2.73,2.73,0,0,1,0,.38C252.22,317.3,246.06,323.07,235.92,324.54Z"/><path d="M270.38,319.33l0-3c-3.69,1.66-5,3.21-5,4.44s1.42,1.64,5.79,1.64a33.64,33.64,0,0,0,4.93-.36l.19,0a1.05,1.05,0,0,1,1,1.13,1.25,1.25,0,0,1-1.14,1.3,36,36,0,0,1-5,.3c-6.21,0-8.29-1.19-8.29-3.75,0-2.87,2.85-5.09,7.49-7.05a1.87,1.87,0,0,0-1.93-1.71c-3,0-5.92,2.58-8.33,6a1.29,1.29,0,0,1-1.06.6,1.39,1.39,0,0,1-1.38-1.32,1.28,1.28,0,0,1,.34-.8,30.44,30.44,0,0,0,5.57-8.6c-1.42,0-2.8,0-4.15,0a1.08,1.08,0,0,1-1-1.18,1,1,0,0,1,.94-1.07h.07c1.21,0,2.42.05,3.65.05h1.35c.22-.65.41-1.3.6-2a1,1,0,0,1,1.07-.72c.65,0,1.35.38,1.35,1.06a7.69,7.69,0,0,1-.44,1.57c2.71-.12,5.44-.29,8.09-.56h.12a1.12,1.12,0,0,1,1.09,1.19,1,1,0,0,1-.94,1.08c-1.93.17-5.58.44-9.2.51a26.37,26.37,0,0,1-1.74,3.43,7.08,7.08,0,0,1,4-1.42c2.13,0,3.67.89,4.23,3,1.23-.46,2.58-.91,4-1.35a1.35,1.35,0,0,1,.44-.07,1.17,1.17,0,0,1,1.13,1.23,1,1,0,0,1-.75,1c-1.76.48-3.3,1-4.63,1.45v4a1.13,1.13,0,0,1-1.26,1c-.63,0-1.23-.33-1.23-1Z"/><path d="M293.78,317.54c-1.13,2.29-4.13,6.06-5.26,6.06a1.46,1.46,0,0,1-1.33-1.4,1,1,0,0,1,.48-.85,22.73,22.73,0,0,0,5.63-5.72h-4.16a.92.92,0,0,1-.89-.58,20.94,20.94,0,0,1-2.05.94v6.28c0,1.64-.61,2.47-2.44,2.47-2,0-2.63-.39-2.63-1.38,0-.58.33-1.16.91-1.16a1,1,0,0,1,.27.05,5.18,5.18,0,0,0,1.13.22c.39,0,.44-.22.44-.63v-5a14.84,14.84,0,0,1-1.62.41,1.35,1.35,0,0,1-1.16-1.35.88.88,0,0,1,.73-.9c.7-.14,1.37-.33,2.05-.53v-4.83h-1.43a1.09,1.09,0,0,1,0-2.17h1.43v-3.33a1.17,1.17,0,0,1,2.32,0v3.33h1.25a.87.87,0,0,1,.56.17v-2.13a1.6,1.6,0,0,1,1.64-1.64h10.94a1.6,1.6,0,0,1,1.64,1.64v2.18a.61.61,0,0,1-.22.5,1.29,1.29,0,0,1,.83,1.11,1.35,1.35,0,0,1,0,.29c-.73,2.37-1.57,2.47-3.12,2.47H298.3a2.23,2.23,0,0,1-2.44-2.47v-2.22a1.13,1.13,0,0,1,2.24,0v1.81c0,.41.1.7.53.7h1c.82,0,.89-.14,1.11-1a1.36,1.36,0,0,1,.19-.44c-.45-.07-.84-.33-.84-.79v-1.31a.26.26,0,0,0-.29-.29h-9.3a.26.26,0,0,0-.29.29v1.55c0,.55-.53.82-1.08.82a1.43,1.43,0,0,1-.66-.15,1,1,0,0,1-1,1H286.2v4c.46-.16.91-.36,1.35-.55a1,1,0,0,1,.41-.1.75.75,0,0,1,.68.58,1.12,1.12,0,0,1,.5-.12h4.64v-1.33a1,1,0,0,1,1.14-1,1,1,0,0,1,1.13,1v1.33h5.48a1.08,1.08,0,0,1,0,2.15h-5.09a27.43,27.43,0,0,0,6,5.72.94.94,0,0,1,.44.8,1.51,1.51,0,0,1-1.36,1.43,1,1,0,0,1-.65-.27,25.3,25.3,0,0,1-4.78-5.77v6.4a1,1,0,0,1-1.13,1,1,1,0,0,1-1.14-1Zm-4.81-5a.68.68,0,0,1-.19,0,1.44,1.44,0,0,1-1.28-1.42.92.92,0,0,1,.87-.94c2.51-.34,3.43-1.36,3.89-3.22a.84.84,0,0,1,.87-.67,1.25,1.25,0,0,1,1.28,1.09.69.69,0,0,1,0,.24C293.66,310.54,292,312,289,312.59Z"/><path d="M326.29,308.15c-1.89,0-3.79-.08-5.73-.1.05,1.76.05,3.52.05,4.85a6.77,6.77,0,0,1,.44,2.51c0,4.66-1.67,8.29-8.24,9.33l-.24,0a1.37,1.37,0,0,1-1.38-1.38,1.09,1.09,0,0,1,1-1.08c4-.7,5.63-2.15,6.31-4.13a6.53,6.53,0,0,1-3.77,1.11c-4,0-6-2-6-4.81s2.27-5,6.11-5a6.51,6.51,0,0,1,3.4.82c0-.72,0-1.54-.07-2.29h-1.52c-3.53,0-7.08.07-10.7.19h-.05c-.65,0-1-.6-1-1.18s.29-1.14.89-1.14c4.15,0,8.24-.07,12.22-.07,0-.48-.05-1-.1-1.42v-.1c0-.63.61-1,1.26-1a1.15,1.15,0,0,1,1.26,1c0,.46,0,1,0,1.45l5.82,0a1,1,0,0,1,1,1.14,1.05,1.05,0,0,1-1,1.16Zm-11.43,3.59c-2.36,0-3.72,1.11-3.72,2.81,0,1.3,1.19,2.51,3.55,2.51,2.2,0,3.89-.85,3.89-2.93C318.58,312.83,317.21,311.74,314.86,311.74Z"/><rect class="cls-3" x="0.86" y="673.6" width="463.68" height="161"/><path class="cls-4" d="M74.31,797.5s60.63,41.32-47.24,25.4"/><path class="cls-5" d="M132.31,735.68c-1.95,27.82-26.55,63.26-54.38,61.31s-48.32-40.54-46.38-68.36a50.5,50.5,0,1,1,100.76,7Z"/><polygon class="cls-5" points="76.49 790.03 65.3 802.02 84.95 804.09 76.49 790.03"/><path d="M161.27,748.3a1,1,0,0,1,0-2h7.08a1,1,0,0,1,0,2Zm1,15.17a1.23,1.23,0,0,1-1.4-1.4v-4.28a1.23,1.23,0,0,1,1.4-1.4h4.76a1.23,1.23,0,0,1,1.4,1.4v4.28a1.23,1.23,0,0,1-1.4,1.4ZM162,744.92a1,1,0,0,1,0-2h5.53a1,1,0,0,1,0,2Zm0,10.15a1,1,0,0,1,0-2.06h5.53a1,1,0,0,1,0,2.06Zm0-3.39a1,1,0,0,1,0-2h5.5a1,1,0,0,1,0,2Zm4.27,7a.25.25,0,0,0-.29-.29h-2.61c-.19,0-.28.1-.28.29v2.44c0,.19.09.29.28.29H166a.25.25,0,0,0,.29-.29Zm12.39-7.58c-1.21,0-1.76-.7-1.76-2v-3.87c0-.14,0-.17-.24-.17h-3.29c-.14,0-.19.05-.19.2-.1,2.82-.63,4.71-2.71,6a1.13,1.13,0,0,1-.58.16,1.3,1.3,0,0,1-1.23-1.25,1,1,0,0,1,.49-.85c1.57-1.06,1.83-2,1.83-5.07a1.28,1.28,0,0,1,1.45-1.4h5.19a1.28,1.28,0,0,1,1.45,1.45v4.15c0,.34.07.49.34.49s.51-.34.65-2.59a.9.9,0,0,1,.92-.92,1.1,1.1,0,0,1,1.09,1.11v.13c-.34,3.18-.58,4.44-2.25,4.44Zm-.05,3.24c0-.1,0-.17-.19-.17h-8.53a1,1,0,0,1-1-1.09,1,1,0,0,1,1-1.09h9.23c1.23,0,1.88.65,1.88,1.69a12.46,12.46,0,0,1-3.52,6.67,24.67,24.67,0,0,0,3.72,1.21,1.06,1.06,0,0,1,.87,1.06,1.21,1.21,0,0,1-1.19,1.23,16.93,16.93,0,0,1-5.33-2,19.27,19.27,0,0,1-5.58,2,.5.5,0,0,1-.17,0c-.61,0-1.11-.74-1.11-1.4a.8.8,0,0,1,.7-.84,19.49,19.49,0,0,0,4.15-1.23c-2-1.72-3.35-4.23-3.35-4.83a1.14,1.14,0,0,1,1.18-1,.82.82,0,0,1,.75.43,11.52,11.52,0,0,0,3.43,4.28,8.79,8.79,0,0,0,3.06-4.83Z"/><path d="M205.25,760.79a1,1,0,0,1,1,1.06,1.31,1.31,0,0,1-1.11,1.4c-1.69,0-3.84,0-6.16,0-3.94,0-7-.51-9.69-3.55-.82,1.79-2.34,4.18-3.23,4.18a1.69,1.69,0,0,1-1.48-1.55,1.08,1.08,0,0,1,.29-.7,13.44,13.44,0,0,0,3.51-7.73,1,1,0,0,1,1.11-.89,1.2,1.2,0,0,1,1.3,1.06s0,.12,0,.17a24.82,24.82,0,0,1-.66,3.17,8.26,8.26,0,0,0,4,2.89v-9.1h-6.44a1.12,1.12,0,0,1,0-2.22h15.5a1.12,1.12,0,0,1,0,2.22h-6.54v3.12h5.58a1.13,1.13,0,0,1,0,2.24h-5.58v4.28A20.67,20.67,0,0,0,199,761c1.93,0,3,0,6.18-.22Zm-2-14.15c0-.24-.27-.36-.51-.36H187.86a.32.32,0,0,0-.36.36v1.74c0,.53-.61.82-1.21.82s-1.21-.29-1.21-.82v-2.61a1.55,1.55,0,0,1,1.74-1.76H194V742.9c0-.51.67-.75,1.35-.75s1.33.24,1.33.75V744h7.19a1.55,1.55,0,0,1,1.74,1.76v2.58c0,.53-.6.82-1.21.82s-1.2-.29-1.2-.82Z"/><rect class="cls-3" x="0.86" y="454.41" width="463.68" height="161"/><rect class="cls-3" x="25.41" y="462.46" width="108.67" height="144.9"/><path class="cls-4" d="M71.93,581.38s4.86,10.92-1.32,26"/><path class="cls-6" d="M131.47,517.92c-2,28.56-27.26,64.94-55.82,62.94S26,539.25,28,510.69a51.84,51.84,0,0,1,103.43,7.23Z"/><polygon class="cls-6" points="74.17 573.72 62.67 586.03 82.86 588.15 74.17 573.72"/><path d="M163.53,532.69c-.33.7-.75,1-1.13,1a1.92,1.92,0,0,1-1.58-1.9,1.15,1.15,0,0,1,.26-.8,26.28,26.28,0,0,0,4.57-11,1.28,1.28,0,0,1,1.38-1c.78,0,1.61.45,1.61,1.22a.92.92,0,0,1,0,.29,43.81,43.81,0,0,1-2.19,7v19.1A1.32,1.32,0,0,1,165,548a1.33,1.33,0,0,1-1.45-1.32Zm17.35,3.18a30.15,30.15,0,0,0,8.31,7.86,1.15,1.15,0,0,1,.55,1,1.86,1.86,0,0,1-1.67,1.8c-1.13,0-5.8-4.35-8.31-8.31v8.44a1.36,1.36,0,0,1-1.48,1.29,1.3,1.3,0,0,1-1.42-1.29v-8.44c-2.74,4.51-7,8.22-8.05,8.22a1.91,1.91,0,0,1-1.68-1.81,1.21,1.21,0,0,1,.55-1,27.63,27.63,0,0,0,8.18-7.73h-7.09a1.36,1.36,0,0,1-1.32-1.45,1.34,1.34,0,0,1,1.32-1.45h8.09v-2.54h-5.35a2.05,2.05,0,0,1-2.32-2.32v-5.86a2.05,2.05,0,0,1,2.32-2.32h14.14a2,2,0,0,1,2.32,2.32v5.86a2,2,0,0,1-2.32,2.32h-5.89V533h8.53a1.32,1.32,0,0,1,1.32,1.45,1.33,1.33,0,0,1-1.32,1.45Zm4.19-12.56a.42.42,0,0,0-.48-.48h-12a.43.43,0,0,0-.49.48v3.74a.43.43,0,0,0,.49.48h12a.42.42,0,0,0,.48-.48Z"/><path d="M205.19,525.79a29.26,29.26,0,0,1-5.41,6.8v14.1c0,.91-.8,1.32-1.61,1.32s-1.61-.41-1.61-1.32V535.13c-1.19.81-1.58.87-1.83.87a2,2,0,0,1-1.81-2,1.12,1.12,0,0,1,.55-1,24.69,24.69,0,0,0,8-7.22h-6.54a1.53,1.53,0,0,1,0-3h8.25a27.87,27.87,0,0,0,1.25-2.89,1.34,1.34,0,0,1,1.35-.78c.87,0,1.81.52,1.81,1.29a10.19,10.19,0,0,1-.87,2.38h13.84a1.53,1.53,0,0,1,0,3Zm11.63,17.33c0,3.45-2.51,4.83-6.44,4.83h-.55a15,15,0,0,1-5.73-1.35,1.42,1.42,0,0,1-.87-1.29,1.55,1.55,0,0,1,1.55-1.55,2.42,2.42,0,0,1,.61.1,15.83,15.83,0,0,0,4.34,1.06h.36c2.09,0,3.19-.77,3.25-2.06v-.22a5.61,5.61,0,0,0-1.38-3.51h-9.89a1.35,1.35,0,0,1-1.32-1.45,1.34,1.34,0,0,1,1.32-1.45h7.21a5.12,5.12,0,0,1-.45-.49.84.84,0,0,1-.22-.61,1.76,1.76,0,0,1,1.19-1.51c1.7-.65,3.54-1.55,5.64-2.58H205.29a1.4,1.4,0,1,1,0-2.8h12.37c1.61,0,2.38.9,2.38,1.87a2.44,2.44,0,0,1-1.19,2,40.35,40.35,0,0,1-5.86,3.13c-.39.16-.52.32-.52.48a.25.25,0,0,0,.13.23c.07.06.19.22.26.29h7.79a1.32,1.32,0,0,1,1.32,1.45,1.33,1.33,0,0,1-1.32,1.45h-5.18a6.71,6.71,0,0,1,1.35,3.86Z"/><path d="M233.85,537c0,5.31,2,7.12,7,7.12,4.67,0,7.83-3,8.86-8.28a1.72,1.72,0,0,1,1.7-1.51,1.79,1.79,0,0,1,1.81,1.86c0,.46-1.29,11.34-12.37,11.34-6.63,0-10.43-2.67-10.43-10,0-.42,0-.84,0-1.29.29-6.06.39-9.66.48-15.59a1.81,1.81,0,0,1,3.58.1v.09c-.2,5.61-.49,9.5-.68,15.4Z"/><path d="M272,523.12a1.52,1.52,0,0,1,0,3c-1.87.16-3.73.29-5.54.38a91.08,91.08,0,0,1-5.41,20,1.7,1.7,0,0,1-1.61,1.16,1.85,1.85,0,0,1-1.87-1.74,1.78,1.78,0,0,1,.16-.77,70,70,0,0,0,5.35-18.46c-1.54.07-3,.1-4.35.1a1.55,1.55,0,0,1,0-3.09c1.45,0,3.09,0,4.8-.1.16-1.09.26-2.19.39-3.31a1.52,1.52,0,0,1,1.64-1.16,1.56,1.56,0,0,1,1.74,1.48c0,.06,0,.16,0,.25-.1.87-.23,1.74-.33,2.58,1.65-.06,3.32-.19,4.87-.32Zm12.27,20.26a1.49,1.49,0,0,1,1.48,1.64,1.78,1.78,0,0,1-1.7,1.87c-1.52.06-2.93.09-4.22.09-8.83,0-12.34-1.8-12.34-7.47V539a1.78,1.78,0,0,1,1.77-1.86,1.46,1.46,0,0,1,1.55,1.51c0,3.61,1.32,4.93,8.24,4.93,1.45,0,3.13-.07,5.09-.16Zm-.22-11.92c-2.16-.16-4.54-.29-6.86-.29-1.49,0-3,0-4.35.16h-.13a1.57,1.57,0,0,1-1.48-1.7,1.43,1.43,0,0,1,1.32-1.52c1.54-.13,3.15-.19,4.76-.19,2.39,0,4.77.13,6.9.32a1.46,1.46,0,0,1,1.35,1.55,1.54,1.54,0,0,1-1.42,1.67Z"/><path d="M290.07,546.79a2,2,0,0,1-2-1.93,1.91,1.91,0,0,1,.42-1.16c4.54-6,7.31-12.66,9.05-21.29a1.55,1.55,0,0,1,1.64-1.22A1.68,1.68,0,0,1,301,522.7a1.12,1.12,0,0,1,0,.32,61.16,61.16,0,0,1-9.38,22.9A1.79,1.79,0,0,1,290.07,546.79Zm27,.23a1.83,1.83,0,0,1-1.77-1.45,114,114,0,0,0-8.8-22,1.4,1.4,0,0,1-.19-.77,1.79,1.79,0,0,1,1.87-1.61,1.47,1.47,0,0,1,1.38.84A144.52,144.52,0,0,1,319,544.47a2.64,2.64,0,0,1,.1.65A2,2,0,0,1,317.06,547ZM315,525.69a1.15,1.15,0,0,1-.94-.54,20.1,20.1,0,0,0-2.35-2.9,1.06,1.06,0,0,1-.35-.77,1.18,1.18,0,0,1,1.19-1.13,1.31,1.31,0,0,1,.87.39c1.06,1,2.83,3,2.83,3.73A1.26,1.26,0,0,1,315,525.69Zm3.18-1.8a1.09,1.09,0,0,1-.9-.48,19.56,19.56,0,0,0-2.35-2.64,1,1,0,0,1,.77-1.8,1.13,1.13,0,0,1,.84.35c.32.32,2.77,2.58,2.77,3.48A1.16,1.16,0,0,1,318.15,523.89Z"/><path d="M327.81,521.19a1.77,1.77,0,0,1,3.51,0v10.88c0,6.51-1.8,11.95-7,15.2a1.87,1.87,0,0,1-3-1.67,1.55,1.55,0,0,1,.77-1.35c4-2.68,5.64-6.86,5.64-12.18Zm7.92-.1a1.77,1.77,0,0,1,3.51,0V541.9c0,.45.2.67.49.67a1.07,1.07,0,0,0,.29-.06,16.06,16.06,0,0,0,8.21-9,1.75,1.75,0,0,1,1.61-1.26,1.9,1.9,0,0,1,1.8,1.93c0,.91-2.64,8.41-11,12.27a4.58,4.58,0,0,1-1.87.42c-1.74,0-3.06-1.22-3.06-3.47Z"/><path d="M357.37,535.1a1.61,1.61,0,0,1-1.48-1.77,1.59,1.59,0,0,1,1.48-1.77h22.16a1.59,1.59,0,0,1,1.45,1.77c0,.9-.49,1.77-1.45,1.77Z"/><path d="M397.33,528.88a57.5,57.5,0,0,0-8.37-4.67,1.52,1.52,0,0,1-1-1.41,1.9,1.9,0,0,1,1.83-1.9c.94,0,6.54,2.74,9.41,4.73a1.81,1.81,0,0,1,.87,1.48,2.12,2.12,0,0,1-1.93,2A1.3,1.3,0,0,1,397.33,528.88Zm-7,18.62a1.71,1.71,0,0,1-.39,0,2,2,0,0,1-1.93-2,1.61,1.61,0,0,1,1.39-1.65c12.43-2.12,18.87-7.31,21.87-16.78a1.55,1.55,0,0,1,1.54-1.06,1.75,1.75,0,0,1,1.87,1.67,2.49,2.49,0,0,1-.07.52C412.05,537.84,403.84,545.54,390.31,547.5Z"/><path class="cls-7" d="M685.5.5h652a0,0,0,0,1,0,0V227a5,5,0,0,1-5,5h-642a5,5,0,0,1-5-5V.5A0,0,0,0,1,685.5.5Z"/><path d="M752.31,10.57a23.69,23.69,0,0,0,6.56,6.81,30.28,30.28,0,0,0,7.48,4.26A6.33,6.33,0,0,0,765,23.69a43.33,43.33,0,0,1-7.71-4.8,29.11,29.11,0,0,1-6.21-6.43,33.31,33.31,0,0,1-6.37,6.65,35.35,35.35,0,0,1-7.16,4.45,7.48,7.48,0,0,0-1.35-1.86,33.27,33.27,0,0,0,9-5.72,23.48,23.48,0,0,0,4.68-5.41ZM762.9,27.69a16.48,16.48,0,0,0-1.31,1.44l-6.37,7.81c-.87,1.08-1.51,1.91-2.15,2.87l-2.27-1.34a22.66,22.66,0,0,0,2.53-2.62l6.27-7.55H743.76c-1.21,0-2.36.06-3.71.19V26.12a33.45,33.45,0,0,0,3.71.19H758a20.7,20.7,0,0,0,3.59-.16Zm-18.43-7.46a16.29,16.29,0,0,0,2.53.13h8.41a19.06,19.06,0,0,0,2.69-.13v2.21a21,21,0,0,0-2.75-.13H747a17.32,17.32,0,0,0-2.56.13Z"/><path d="M775.12,14.06a19.92,19.92,0,0,0-.19-3h2.24a20.35,20.35,0,0,0-.16,3.07v.57h5.89v-.6a18.18,18.18,0,0,0-.16-3H785a18.77,18.77,0,0,0-.2,3.07v.57a13.54,13.54,0,0,0,2.66-.19v2a17.15,17.15,0,0,0-2.66-.13V30.06a16.38,16.38,0,0,0,2.53-.16v2c-.73-.06-1.66-.1-2.91-.1H774.26a14.07,14.07,0,0,0-2.59.16v-2a13.7,13.7,0,0,0,2.56.16h.89V16.39h-.19a14.35,14.35,0,0,0-2.75.16V14.47a13.3,13.3,0,0,0,2.75.19h.19Zm3.3,19.84a18.27,18.27,0,0,1-5,5.53A4.54,4.54,0,0,0,772,37.9a12.68,12.68,0,0,0,4.79-5Zm4.48-14.18V16.39H777v3.33Zm0,5V21.35H777v3.36Zm0,5.35V26.34H777v3.72Zm-.48,2.81a11.7,11.7,0,0,0,3.13,3.3,6.52,6.52,0,0,0-1.47,1.37,16.25,16.25,0,0,1-3.1-3.68Zm8.16-3.65c-.42,4.71-1.31,7.2-3.75,10.37a5,5,0,0,0-1.56-1.47,12.4,12.4,0,0,0,3.16-7.23A143.56,143.56,0,0,0,789,16a31.47,31.47,0,0,0-.13-3.78,24.92,24.92,0,0,0,3.07.13h4.42a24.08,24.08,0,0,0,3-.13,24.63,24.63,0,0,0-.13,3.11V36.94c0,1.08-.29,1.75-.86,2.07a6.12,6.12,0,0,1-2.6.36c-.44,0-.8,0-2.52-.13a8.74,8.74,0,0,0-.52-2.27,17.59,17.59,0,0,0,3.52.41c.77,0,1-.19,1-.7V29.22Zm.29-7.64c-.07,3.13-.07,3.8-.2,5.85h6.63V21.58Zm6.43-7.4h-6.4v5.6h6.4Z"/><path d="M819.7,28.74c-1.86,4.23-3.74,6.15-6.05,6.15-3,0-5.31-3.33-5.31-7.81A13,13,0,0,1,822,14a12.37,12.37,0,0,1,8.8,3.17A10.7,10.7,0,0,1,833.94,25a11.66,11.66,0,0,1-7.33,11,25.46,25.46,0,0,1-4.86,1.47,5.19,5.19,0,0,0-1.12-2.15,18.84,18.84,0,0,0,5.34-1.5,9.65,9.65,0,0,0,5.66-9,8.43,8.43,0,0,0-5.08-8,9.24,9.24,0,0,0-3.72-.8A47.92,47.92,0,0,1,819.7,28.74Zm-3.94-11.16a11.05,11.05,0,0,0-5.21,9.53c0,3.07,1.34,5.44,3.07,5.44,1.34,0,2.62-1.5,4-4.64a44.16,44.16,0,0,0,2.91-11.84A10.07,10.07,0,0,0,815.76,17.58Z"/><path d="M849.46,38.25a20.88,20.88,0,0,0,.19-3.36V15a18.57,18.57,0,0,0-.19-3.27h2.75a18.1,18.1,0,0,0-.16,3.33v6a84.65,84.65,0,0,1,14.24,6.76l-1.38,2.36A66.92,66.92,0,0,0,853,23.85a3.63,3.63,0,0,1-1-.55l-.07,0a10.18,10.18,0,0,1,.13,1.88v9.63a19.71,19.71,0,0,0,.16,3.4ZM861.75,13A24.26,24.26,0,0,1,865,18l-1.6,1a24.06,24.06,0,0,0-3.29-5.09Zm3.61-1.76a27.3,27.3,0,0,1,3.3,5l-1.6.93a23.3,23.3,0,0,0-3.27-5.05Z"/><path d="M879.28,20.46a23.14,23.14,0,0,0,3.75.19h16.41a5.22,5.22,0,0,0,2.08-.23l1.19,1.38a9,9,0,0,0-.9,2c-2.72,7.45-7.14,11.55-15.42,14.33A7.06,7.06,0,0,0,885,35.94c4.29-1.21,7.1-2.65,9.5-4.86s3.72-4.45,5.19-8.38H883a29.12,29.12,0,0,0-3.71.16ZM882,13a14.59,14.59,0,0,0,3.35.23h10.69a14.74,14.74,0,0,0,3.36-.23V15.5a21,21,0,0,0-3.33-.16H885.36a21,21,0,0,0-3.32.16Z"/><path d="M918.93,22.38a70.2,70.2,0,0,1,6.5,6,55.21,55.21,0,0,0,4.25-3.93A46.6,46.6,0,0,0,935,17.54c.1-.16.13-.19.26-.38-.45,0-.45,0-18.27.06-1.73,0-2.63,0-3.71.13V14.82A23,23,0,0,0,917,15h18.65a4,4,0,0,0,1.8-.23l1.34,1.6a9.3,9.3,0,0,0-1.28,1.7,49.28,49.28,0,0,1-10.56,12,73,73,0,0,1,4.67,5.82l-2,1.63a60.52,60.52,0,0,0-12.48-13.76Z"/><path d="M953.2,12.55c-1.37,3.2-2.46,9.76-2.46,15,0,1.12.06,3,.13,4.48,0,.26,0,.32,0,.9v.6l.13,0a28.1,28.1,0,0,1,1.89-5.64,4.16,4.16,0,0,0,.25-.64l1.57.74c-1.5,3.14-2.75,7.2-2.75,9.09a3.73,3.73,0,0,0,.06.64l-2.27.22c0-.29-.06-.45-.19-1.18a50.63,50.63,0,0,1-.9-9.51,54.2,54.2,0,0,1,1.67-13.15,15.93,15.93,0,0,0,.35-2Zm3.24,5.95a21.73,21.73,0,0,0,5.75.52c1.25,0,2.12,0,3.43-.1,0-3,0-3,0-5.44a7.42,7.42,0,0,0-.1-1.31h2.4a32.88,32.88,0,0,0-.22,5c0,.35,0,.87,0,1.57a21.94,21.94,0,0,0,5.53-1.18l.1,2.17c-.06,0-.06,0-2.24.45a30.73,30.73,0,0,1-3.39.51c0,3.17.09,4.8.35,9.06a23.06,23.06,0,0,1,5.34,3.13c.39.26.45.32.8.55l-1,2.24a17.21,17.21,0,0,0-4.54-3.33,1.52,1.52,0,0,1-.32-.19,1.62,1.62,0,0,0-.29-.19,4.86,4.86,0,0,1,.06.83,5.4,5.4,0,0,1-.38,2.17c-.77,1.7-2.72,2.69-5.34,2.69-3.72,0-6-1.76-6-4.54s2.53-4.55,6.08-4.55a9.12,9.12,0,0,1,3.55.64c-.1-.67-.22-3.68-.32-8.35-1.44.07-2.43.1-3.65.1s-2.49,0-3.61-.1a9.07,9.07,0,0,0-1-.06,5,5,0,0,0-.54,0,1.2,1.2,0,0,0-.32,0h-.13Zm6.14,12c-2.5,0-4.13,1.06-4.13,2.66s1.47,2.59,3.71,2.59a4.44,4.44,0,0,0,3.27-1.12,3.77,3.77,0,0,0,.6-2.49c0-.23,0-1,0-1A8.13,8.13,0,0,0,962.58,30.5Z"/><path d="M990.83,37.19a13.47,13.47,0,0,0-1.72-2.4l1.82-.7a18.92,18.92,0,0,1,1.89,3.1h5.66a12.49,12.49,0,0,0,1.73-3.1l1.89.73a16.81,16.81,0,0,1-1.54,2.37h5.83a23.54,23.54,0,0,0,3.36-.19v2.14a19.91,19.91,0,0,0-3.36-.22H984.88a21.52,21.52,0,0,0-3.52.22V37a26.47,26.47,0,0,0,3.52.19Zm18.56-10.85a27.55,27.55,0,0,0-3.55-.19H985.17a25.79,25.79,0,0,0-3.42.19V24.26a18.71,18.71,0,0,0,3.42.23h20.67a20.12,20.12,0,0,0,3.55-.23Zm-5.56-13.6a26.38,26.38,0,0,0,3.48-.16,18.08,18.08,0,0,0-.12,2.53v5a17.71,17.71,0,0,0,.12,2.53c-1.08-.09-1.85-.13-3.39-.13H987.38a29,29,0,0,0-3.39.13,17.67,17.67,0,0,0,.13-2.53v-5a18.73,18.73,0,0,0-.13-2.53,26.17,26.17,0,0,0,3.45.16h3.62a11.58,11.58,0,0,0-.19-2.59h2.27a11.06,11.06,0,0,0-.22,2.43v.16H998a11.53,11.53,0,0,0-.19-2.59h2.27a12.26,12.26,0,0,0-.22,2.59ZM985.52,30.09a11.29,11.29,0,0,0-.16-2.24,30.45,30.45,0,0,0,3.72.16H1002a29.62,29.62,0,0,0,3.65-.16,10.94,10.94,0,0,0-.16,2.24v1.76a11.46,11.46,0,0,0,.16,2.21c-1.09-.1-2.11-.13-3.59-.13H989a33,33,0,0,0-3.65.13,11.65,11.65,0,0,0,.16-2.21ZM986,14.31v2.47h5V14.31Zm0,3.94V21h5V18.25Zm1.53,14.11h15.87V29.58H987.57Zm5.35-15.58H998V14.31h-5.08Zm0,4.22H998V18.25h-5.08Zm6.94-4.22h5.41V14.31h-5.41Zm0,4.22h5.41V18.25h-5.41Z"/><path d="M1025.78,11.14c-.39.87-.48,1.16-.74,1.8a40.62,40.62,0,0,1-2.37,5.31v17.5a26.93,26.93,0,0,0,.23,3.84h-2.5a28.83,28.83,0,0,0,.23-3.9V25.06c0-1.37,0-2.24.12-4.12a23.87,23.87,0,0,1-4,5,6.17,6.17,0,0,0-1.35-1.69,27.81,27.81,0,0,0,6.76-9.6,17.18,17.18,0,0,0,1.34-4.29Zm4.89,6.31a36.06,36.06,0,0,1-5.08,7.81,4.56,4.56,0,0,0-1.6-1.54,27.84,27.84,0,0,0,5.66-8.77,17.22,17.22,0,0,0,1.34-4.54l2.24.73c-.25.58-.35.8-.64,1.64a29.3,29.3,0,0,1-1.08,2.84h10.14a15.45,15.45,0,0,0,2.91-.19v2.18a17.45,17.45,0,0,0-2.91-.16h-7.52v5.18h6.5a17.64,17.64,0,0,0,2.81-.19v2.21a19.49,19.49,0,0,0-2.81-.19h-6.5v5.18h6.59a18.13,18.13,0,0,0,2.82-.19v2.21a18,18,0,0,0-2.82-.2h-6.59v4.9a17.53,17.53,0,0,0,.22,3.36h-2.46a20,20,0,0,0,.19-3.36V17.45Z"/><path d="M748.43,134.9c2.75,2.4,4.57,7.26,4.57,12.22,0,2-.32,3.52-.93,4.26s-1.4,1-3,1c-1,0-2.34-.1-3.78-.23a5.61,5.61,0,0,0-.51-2.14,21.22,21.22,0,0,0,4.13.48c1.63,0,2.08-.77,2.08-3.84a19.3,19.3,0,0,0-.13-2.4c-3.39,2.78-7.61,4.89-13.5,6.81a8.65,8.65,0,0,0-1.25-1.79,35.59,35.59,0,0,0,14.37-7,13.93,13.93,0,0,0-.9-2.69,41.13,41.13,0,0,1-12,5.44,6.11,6.11,0,0,0-1.18-1.76,40.14,40.14,0,0,0,7.33-2.43,27.26,27.26,0,0,0,5-2.79,8.87,8.87,0,0,0-1.86-2.24,36.1,36.1,0,0,1-8.54,3.3,6.61,6.61,0,0,0-1.18-1.7c5-1.09,8.12-2.3,11.16-4.38h-4.7a29.25,29.25,0,0,0-3.1.16v-2a18.87,18.87,0,0,0,3.1.19h13.53a15.87,15.87,0,0,0,3.14-.19v2a29,29,0,0,0-3.14-.16h-3.45a27.52,27.52,0,0,0,1.92,6,19.55,19.55,0,0,0,4.89-4.77l1.8,1.48a21.44,21.44,0,0,0-1.92,1.72,38.18,38.18,0,0,1-3.91,3.24,20.75,20.75,0,0,0,8.45,8.19,10.4,10.4,0,0,0-1.57,1.79,27,27,0,0,1-5.18-4.45,26.69,26.69,0,0,1-5.47-10.11c-.26-.83-.39-1.34-.8-3.07h-1a17.83,17.83,0,0,1-2.31,1.73Zm.64-9.35a8.36,8.36,0,0,0-.23-2h2.5a9.91,9.91,0,0,0-.19,2v1h9.47c1.37,0,2.21,0,3.23-.12a12,12,0,0,0-.13,2.11v2a13.24,13.24,0,0,0,.13,2.18h-2.08V128.3H739.15v4.39h-2.08a15.83,15.83,0,0,0,.13-2.21v-1.95a14.54,14.54,0,0,0-.13-2.11c1,.09,1.82.12,3.2.12h8.8Z"/><path d="M799.79,131.44a15.76,15.76,0,0,0-2.95-.16,26.62,26.62,0,0,1-1.92,8.45,21.1,21.1,0,0,1-2.33,4.35,22.08,22.08,0,0,0,7.77,6.37,6.3,6.3,0,0,0-1.34,2,25.46,25.46,0,0,1-7.65-6.78,28.05,28.05,0,0,1-8.8,6.78,5.79,5.79,0,0,0-1.44-1.79,23,23,0,0,0,4.67-2.59,22.57,22.57,0,0,0,4.42-4.07,24.73,24.73,0,0,1-3.39-8.09,24.46,24.46,0,0,1-2.08,3.65,5.56,5.56,0,0,0-1.54-1.32,10.75,10.75,0,0,0,.67-.86,16.79,16.79,0,0,0-2.84-.13h-1.35v8.64c1.89-.64,2.78-1,5.18-1.92l0,2a87.47,87.47,0,0,1-9.12,3.13c-2.5.67-4,1.09-4.74,1.35l-.57-2.31a13.83,13.83,0,0,0,2.4-.35v-11a21.36,21.36,0,0,0-.17-3.17h2.21a22.8,22.8,0,0,0-.16,3.14v10.59c.83-.19,1.79-.48,3-.83V128.4h-3.36a20.49,20.49,0,0,0-2.88.19v-2.27a19.79,19.79,0,0,0,2.94.19h7.75a17.27,17.27,0,0,0,2.88-.16v2.21a15.87,15.87,0,0,0-2.66-.16h-2.72v7H781a18.47,18.47,0,0,0,2.87-.13v2.05a28.53,28.53,0,0,0,3.59-9.19,27.38,27.38,0,0,0,.83-4.83l2.24.45c-.19.64-.19.64-1,4.19-.16.61-.26,1-.42,1.57h7.62a18.15,18.15,0,0,0,3-.19Zm-11.2-.16c-.29.9-.39,1.25-.71,2.05a25.87,25.87,0,0,0,3.49,9,23.78,23.78,0,0,0,3.46-11.07Z"/><path d="M821.39,139a16.71,16.71,0,0,0,3.39,5.38,22.8,22.8,0,0,0,9.63,5.82,7.76,7.76,0,0,0-1.31,2.08,23.59,23.59,0,0,1-9.92-6.81,18.18,18.18,0,0,1-3.3-5.6,15.67,15.67,0,0,1-4,6.81,24.09,24.09,0,0,1-8.58,5.63,6,6,0,0,0-1.41-1.92,22.34,22.34,0,0,0,7.94-4.57,13.76,13.76,0,0,0,4.19-6.82H810a32.33,32.33,0,0,0-3.48.19v-2.3a22.64,22.64,0,0,0,3.48.22h8.48a50.18,50.18,0,0,0,.42-6.2h-7.14a28.86,28.86,0,0,0-3.52.19v-2.27a23,23,0,0,0,3.52.22h7.17c0-.9,0-1.25,0-1.92a21.58,21.58,0,0,0-.19-3.23h2.5A31.11,31.11,0,0,0,821,129h7.68a20.76,20.76,0,0,0,3.62-.22v2.27a26.09,26.09,0,0,0-3.62-.19h-7.74c0,.6,0,1.08,0,1.37a34,34,0,0,1-.38,4.83h9.79a21,21,0,0,0,3.62-.22v2.3a29.59,29.59,0,0,0-3.62-.19Z"/><path d="M843.69,131a13.83,13.83,0,0,0,2.46.16,74,74,0,0,0,9.54-.67c-.48-1.09-1-2.37-1.57-3.81-.35-.83-.54-1.28-.83-1.85l2.53-.36a10.15,10.15,0,0,0,.93,2.88,24.56,24.56,0,0,0,1.15,2.82,37.1,37.1,0,0,0,7.74-2l.32,2.28c-.67.12-.93.19-1.89.44a44,44,0,0,1-4.32,1l-1.08.22a58.65,58.65,0,0,0,5.76,9.31l-2.15,1.22a6.23,6.23,0,0,0-2.21-1.31,17.14,17.14,0,0,0-5.6-.84,11.32,11.32,0,0,0-6.08,1.35,3.63,3.63,0,0,0-1.72,3,3.18,3.18,0,0,0,1.21,2.5c1.19.93,3.49,1.47,6.24,1.47a21.07,21.07,0,0,0,9.09-2.05l.35,2.47a26.62,26.62,0,0,1-9.41,1.73c-3.9,0-6.84-.87-8.32-2.4a5.21,5.21,0,0,1-1.44-3.52,6,6,0,0,1,3.62-5.22,13.66,13.66,0,0,1,6.21-1.18,15.86,15.86,0,0,1,6.62,1.15,39.85,39.85,0,0,1-3.84-6.27c-.35-.68-.35-.74-.54-1.06a93.11,93.11,0,0,1-11.39.83,6.52,6.52,0,0,0-1.25.1Z"/><path d="M888.59,125.33c-.42.77-.42.77-3.56,8.8a53.74,53.74,0,0,1-2.3,5.28l-.35.7a5.21,5.21,0,0,0-.29.58l.16.06c2.11-3,3.74-4.19,6-4.19a3.57,3.57,0,0,1,3.2,1.89,8.13,8.13,0,0,1,.54,3.61v2.18a5.5,5.5,0,0,0,.51,3,3,3,0,0,0,2.43,1c2.28,0,3.94-1.31,5.12-4a13.72,13.72,0,0,0,1.22-4.54,8.92,8.92,0,0,0,2.11,1.63,17.26,17.26,0,0,1-2.27,5.63,7.45,7.45,0,0,1-6.37,3.49c-2.37,0-4.06-1.06-4.67-2.88a13.25,13.25,0,0,1-.29-3.46v-1.82a7,7,0,0,0-.25-2.43,1.73,1.73,0,0,0-1.83-1.19c-1.85,0-3.93,1.7-5.73,4.74a33.18,33.18,0,0,0-2.94,7.36l-2.46-.77c.41-.9.41-.9,5-13.18,3.49-9.25,4.19-11.27,4.38-12.23Z"/><path d="M921.2,124.66a55.6,55.6,0,0,0,2.39,10.59c1.89-.77,2.79-1.12,7.75-2.85a18.16,18.16,0,0,0,2-.83l1,2.43a74.11,74.11,0,0,0-9.64,3.1c-5.47,2.18-7.83,4.29-7.83,7,0,2.91,2.46,4,8.73,4a31.83,31.83,0,0,0,9.15-1.09l.26,2.66a16.76,16.76,0,0,0-2.37.19,64,64,0,0,1-7.07.41,21.62,21.62,0,0,1-7.1-.86c-2.63-1-4-2.72-4-5.25a6.94,6.94,0,0,1,2.85-5.44,19.6,19.6,0,0,1,4.19-2.59,64,64,0,0,1-2.34-9,11.1,11.1,0,0,0-.54-2Z"/><path d="M958.22,141.74c-1.86,4.23-3.74,6.15-6.05,6.15-3,0-5.31-3.33-5.31-7.81A13,13,0,0,1,960.55,127a12.37,12.37,0,0,1,8.8,3.17,10.7,10.7,0,0,1,3.11,7.81,11.66,11.66,0,0,1-7.33,11,25.46,25.46,0,0,1-4.86,1.47,5.19,5.19,0,0,0-1.12-2.15,18.84,18.84,0,0,0,5.34-1.5,9.65,9.65,0,0,0,5.66-9,8.43,8.43,0,0,0-5.08-8,9.24,9.24,0,0,0-3.72-.8A47.54,47.54,0,0,1,958.22,141.74Zm-3.94-11.16a11.05,11.05,0,0,0-5.21,9.53c0,3.07,1.34,5.44,3.07,5.44,1.34,0,2.62-1.5,4-4.64a44.16,44.16,0,0,0,2.91-11.84A10.07,10.07,0,0,0,954.28,130.58Z"/><path d="M979.88,149.68a15.73,15.73,0,0,0,2.69-4,18.28,18.28,0,0,0,1.47-4.13l1.83.77a23.1,23.1,0,0,1-4.32,8.8ZM988,130.9a18.47,18.47,0,0,1-6,7.36,7.28,7.28,0,0,0-1.53-1.51,13.17,13.17,0,0,0,5.76-6.59Zm-4-2a23.51,23.51,0,0,0-3.42.16v-2.11a22.26,22.26,0,0,0,3.45.19h9.38V126a12.67,12.67,0,0,0-.19-2.27h2.46a11.6,11.6,0,0,0-.19,2.27v1.12h9.69a21.8,21.8,0,0,0,3.46-.19V129a27.1,27.1,0,0,0-3.49-.16h-6V137c0,1.6-.61,2.11-2.6,2.11-.8,0-1.76,0-2.84-.13a7.22,7.22,0,0,0-.52-1.92,23.31,23.31,0,0,0,3.11.26c.73,0,.89-.16.89-.74v-7.68H993.1a16.2,16.2,0,0,1-1.18,6.34c-1,2.33-2.47,3.71-5.54,5.28a5.91,5.91,0,0,0-1.54-1.54c3-1.28,4.55-2.62,5.44-4.86a14,14,0,0,0,.84-5.22Zm6.5,19.74c0,1.28.41,1.41,4.25,1.41,3.49,0,4.8-.16,5.31-.61s.58-1.4.68-3.8a6.59,6.59,0,0,0,2,.8c-.32,3.13-.61,4-1.44,4.63s-2.56.8-6.85.8c-5,0-6-.44-6-2.84v-4.83a21.51,21.51,0,0,0-.19-3h2.4a14.75,14.75,0,0,0-.19,3Zm6.78-1.79a26.65,26.65,0,0,0-4.64-5.31l1.47-1.12a28.71,28.71,0,0,1,4.74,5.06Zm4.83-16.51a48.84,48.84,0,0,1,6,6.59l-1.72,1.41a29.16,29.16,0,0,0-5.7-6.91Zm4.93,20.41a31.7,31.7,0,0,0-5.18-8.54l1.6-1a39.75,39.75,0,0,1,5.37,8.19Z"/><path d="M1037.48,142.54a4.49,4.49,0,0,0-.51.48,23.34,23.34,0,0,1-5.76,4.8,34.84,34.84,0,0,0,12.58,2.79,5.62,5.62,0,0,0-.93,2,41,41,0,0,1-7.3-1.34,28.13,28.13,0,0,1-6.24-2.43,40.59,40.59,0,0,1-13,3.87,5.19,5.19,0,0,0-1.09-1.89,39.24,39.24,0,0,0,12.23-3.07,20.61,20.61,0,0,1-4.58-3.84,23.84,23.84,0,0,1-6.08,3.81,4.82,4.82,0,0,0-1.34-1.54,23.85,23.85,0,0,0,6.53-3.8,15.72,15.72,0,0,0,3-3.24c-1.32-.16-1.67-.48-1.67-1.53v-2.43a12.5,12.5,0,0,0-.16-2.31h2.14a11.18,11.18,0,0,0-.15,2.11v2c0,.29.06.38.35.48a17.43,17.43,0,0,0,3.13.16c3.3,0,4.61-.06,5-.29s.71-.77.93-2.3a4.56,4.56,0,0,0,1.7.89c-.77,3.27-.9,3.33-7,3.33-1.12,0-1.4,0-2.2,0-.93,1.25-1.19,1.54-1.7,2.14h8a14.55,14.55,0,0,0,2.82-.16ZM1021.55,130a14.92,14.92,0,0,0-1.35-2.78l-2.88.06a6,6,0,0,0-.8-1.76h1.7a141.17,141.17,0,0,0,15.61-.93,26.18,26.18,0,0,0,6.28-1.24l1.53,1.82c-2.27.42-3.77.67-4.48.77l1.79.51c-1.18,2.18-1.4,2.56-2,3.55h2.52a33.8,33.8,0,0,0,3.62-.13,17.73,17.73,0,0,0-.13,2.4v1.86a14.14,14.14,0,0,0,.16,2H1041v-4.45h-23.17v4.54h-2.07a18.24,18.24,0,0,0,.16-2.27v-1.76a20.54,20.54,0,0,0-.13-2.37,29.92,29.92,0,0,0,3.93.16Zm-5,9.28a11.16,11.16,0,0,0,3.91-5.69l1.66.8a17.61,17.61,0,0,1-4.13,6.3Zm12.39-9.28a16.84,16.84,0,0,0-1.41-3.1c-2.37.13-4.1.22-5.47.25a16.83,16.83,0,0,1,1.4,2.85Zm-4.58,13a17.43,17.43,0,0,0,5,3.91,17.81,17.81,0,0,0,5.12-3.91Zm6.78-6.49a19.6,19.6,0,0,0-4.12-3.17l1.12-1.19a24.87,24.87,0,0,1,4.28,3Zm3.81-6.47a15.84,15.84,0,0,0,2-4c-2.47.35-4.35.54-7.59.8a18.25,18.25,0,0,1,1.41,3.23Zm5.7,10.43a25.71,25.71,0,0,0-4.8-6.14l1.44-1a34.71,34.71,0,0,1,5,5.92Z"/><path d="M1052.56,137.33a21.44,21.44,0,0,0,5.72,1.28c.16-1.57.48-4.07.74-5.76a41.63,41.63,0,0,1-4.77-.87l-1-.22.29-2.11a21.11,21.11,0,0,0,5.76,1.25,51.27,51.27,0,0,0,.77-6v-.26l2.55.29a17.88,17.88,0,0,0-.51,2.15c0,.28,0,.28-.32,2-.09.71-.16,1-.32,1.92.9,0,1.35,0,1.86,0a26,26,0,0,0,5.85-.55l-.09,2.21-2.24.19a28.51,28.51,0,0,1-2.88.13c-.51,0-1.06,0-2.82-.06-.51,3.68-.54,4-.73,5.79,1.21,0,1.66,0,2.11,0a28.06,28.06,0,0,0,5.89-.51l-.07,2.14-.86.07a37.28,37.28,0,0,1-4.51.25c-.8,0-1.32,0-2.76-.06a6.28,6.28,0,0,1,0,.64c-.06.77-.12,1.82-.12,2.37a4.71,4.71,0,0,0,1.47,3.84,6.75,6.75,0,0,0,4.51,1.37c4.29,0,7.07-2.21,7.07-5.6,0-2-1-3.81-3-5.57a6.12,6.12,0,0,0,2.34-.64c2.27,2.47,3,4,3,6.37,0,4.51-3.77,7.55-9.37,7.55-3.36,0-5.92-1.15-7.17-3.2a8.65,8.65,0,0,1-1-4.41,16.2,16.2,0,0,1,.13-2.11c0-.48,0-.48.06-.77a33.7,33.7,0,0,1-4.83-.8,3.26,3.26,0,0,0-1-.19Z"/><path d="M1097.74,141.74c-1.86,4.23-3.74,6.15-6,6.15-3,0-5.31-3.33-5.31-7.81A13,13,0,0,1,1100.07,127a12.37,12.37,0,0,1,8.8,3.17A10.7,10.7,0,0,1,1112,138a11.66,11.66,0,0,1-7.33,11,25.46,25.46,0,0,1-4.86,1.47,5.19,5.19,0,0,0-1.12-2.15,18.84,18.84,0,0,0,5.34-1.5,9.65,9.65,0,0,0,5.66-9,8.43,8.43,0,0,0-5.08-8,9.24,9.24,0,0,0-3.72-.8A47.92,47.92,0,0,1,1097.74,141.74Zm-3.94-11.16a11.05,11.05,0,0,0-5.21,9.53c0,3.07,1.34,5.44,3.07,5.44,1.34,0,2.62-1.5,4-4.64a44.16,44.16,0,0,0,2.91-11.84A10.07,10.07,0,0,0,1093.8,130.58Z"/><path d="M1126.76,125.81a13.27,13.27,0,0,0,.61,2c.64,1.89,1,2.78,1.41,4.22a57,57,0,0,1,6.88-1.79,43.07,43.07,0,0,0-.13-5.66h2.4a29.83,29.83,0,0,0-.16,4.32s0,.64,0,1a15.88,15.88,0,0,1,2.4-.19c4.29,0,7,2.3,7,5.89,0,3.84-3.13,6.59-7.52,6.59a13.57,13.57,0,0,1-5.41-1.18,3.73,3.73,0,0,0,0-.58,15,15,0,0,0-.2-1.82,10.89,10.89,0,0,0,5.38,1.47,6.48,6.48,0,0,0,3.84-1.25,3.9,3.9,0,0,0,1.54-3.26c0-2.44-1.89-3.88-5.12-3.88-2.34,0-5.8.77-10.44,2.28,1.64,5.44,2.79,9.95,4.13,16a10.88,10.88,0,0,0,.42,1.38l-2.59.57c-.16-2.62-2-10.33-4-17.27a15.93,15.93,0,0,1-1.72.57,30.87,30.87,0,0,0-4.39,1.76l-.83-2.27a34.42,34.42,0,0,0,4.71-1.5c.79-.29,1.11-.36,1.63-.52a32.64,32.64,0,0,0-2.31-6.08Z"/><path d="M1165.61,127.47a13.18,13.18,0,0,0-.42,2.18c-1.34,9.12-3.87,15.13-8.44,20a7.14,7.14,0,0,0-2-1.66,20.57,20.57,0,0,0,4.64-6.33,36.84,36.84,0,0,0,3.29-11.11,23.71,23.71,0,0,0,.32-3,3.84,3.84,0,0,0,0-.51Zm8.86-.48a40.77,40.77,0,0,0,1.48,7.68c1.56,5.73,4,10.11,7.26,13.22a7.22,7.22,0,0,0-2,1.79,29.61,29.61,0,0,1-5.35-8.32,47.2,47.2,0,0,1-3.36-11.78,14.84,14.84,0,0,0-.41-2.11Z"/><path d="M1190.57,136.66a22.71,22.71,0,0,0,4,.19h18.59a24.91,24.91,0,0,0,3.87-.16v2.59a35.31,35.31,0,0,0-3.9-.13h-18.56a33.83,33.83,0,0,0-4,.13Z"/><path d="M1232.14,151.25a20.88,20.88,0,0,0,.19-3.36V128a18.57,18.57,0,0,0-.19-3.27h2.75a18.1,18.1,0,0,0-.16,3.33v6a84.65,84.65,0,0,1,14.24,6.76l-1.38,2.36a66.92,66.92,0,0,0-11.93-6.33,3.79,3.79,0,0,1-1-.55l-.07,0a10.18,10.18,0,0,1,.13,1.88v9.63a19.71,19.71,0,0,0,.16,3.4ZM1244.43,126a24.26,24.26,0,0,1,3.29,5l-1.6,1a24.06,24.06,0,0,0-3.29-5.09Zm3.61-1.76a27.3,27.3,0,0,1,3.3,5l-1.6.93a23.3,23.3,0,0,0-3.27-5Z"/><path d="M744.49,192a3.25,3.25,0,0,0-.19.54l-.19.64-.16.7a28.73,28.73,0,0,1-5.6,11,7.19,7.19,0,0,0-2.11-1.37,20.66,20.66,0,0,0,4.7-7.87,16.34,16.34,0,0,0,1.12-4.36Zm4.48-7.84a14.38,14.38,0,0,0-.19-3.27h2.62a18.31,18.31,0,0,0-.16,3.33v2.08h8.07a21,21,0,0,0,3.74-.19v2.43a24.56,24.56,0,0,0-3.68-.16h-8.13v15.93a19.2,19.2,0,0,0,.16,3.4h-2.62a17.73,17.73,0,0,0,.19-3.36v-16h-7.84a24.56,24.56,0,0,0-3.68.16v-2.43a20.64,20.64,0,0,0,3.71.19H749Zm9,7.2a22.65,22.65,0,0,0,1.19,3.61,28.15,28.15,0,0,0,5,8.58,6.86,6.86,0,0,0-2,1.5,38.19,38.19,0,0,1-5.57-11c-.29-.86-.57-1.56-.8-2.08Zm.93-11.88a25.78,25.78,0,0,1,3.26,4.84l-1.63.92a25.82,25.82,0,0,0-3.23-4.92Zm4-1.18a26.74,26.74,0,0,1,3.29,5l-1.6.93a23.24,23.24,0,0,0-3.26-5Z"/><path d="M796.17,182.42a7,7,0,0,0-1.41,1.34,55.35,55.35,0,0,1-7.49,6.43v13.63a22.17,22.17,0,0,0,.16,3.39h-2.78a16.62,16.62,0,0,0,.19-3.32V191.73a50.16,50.16,0,0,1-12.35,5.6,7.41,7.41,0,0,0-1.25-2.15,45,45,0,0,0,16.61-8.28,26.83,26.83,0,0,0,6.11-6.05Z"/><path d="M814.73,182a15.38,15.38,0,0,0-.19,2.75c-.26,8.68-.51,11-1.73,14.28a19.65,19.65,0,0,1-5.53,7.9,6,6,0,0,0-1.92-1.73,15.78,15.78,0,0,0,5.4-7.36c1-2.78,1.44-7,1.44-13.73a15.19,15.19,0,0,0-.12-2.27Zm7.94-.35a12.3,12.3,0,0,0-.2,2.82l-.19,19.32a14.66,14.66,0,0,0,6-3.71,15.79,15.79,0,0,0,3.78-6.4,9,9,0,0,0,1.79,1.86,18.2,18.2,0,0,1-6.43,8.22,21.31,21.31,0,0,1-4.58,2.34l-1,.38a5.78,5.78,0,0,0-.74.35l-1.28-1.47a5.18,5.18,0,0,0,.23-2.17l.19-18.72a12.68,12.68,0,0,0-.13-2.85Z"/><path d="M847.5,207.25a20.88,20.88,0,0,0,.19-3.36V184a18.57,18.57,0,0,0-.19-3.27h2.75a18.1,18.1,0,0,0-.16,3.33v6a84.65,84.65,0,0,1,14.24,6.76L863,199.18A66.92,66.92,0,0,0,851,192.85a3.63,3.63,0,0,1-1-.55l-.07,0a10.18,10.18,0,0,1,.13,1.88v9.63a19.71,19.71,0,0,0,.16,3.4ZM859.79,182a24.26,24.26,0,0,1,3.29,5l-1.6,1a24.06,24.06,0,0,0-3.29-5.09Zm3.61-1.76a27.3,27.3,0,0,1,3.3,5l-1.6.93a23.3,23.3,0,0,0-3.27-5.05Z"/><path d="M876.88,193.33a21.54,21.54,0,0,0,5.72,1.28c.16-1.57.48-4.07.74-5.76a41.63,41.63,0,0,1-4.77-.87l-1-.22.29-2.11a21.11,21.11,0,0,0,5.76,1.25,51.27,51.27,0,0,0,.77-6v-.26l2.56.29a15.76,15.76,0,0,0-.52,2.15c0,.28,0,.28-.32,2-.09.71-.16,1-.32,1.92.9,0,1.35,0,1.86,0a26,26,0,0,0,5.85-.55l-.09,2.21-2.24.19a28.51,28.51,0,0,1-2.88.13c-.51,0-1.06,0-2.82-.06-.51,3.68-.54,4-.73,5.79,1.21,0,1.66,0,2.11,0a28.06,28.06,0,0,0,5.89-.51l-.07,2.14-.86.07a37.28,37.28,0,0,1-4.51.25c-.8,0-1.31,0-2.76-.06a6.28,6.28,0,0,1,0,.64c-.06.77-.12,1.82-.12,2.37a4.74,4.74,0,0,0,1.47,3.84,6.75,6.75,0,0,0,4.51,1.37c4.29,0,7.07-2.21,7.07-5.6,0-2-1-3.81-3-5.57a6.12,6.12,0,0,0,2.34-.64c2.27,2.47,3,4,3,6.37,0,4.51-3.77,7.55-9.37,7.55-3.36,0-5.92-1.15-7.17-3.2a8.65,8.65,0,0,1-1-4.41,16.2,16.2,0,0,1,.13-2.11c0-.48,0-.48.06-.77a33.7,33.7,0,0,1-4.83-.8,3.26,3.26,0,0,0-1-.19Z"/><path d="M921.74,197.74c-1.86,4.23-3.74,6.15-6,6.15-3,0-5.31-3.33-5.31-7.81A13,13,0,0,1,924.07,183a12.37,12.37,0,0,1,8.8,3.17A10.7,10.7,0,0,1,936,194a11.66,11.66,0,0,1-7.33,11,25.46,25.46,0,0,1-4.86,1.47,5.19,5.19,0,0,0-1.12-2.15,18.84,18.84,0,0,0,5.34-1.5,9.65,9.65,0,0,0,5.66-9,8.43,8.43,0,0,0-5.08-8,9.24,9.24,0,0,0-3.72-.8A47.92,47.92,0,0,1,921.74,197.74Zm-3.94-11.16a11.05,11.05,0,0,0-5.21,9.53c0,3.07,1.34,5.44,3.07,5.44,1.34,0,2.62-1.5,4-4.64a44.16,44.16,0,0,0,2.91-11.84A10.07,10.07,0,0,0,917.8,186.58Z"/><path d="M950.44,181.81a13.27,13.27,0,0,0,.61,1.95c.64,1.89,1,2.78,1.41,4.22a57,57,0,0,1,6.88-1.79,43.07,43.07,0,0,0-.13-5.66h2.4a29.83,29.83,0,0,0-.16,4.32s0,.64,0,1a15.88,15.88,0,0,1,2.4-.19c4.29,0,7,2.3,7,5.89,0,3.84-3.13,6.59-7.52,6.59A13.49,13.49,0,0,1,958,197a5,5,0,0,0,0-.58,13,13,0,0,0-.2-1.82,10.89,10.89,0,0,0,5.38,1.47,6.48,6.48,0,0,0,3.84-1.25,3.9,3.9,0,0,0,1.54-3.26c0-2.44-1.89-3.88-5.12-3.88-2.34,0-5.8.77-10.43,2.28,1.63,5.44,2.78,9.95,4.12,16a10.88,10.88,0,0,0,.42,1.38l-2.59.57c-.16-2.62-2-10.33-4-17.27a18.06,18.06,0,0,1-1.73.57,30.87,30.87,0,0,0-4.39,1.76l-.83-2.27a34.42,34.42,0,0,0,4.71-1.5c.8-.29,1.11-.36,1.63-.52a31.91,31.91,0,0,0-2.31-6.08Z"/><path d="M986.22,186.67a26.58,26.58,0,0,0-.74,3.52c-.77,4.64-.83,4.87-.93,5.6a4.08,4.08,0,0,1-.12.74l.06,0a9.52,9.52,0,0,1,1-1,15.82,15.82,0,0,1,9.25-2.75c5.22,0,8.58,2.43,8.58,6.17a6.85,6.85,0,0,1-2.88,5.51,13.3,13.3,0,0,1-8,2.11,26.2,26.2,0,0,1-5.6-.58l-2.56-.64a5.41,5.41,0,0,0,0-.61,7.46,7.46,0,0,0-.22-2,22.75,22.75,0,0,0,8.16,1.6c5.28,0,8.64-2.11,8.64-5.37,0-2.63-2.31-4.16-6.21-4.16a15.49,15.49,0,0,0-9,2.78,5.51,5.51,0,0,0-1.28,1.31l-2.5-.06c.1-.58.13-.87.26-1.89.32-2.43.9-6.14,1.34-8.83a12.06,12.06,0,0,0,.23-1.7Zm1.41-5.57a38.68,38.68,0,0,0,10.84,3.56l-.89,2.24a49,49,0,0,1-6.24-1.83,35.23,35.23,0,0,1-4.9-2Z"/><path d="M1022.19,203.54a4.8,4.8,0,1,1-4.8-4.8A4.79,4.79,0,0,1,1022.19,203.54Zm-7.78,0a3,3,0,1,0,3-3A3,3,0,0,0,1014.41,203.54Z"/><path d="M1053.2,182.38a24,24,0,0,0,2.88.13c2.88,0,7.48-.19,9.75-.45a6.22,6.22,0,0,0,1.8-.38l1.34,1.7a10.18,10.18,0,0,0-1.57,1.34,62,62,0,0,1-10.49,8.16,71.77,71.77,0,0,1,7.68-.86c1.31-.1,3.26-.29,5.69-.52,1.31-.09,2.27-.19,2.91-.25a3.94,3.94,0,0,0,.93-.13l.23,2.24h-.71a21.28,21.28,0,0,0-8.8,1.73,11.41,11.41,0,0,0-4,3,4.06,4.06,0,0,0-1,2.65c0,2.63,2.75,4.13,7.61,4.13a11.27,11.27,0,0,0,2.18-.19l.1,2.46c-.55,0-.55,0-2.18-.06-3.74-.07-6.53-.77-8.06-2.08a5.19,5.19,0,0,1-1.89-4c0-2.85,2.37-5.38,7-7.39-.44.06-.44.06-1.76.28l-5.21.68a78.24,78.24,0,0,0-9.44,1.44l-.26-2.44h.23a41.4,41.4,0,0,0,5.6-.64,67.21,67.21,0,0,0,10.62-8.25,10,10,0,0,1,1.06-.9,78.1,78.1,0,0,1-10,.77c-1.21.06-1.34.06-2,.13Z"/><path d="M1087.34,182.61a19.2,19.2,0,0,0,3.55.19c3,0,7-.19,9.25-.42a3.73,3.73,0,0,0,1.31-.28l1.34,1.85c-.48.32-.48.32-3.45,3.3-4.67,4.7-6.15,6-8.74,7.84l.1.09c3.2-1.88,5.21-2.52,8.13-2.52,5.08,0,8.32,2.46,8.32,6.36a7.14,7.14,0,0,1-4.16,6.34,16.42,16.42,0,0,1-6.82,1.34,22.37,22.37,0,0,1-7.71-1.5,4.46,4.46,0,0,0,0-.58,12,12,0,0,0-.22-2,18.14,18.14,0,0,0,8.16,2c5,0,8.35-2.27,8.35-5.57,0-2.78-2.43-4.48-6.37-4.48a19.06,19.06,0,0,0-10.27,3.52,16.35,16.35,0,0,0-2.5,2l-1.6-2a30.74,30.74,0,0,0,4.16-3.17c3.33-2.91,7.68-7,10.63-10.11a2.29,2.29,0,0,1,.28-.32l.26-.26-.06,0a1.77,1.77,0,0,0-.42.06c-1.38.23-5.54.48-9.12.58a12.55,12.55,0,0,0-2.3.16Z"/><path d="M1122.32,182.38a24,24,0,0,0,2.88.13c2.88,0,7.48-.19,9.75-.45a6.22,6.22,0,0,0,1.8-.38l1.34,1.7a10.18,10.18,0,0,0-1.57,1.34,62,62,0,0,1-10.49,8.16,71.77,71.77,0,0,1,7.68-.86c1.31-.1,3.26-.29,5.69-.52,1.31-.09,2.27-.19,2.91-.25a3.94,3.94,0,0,0,.93-.13l.23,2.24h-.71a21.28,21.28,0,0,0-8.8,1.73,11.41,11.41,0,0,0-4,3,4.06,4.06,0,0,0-1,2.65c0,2.63,2.75,4.13,7.61,4.13a11.27,11.27,0,0,0,2.18-.19l.1,2.46c-.55,0-.55,0-2.18-.06-3.74-.07-6.53-.77-8.06-2.08a5.19,5.19,0,0,1-1.89-4c0-2.85,2.37-5.38,7-7.39-.44.06-.44.06-1.76.28l-5.21.68a78.24,78.24,0,0,0-9.44,1.44l-.26-2.44h.23a41.4,41.4,0,0,0,5.6-.64,67.21,67.21,0,0,0,10.62-8.25,10,10,0,0,1,1.06-.9,78.1,78.1,0,0,1-10,.77c-1.21.06-1.34.06-2,.13Z"/><path d="M1156.46,182.61a19.2,19.2,0,0,0,3.55.19c3,0,7-.19,9.25-.42a3.73,3.73,0,0,0,1.31-.28l1.34,1.85c-.48.32-.48.32-3.45,3.3-4.67,4.7-6.15,6-8.74,7.84l.1.09c3.2-1.88,5.21-2.52,8.13-2.52,5.08,0,8.32,2.46,8.32,6.36a7.14,7.14,0,0,1-4.16,6.34,16.42,16.42,0,0,1-6.82,1.34,22.37,22.37,0,0,1-7.71-1.5,4.46,4.46,0,0,0,0-.58,12,12,0,0,0-.22-2,18.14,18.14,0,0,0,8.16,2c5,0,8.35-2.27,8.35-5.57,0-2.78-2.43-4.48-6.37-4.48a19.06,19.06,0,0,0-10.27,3.52,16.35,16.35,0,0,0-2.5,2l-1.6-2a30.74,30.74,0,0,0,4.16-3.17c3.33-2.91,7.68-7,10.63-10.11a2.29,2.29,0,0,1,.28-.32l.26-.26-.06,0a1.77,1.77,0,0,0-.42.06c-1.38.23-5.54.48-9.12.58a12.55,12.55,0,0,0-2.3.16Z"/><path d="M1196,180.88a57.64,57.64,0,0,0,2.4,10.59c1.76-.73,2.81-1.15,7.74-2.85a14,14,0,0,0,2.05-.86l1,2.43a84.05,84.05,0,0,0-9.63,3.11c-5.47,2.2-7.84,4.32-7.84,7,0,2.88,2.46,4,8.73,4a32,32,0,0,0,9.16-1.08l.25,2.65a9,9,0,0,0-1,0l-.32,0-1.09.12a64.24,64.24,0,0,1-7.07.42,21.61,21.61,0,0,1-7.1-.87c-2.62-1-4-2.71-4-5.24a6.91,6.91,0,0,1,2.85-5.44,20.5,20.5,0,0,1,4.19-2.63,64.08,64.08,0,0,1-2.33-8.92,15.07,15.07,0,0,0-.55-2Zm10.81-.48a25.62,25.62,0,0,1,3.3,5l-1.63,1a24.73,24.73,0,0,0-3.27-5.09Zm3.59-1.76a26,26,0,0,1,3.33,5l-1.6.9a27.08,27.08,0,0,0-3.27-5Z"/><path d="M1223,206.37a2.13,2.13,0,1,1-2.13-2.13A2.15,2.15,0,0,1,1223,206.37Z"/><path d="M1233,206.37a2.13,2.13,0,1,1-2.13-2.13A2.15,2.15,0,0,1,1233,206.37Z"/><path d="M1242,206.37a2.13,2.13,0,1,1-2.13-2.13A2.15,2.15,0,0,1,1242,206.37Z"/><rect class="cls-7" x="685.5" y="265.49" width="652" height="293.4" rx="5"/><g class="cls-8"><ellipse class="cls-9" cx="711.11" cy="308.12" rx="11.64" ry="11.62"/><ellipse class="cls-9" cx="711.11" cy="340.3" rx="11.64" ry="11.62"/><ellipse class="cls-9" cx="711.11" cy="372.47" rx="11.64" ry="11.62"/><ellipse class="cls-9" cx="711.11" cy="404.65" rx="11.64" ry="11.62"/><ellipse class="cls-9" cx="711.11" cy="436.83" rx="11.64" ry="11.62"/><ellipse class="cls-9" cx="711.11" cy="469" rx="11.64" ry="11.62"/><ellipse class="cls-9" cx="711.11" cy="501.18" rx="11.64" ry="11.62"/><ellipse class="cls-9" cx="711.11" cy="533.36" rx="11.64" ry="11.62"/></g><g class="cls-8"><line class="cls-10" x1="1310.63" y1="346.27" x2="734.7" y2="346.27"/><line class="cls-10" x1="1310.63" y1="378.51" x2="734.7" y2="378.51"/><line class="cls-11" x1="1310.63" y1="378.51" x2="734.7" y2="378.51"/><line class="cls-11" x1="1310.63" y1="406.76" x2="734.7" y2="406.76"/><line class="cls-11" x1="1310.63" y1="435.01" x2="734.7" y2="435.01"/><line class="cls-11" x1="734.7" y1="463.27" x2="1310.63" y2="463.27"/><line class="cls-11" x1="1310.63" y1="491.52" x2="734.7" y2="491.52"/><line class="cls-11" x1="1310.63" y1="519.77" x2="734.7" y2="519.77"/><line class="cls-11" x1="1310.63" y1="548.03" x2="734.7" y2="548.03"/></g><path d="M741.39,338.6a23.08,23.08,0,0,0-.23,3.81,54.7,54.7,0,0,0,.84,9.95c.7,3.26,2,5.47,3.23,5.47.57,0,1.12-.54,1.6-1.6a23.42,23.42,0,0,0,1.66-5.47,9.92,9.92,0,0,0,1.89,1.82c-1.57,5.6-3,7.75-5.31,7.75-1.79,0-3.46-1.79-4.55-4.87s-1.56-7.13-1.73-15a18.32,18.32,0,0,0-.09-1.89Zm15.45,1.7a27.85,27.85,0,0,1,4.58,7.29,31,31,0,0,1,2.4,8.55l-2.27.92a28.3,28.3,0,0,0-6.66-15.77Z"/><path d="M772.33,342.82c1-.06,1-.06,6.66-1.34a42.68,42.68,0,0,1,9.28-1.18c5.85,0,9.56,3.1,9.56,8,0,4-2.36,7.36-6.65,9.44-2.95,1.4-5.63,2-10.59,2.43a5.64,5.64,0,0,0-1-2.37,28.86,28.86,0,0,0,8.9-1.47c4.38-1.6,6.85-4.48,6.85-8.07s-2.66-5.76-7-5.76c-3.33,0-7.52.74-13.05,2.28a14.66,14.66,0,0,0-2.31.76Z"/><path d="M807.6,343.56c1.15,0,4.48-.42,7.07-.83a39.51,39.51,0,0,0,1-6.79v-.41l2.56.29a18.81,18.81,0,0,0-.61,3.07c-.16.93-.38,2.11-.67,3.65a16.92,16.92,0,0,1,1.88-.1c2.28,0,3.62.38,4.61,1.34s1.57,2.53,1.57,5.16c0,4.89-.83,9.15-2.14,11a3.35,3.35,0,0,1-3.14,1.51,12.16,12.16,0,0,1-4.83-1.25,7.39,7.39,0,0,0,.06-1.12,6.62,6.62,0,0,0-.09-1.28,11.88,11.88,0,0,0,4.76,1.47q1.2,0,1.83-1.53a24.92,24.92,0,0,0,1.34-8.9c0-3.39-1-4.48-3.93-4.48a18.07,18.07,0,0,0-2.31.16,60,60,0,0,1-4.83,13.57c-.41.76-1.09,2-2.08,3.84l-2.17-1.28a30.94,30.94,0,0,0,3.32-5.79,52,52,0,0,0,3.52-10.15c-2.75.42-4.28.67-4.57.74-.74.13-1,.19-1.86.41Zm21-2.94a29,29,0,0,1,6.69,11.32l-2,1.19a26.27,26.27,0,0,0-6.53-11.49Z"/><path d="M738.88,457.14a28.5,28.5,0,0,1,5.88,3.68l-1.12,1.86a26.12,26.12,0,0,0-5.88-4Zm6.2,10.34a58.79,58.79,0,0,1-5.31,9.53L738,475.35a8.44,8.44,0,0,0,1-1.09,32,32,0,0,0,4.51-8.06Zm-4.8-18.4a37.62,37.62,0,0,1,5.51,4.26L744.54,455a33.63,33.63,0,0,0-5.57-4.48Zm14.79,4a62,62,0,0,1-7.33.8,6.27,6.27,0,0,0-.83-2,58,58,0,0,0,13.53-1.82,15.1,15.1,0,0,0,3.68-1.28l1.47,1.92-1.05.28c-1.86.55-4.35,1.12-7.43,1.7v5.54h6.24a21.69,21.69,0,0,0,3.27-.2v2.28a23.15,23.15,0,0,0-3.27-.2h-6.24v5.44h5.12a16.51,16.51,0,0,0,2.47-.12,20.28,20.28,0,0,0-.13,2.91v6.08a24,24,0,0,0,.16,3.1h-2.18v-1.82H750.17v1.82H748a22.42,22.42,0,0,0,.16-3.13v-6.15a25.28,25.28,0,0,0-.13-2.81,16.36,16.36,0,0,0,2.33.12h4.71v-5.44H749a23.41,23.41,0,0,0-3.24.2V458.1a21.25,21.25,0,0,0,3.24.2h6.08Zm-4.9,20.77h12.38v-6.43H750.17Z"/><path d="M778.91,453.24a25.07,25.07,0,0,1-5,6.18,3.73,3.73,0,0,0-1.5-1.41,21.75,21.75,0,0,0,6.11-8.1,6.59,6.59,0,0,0,.61-1.88l2.27.51a6.56,6.56,0,0,0-.54,1.12c-.29.57-.42.86-.9,1.72h15.74a26.56,26.56,0,0,0,4-.22v2.3a23.27,23.27,0,0,0-4-.22Zm12.28,22.94a53.12,53.12,0,0,0-6.24-5.56,34.14,34.14,0,0,1-10,6.52,5.37,5.37,0,0,0-1.54-1.76,30.93,30.93,0,0,0,9.92-6,61.42,61.42,0,0,0-6.11-3.94l1.38-1.28a62.77,62.77,0,0,1,6.11,3.87,16.45,16.45,0,0,0,3.58-4.95l2.05,1.18-.45.54c-.16.23-.16.23-.8,1.09a34.44,34.44,0,0,1-2.75,3.33,74.2,74.2,0,0,1,6.34,5.28ZM777.63,462.3a22.91,22.91,0,0,0-3.3.19v-2.18a19.17,19.17,0,0,0,3,.19h15.32a25,25,0,0,0,3.62-.16,24.07,24.07,0,0,0-.13,2.72,29.63,29.63,0,0,0,1.19,9.32c.44,1.27,1.24,2.52,1.6,2.52s1-2.4,1.15-5.34a4.82,4.82,0,0,0,1.76,1.25,18.6,18.6,0,0,1-.87,4.38c-.41,1.35-1.12,2.08-1.92,2.08-1.24,0-2.81-1.89-3.68-4.48-.8-2.4-1.15-5.41-1.21-10.49Zm.54-6.5A14.71,14.71,0,0,0,781,456h13a17.37,17.37,0,0,0,3.14-.19v2.17a16.23,16.23,0,0,0-3.14-.19H781.15a18.54,18.54,0,0,0-3,.16Z"/><path d="M807.58,456.79a32.53,32.53,0,0,1,5.5,4.13l-1.21,1.76a25.07,25.07,0,0,0-5.47-4.38Zm5.73,10.59a47.43,47.43,0,0,1-3.81,8.26,13.6,13.6,0,0,0-.83,1.41l-1.89-1.67a4.76,4.76,0,0,0,1-1.21,29.61,29.61,0,0,0,3.84-8Zm-4.13-18.33a27.75,27.75,0,0,1,5.12,4.19L813,454.87a25.67,25.67,0,0,0-5.12-4.38Zm7.2,18.21c-.51.38-.8.64-1.76,1.31a5.63,5.63,0,0,0-1.12-1.67,16.67,16.67,0,0,0,5.12-4.54,6.45,6.45,0,0,0,.93-1.73l1.66,1.19-.67.92a19.16,19.16,0,0,1-3,3.49H831.9a19.74,19.74,0,0,1-3.84-4.25h-3.94a13,13,0,0,0-2.08.12v-2a12.34,12.34,0,0,0,2.15.13H827a9.28,9.28,0,0,0,2.05-.13c1.44,2.59,3.59,4.61,7.07,6.59a13.44,13.44,0,0,0-1.21,1.7c-.9-.58-1.28-.83-1.86-1.28v7.9h.74a14,14,0,0,0,2-.12v2a27.67,27.67,0,0,0-3-.16H815.58a25.74,25.74,0,0,0-3,.16v-2a16.32,16.32,0,0,0,2.31.12h1.47v-7.8ZM821.66,451a6.48,6.48,0,0,0-.58.9,21.61,21.61,0,0,1-2.17,2.94,19.87,19.87,0,0,1-3.84,3.2,5.18,5.18,0,0,0-1.19-1.66c3.08-1.76,5.44-4.32,6-6.4Zm-.35,24V467.9h-3v7.16Zm-2.6-19.2a14.74,14.74,0,0,0,2.47.13h7.49a15.09,15.09,0,0,0,2.49-.13v2a15.06,15.06,0,0,0-2.46-.13h-7.59a15.07,15.07,0,0,0-2.4.13Zm5.7-4.67a12.09,12.09,0,0,0-2,.13v-2a13.38,13.38,0,0,0,2.15.12h2.11a10.35,10.35,0,0,0,2-.12c1.47,2.68,3.58,4.67,7.07,6.62a11,11,0,0,0-1.22,1.7,21.55,21.55,0,0,1-6.88-6.47Zm1.79,16.71H823v7.16h3.17Zm5,0h-3.26v7.16h3.26Z"/><path d="M842.27,469a48.84,48.84,0,0,0,5.63-5.4c0-1.28.1-3.3.19-6.12-4.29.29-4.29.29-5,.45l-.13-2.21a5.88,5.88,0,0,0,1,.07l4.19-.26c.1-2.43.13-3.87.13-4.29a12,12,0,0,0-.1-1.6l2.53,0a37.7,37.7,0,0,0-.38,5.69,1.94,1.94,0,0,0,.64-.16l.83,1a11.29,11.29,0,0,0-1.63,2,5.81,5.81,0,0,1,0,.8c0,.64,0,.64-.07,2.14a1.75,1.75,0,0,1,0,.29c0,.26,0,.32,0,.51l.06,0a23.19,23.19,0,0,1,4.07-3.74c2.91-2.34,5.31-3.52,7.23-3.52a3.48,3.48,0,0,1,3.74,3.74,21.54,21.54,0,0,1-.73,4.68c-1.19,5.15-1.38,6.27-1.38,7.58,0,1.47.67,2.27,1.92,2.27a3.86,3.86,0,0,0,2.72-1.76,13,13,0,0,0,1.82-3.68,10.8,10.8,0,0,0,1.48,2.18,16.09,16.09,0,0,1-2,3.17,5.52,5.52,0,0,1-4.41,2.3,4,4,0,0,1-2.24-.67c-1.06-.74-1.51-1.86-1.51-3.65,0-1.63.07-2,1.22-7.46a23.9,23.9,0,0,0,.8-4.8,1.62,1.62,0,0,0-1.76-1.72c-1.25,0-2.79.7-4.83,2.17a52.22,52.22,0,0,0-6.18,5.44v6.91a47.92,47.92,0,0,0,.1,5.32h-2.5c.19-1.19.19-1.19.22-5.28,0-3.75,0-3.75.1-5.19h-.06a3.75,3.75,0,0,1-.58.77l-1.57,1.76c-.35.38-.8.9-1.34,1.5a6.87,6.87,0,0,0-.83,1Z"/><path d="M882.17,451.42a14.83,14.83,0,0,0,3,.19c2.65,0,6.91-.19,9.79-.42a3.32,3.32,0,0,0,1.54-.35l1.34,1.76a5.73,5.73,0,0,0-1.63,1.34A82.43,82.43,0,0,1,885.69,463l.06.1a16.28,16.28,0,0,1,7.84-2c5.35,0,8.77,2.63,8.77,6.72,0,5-4.64,8.29-11.74,8.29-4.51,0-7.1-1.66-7.1-4.61,0-2.14,2-3.74,4.64-3.74a6.44,6.44,0,0,1,5.27,2.62,9.11,9.11,0,0,1,1.48,3.08c3.36-.93,5.12-2.88,5.12-5.6,0-3.08-2.56-4.9-6.88-4.9a20.53,20.53,0,0,0-13.47,5.47l-1.44-2.05a35.1,35.1,0,0,0,4.47-3.26c3.43-2.72,8.48-7.17,10.69-9.34l.45-.45a1.37,1.37,0,0,1,.13-.13l.13-.13-.07-.06-.29,0c-1,.19-4.86.42-9.72.58a14.26,14.26,0,0,0-1.73.16Zm6,18.2c-1.6,0-2.6.77-2.6,2a2.18,2.18,0,0,0,1.29,1.95,8.11,8.11,0,0,0,3.58.73,11.55,11.55,0,0,0,2.33-.22C892.09,471.16,890.49,469.62,888.19,469.62Z"/><path d="M915.13,452.28a23.45,23.45,0,0,0-.22-3.39h2.56a20.91,20.91,0,0,0-.23,3.39v3.87h6.4v-4a21.55,21.55,0,0,0-.22-3.29h2.49a21.15,21.15,0,0,0-.22,3.26v4h6.82v-4a21.11,21.11,0,0,0-.23-3.26h2.47a21.76,21.76,0,0,0-.23,3.26v4h2.05a21.49,21.49,0,0,0,3.23-.19v2.24a22.8,22.8,0,0,0-3.23-.19h-2.05v7.55a20.65,20.65,0,0,0,.13,2.65,20,20,0,0,0-2.56-.12h-6a21.1,21.1,0,0,0-2.6.12,19.11,19.11,0,0,0,.13-2.59V458h-6.4v15.87h17.7a27.48,27.48,0,0,0,3.42-.19V476a25.78,25.78,0,0,0-3.42-.19h-17.7v2h-2.3a30.45,30.45,0,0,0,.19-4V458h-1.5a22.71,22.71,0,0,0-3.23.19V456a21.77,21.77,0,0,0,3.23.19h1.5ZM925.69,458v8.25h6.82V458Z"/><path d="M958.3,466.74c-1.86,4.23-3.74,6.15-6,6.15-3,0-5.31-3.33-5.31-7.81A13,13,0,0,1,960.63,452a12.37,12.37,0,0,1,8.8,3.17,10.7,10.7,0,0,1,3.11,7.81,11.66,11.66,0,0,1-7.33,11,24.75,24.75,0,0,1-4.86,1.47,5.19,5.19,0,0,0-1.12-2.15,18.84,18.84,0,0,0,5.34-1.5,9.65,9.65,0,0,0,5.66-9,8.43,8.43,0,0,0-5.08-8,9.24,9.24,0,0,0-3.72-.8A47.54,47.54,0,0,1,958.3,466.74Zm-3.94-11.16a11.05,11.05,0,0,0-5.21,9.53c0,3.07,1.34,5.44,3.07,5.44,1.34,0,2.62-1.5,4-4.64a44.16,44.16,0,0,0,2.91-11.84A10.07,10.07,0,0,0,954.36,455.58Z"/><path d="M993,451.9a18.49,18.49,0,0,0-.22-3.33h2.56a19.11,19.11,0,0,0-.22,3.26v2.82h9.37a16.4,16.4,0,0,0,2.43-.13,16.15,16.15,0,0,0-.16,2.53v8.73a19.92,19.92,0,0,0,.2,2.85h-2.31v-2.17h-9.53v7.45a18.3,18.3,0,0,0,.22,3.65h-2.56a22.15,22.15,0,0,0,.22-3.65v-7.45h-9v2.17h-2.3a21.53,21.53,0,0,0,.19-2.85v-8.73a21.41,21.41,0,0,0-.16-2.53,16.91,16.91,0,0,0,2.4.13H993Zm-9,4.67v8h9v-8Zm20.67,8v-8h-9.53v8Z"/><path d="M1015.26,457.69a65.28,65.28,0,0,0,7.07-.83,38.91,38.91,0,0,0,1-6.79v-.41l2.56.29a20,20,0,0,0-.61,3.07c-.12.8-.41,2.27-.67,3.64.74-.06,1.15-.09,1.89-.09,2.27,0,3.62.38,4.61,1.34s1.56,2.53,1.56,5.15c0,4.9-.83,9.15-2.14,11a3.33,3.33,0,0,1-3.13,1.5,12.15,12.15,0,0,1-4.84-1.24,6.62,6.62,0,0,0,.07-1.16,5.62,5.62,0,0,0-.1-1.24,12,12,0,0,0,4.77,1.47c.8,0,1.41-.51,1.82-1.54a24.57,24.57,0,0,0,1.35-8.89c0-3.39-1-4.48-3.94-4.48a17.94,17.94,0,0,0-2.3.16,62.5,62.5,0,0,1-6.91,17.4l-2.18-1.27c2.66-3.49,5.41-9.89,6.85-15.94a43,43,0,0,0-6.43,1.15Zm21-2.95a29.33,29.33,0,0,1,6.69,11.33l-2,1.15a26.91,26.91,0,0,0-6.53-11.48Zm1.44-5.44a24.59,24.59,0,0,1,3.3,5l-1.6,1a24.51,24.51,0,0,0-3.3-5.08Zm3.62-1.72a25.28,25.28,0,0,1,3.29,5l-1.6.92a23.08,23.08,0,0,0-3.26-5Z"/><path d="M1054.17,461.46c-.22,7.88-1.15,11.4-4.25,15.84a8.51,8.51,0,0,0-1.7-1.37c3.26-4.48,4-8,4-18.79,0-1.15-.06-2.08-.13-2.94a34.08,34.08,0,0,0,3.52.13H1072a22.49,22.49,0,0,0,3-.13,15.44,15.44,0,0,0-.09,2.18v3a16.57,16.57,0,0,0,.09,2.21,26.87,26.87,0,0,0-3-.13Zm23.07-9.47a27.07,27.07,0,0,0-3.58-.16h-20.51a28.32,28.32,0,0,0-3.52.16v-2.2a28.52,28.52,0,0,0,3.52.19h20.51a28.07,28.07,0,0,0,3.58-.19Zm-11.1,15.75a10.57,10.57,0,0,0,4,4.76,17.65,17.65,0,0,0,3.62,1.76,22.57,22.57,0,0,0,3.84,1,7,7,0,0,0-1,2.12c-3.72-1.06-5.7-1.92-7.59-3.3a13,13,0,0,1-4.38-5.37,11.27,11.27,0,0,1-4,5.37,20.75,20.75,0,0,1-6.91,3.23,6.53,6.53,0,0,0-1.06-2,21.33,21.33,0,0,0,5.73-2.08,8.77,8.77,0,0,0,4.54-5.5h-5.21a20.51,20.51,0,0,0-3.07.16v-2.08a19.61,19.61,0,0,0,3.07.16h5.57a18.8,18.8,0,0,0,.22-2.31,7.6,7.6,0,0,0-.13-1.28h2.31a12,12,0,0,0-.2,2c0,.48-.09,1-.19,1.6h8.26a20.21,20.21,0,0,0,3.23-.2v2.15a22.8,22.8,0,0,0-3.23-.19Zm6.78-8v-3.68h-18.65v1.82c0,.9,0,1.25,0,1.86Z"/><path d="M1087.2,462.26a14.44,14.44,0,0,0,2.94-.57,41.44,41.44,0,0,1,9.76-1.41c3.29,0,5.57,1,6.78,3a7,7,0,0,1,1,3.64c0,3.59-2.88,6.85-7.32,8.26a30.85,30.85,0,0,1-6.6,1.22,7,7,0,0,0-.83-2.21,2.59,2.59,0,0,0,.45,0,22.07,22.07,0,0,0,6.3-1c3.65-1.19,5.86-3.62,5.86-6.47s-2-4.48-5.92-4.48a37.62,37.62,0,0,0-8.42,1.28,14.07,14.07,0,0,0-3.42,1.06Z"/><path d="M1119.64,454.14h1.16c.44,0,.83,0,1.82-.1,3.81-.29,14.05-.86,18.17-1.06a21.07,21.07,0,0,0,3.81-.35l.19,2.4a14.74,14.74,0,0,0-3.58.42,16.23,16.23,0,0,0-6.14,3.23c-2.56,2.14-3.94,4.74-3.94,7.39s1.63,4.83,4.48,5.92a16.29,16.29,0,0,0,4.8,1h.32l-.42,2.59-1-.19a16.15,16.15,0,0,1-6.91-2.47,7.78,7.78,0,0,1-3.55-6.53c0-3.71,2.18-7.26,6-9.82a21.76,21.76,0,0,1,3-1.7,63.24,63.24,0,0,1-7,.71c-6.62.45-9.47.7-11,1.05Z"/><path d="M1173.11,451.13c-.35.29-.6.51-3.93,3.71-1.6,1.5-3.33,2.94-7.36,6.05-1.19.89-1.41,1.15-1.41,1.6s.26.8,2.85,2.81A95.67,95.67,0,0,1,1173.5,474a8.61,8.61,0,0,0,.89.8l-2,2a30.3,30.3,0,0,0-4.13-4.38c-2.14-2-3.42-3-8.1-6.69-1.79-1.41-2.3-2.11-2.3-3.2a3.08,3.08,0,0,1,.93-2.14,22.29,22.29,0,0,1,2.72-2.18c4.25-3.26,8.25-7,9.37-8.77Z"/><path d="M1193.21,451.42a14.83,14.83,0,0,0,3,.19c2.66,0,6.91-.19,9.79-.42a3.32,3.32,0,0,0,1.54-.35l1.34,1.76a5.73,5.73,0,0,0-1.63,1.34,82.43,82.43,0,0,1-10.53,9.09l.06.1a16.28,16.28,0,0,1,7.84-2c5.35,0,8.77,2.63,8.77,6.72,0,5-4.64,8.29-11.74,8.29-4.51,0-7.1-1.66-7.1-4.61,0-2.14,2-3.74,4.64-3.74a6.44,6.44,0,0,1,5.27,2.62,9.11,9.11,0,0,1,1.48,3.08c3.36-.93,5.12-2.88,5.12-5.6,0-3.08-2.56-4.9-6.88-4.9a20.53,20.53,0,0,0-13.47,5.47l-1.44-2.05a35.1,35.1,0,0,0,4.47-3.26c3.43-2.72,8.48-7.17,10.69-9.34l.45-.45.13-.13.13-.13-.07-.06-.29,0c-1,.19-4.86.42-9.72.58a14.26,14.26,0,0,0-1.73.16Zm6,18.2c-1.6,0-2.6.77-2.6,2a2.18,2.18,0,0,0,1.29,1.95,8.11,8.11,0,0,0,3.58.73,11.55,11.55,0,0,0,2.33-.22C1203.13,471.16,1201.53,469.62,1199.23,469.62Z"/><path d="M1246.91,474.94a25.86,25.86,0,0,0-6.53-4.58c-.55-.29-1.28-.61-2.15-1a8.32,8.32,0,0,1,.07,1.15,5.6,5.6,0,0,1-.8,3.49c-.93,1.31-2.88,2-5.41,2a8.36,8.36,0,0,1-5-1.27,4.2,4.2,0,0,1-1.73-3.36c0-2.12,1.67-3.78,4.48-4.42a14.16,14.16,0,0,1,3.33-.32,13.85,13.85,0,0,1,2.88.26,1,1,0,0,1,0-.39,2.66,2.66,0,0,1,0-.35c0-.29,0-1-.07-1.89,0-.41,0-1-.06-1.85-1.15,0-2.75.06-3.78.06-1.92,0-3.42-.06-5.41-.22a6.4,6.4,0,0,0-.79,0h-.26l0-2.11a39.35,39.35,0,0,0,7.33.51c.83,0,2,0,2.85,0l-.07-4.38c-.93,0-1.44,0-2.17,0-2.34,0-4.93-.1-7.81-.32a4.24,4.24,0,0,0-.58,0,2.9,2.9,0,0,0-.45,0l0-2.17a40.14,40.14,0,0,0,8.19.63c.64,0,1.73,0,2.78,0,0-3.9,0-3.9-.16-4.6h2.47a34.38,34.38,0,0,0-.23,4.51,44.77,44.77,0,0,0,9.47-1.32l.16,2.18a20.77,20.77,0,0,0-2.2.26,67.78,67.78,0,0,1-7.43.76c0,2.63,0,2.63.07,4.32,4.35-.32,7.1-.7,8.86-1.31l.13,2.21c-.42,0-.74.06-1.86.22-2.21.36-4.73.61-7.1.77.06,1.79.06,1.79.19,4.9a27.93,27.93,0,0,1,8.93,4.67,11.8,11.8,0,0,0,1.09.74Zm-10.82-6.05a11.7,11.7,0,0,0-3.26-.35c-3.17,0-5.25,1.15-5.25,2.84s1.6,2.66,4.38,2.66c1.7,0,2.91-.35,3.52-1.06.45-.44.64-1.34.64-2.88Z"/><path d="M1257.63,454.07c.61,0,.93,0,1.15,0,.45,0,.83,0,1.82-.09,1.8-.13,2-.16,5.92-.39l5-.32c3.93-.22,4.35-.25,5.4-.28l1.83-.07a21.62,21.62,0,0,0,3.81-.35l.19,2.37a13.49,13.49,0,0,0-3.59.45,15.62,15.62,0,0,0-6.14,3.2c-2.56,2.14-3.93,4.73-3.93,7.39s1.63,4.83,4.47,5.92a16.63,16.63,0,0,0,4.8,1h.32l-.41,2.59-1-.19a16.25,16.25,0,0,1-6.92-2.46,7.75,7.75,0,0,1-3.55-6.53c0-3.71,2.18-7.23,6-9.82a20.28,20.28,0,0,1,3-1.7,64.84,64.84,0,0,1-7,.7,105.81,105.81,0,0,0-11,1.06Zm21.4,4.77a24.31,24.31,0,0,1,3.3,5l-1.63,1a22.46,22.46,0,0,0-3.27-5.09Zm3.62-1.76a26.31,26.31,0,0,1,3.3,5l-1.6.9a25.64,25.64,0,0,0-3.27-5Z"/><path d="M751.31,503.57a23.69,23.69,0,0,0,6.56,6.81,30.28,30.28,0,0,0,7.48,4.26,6.33,6.33,0,0,0-1.31,2.05,43.33,43.33,0,0,1-7.71-4.8,29.11,29.11,0,0,1-6.21-6.43,33.31,33.31,0,0,1-6.37,6.65,35.35,35.35,0,0,1-7.16,4.45,7.48,7.48,0,0,0-1.35-1.86,33.27,33.27,0,0,0,9-5.72,23.48,23.48,0,0,0,4.68-5.41Zm10.59,17.12a16.48,16.48,0,0,0-1.31,1.44l-6.37,7.81c-.87,1.08-1.51,1.92-2.15,2.87l-2.27-1.34a22.66,22.66,0,0,0,2.53-2.62l6.27-7.56H742.76c-1.21,0-2.36.07-3.71.2v-2.37a33.45,33.45,0,0,0,3.71.19H757a20.7,20.7,0,0,0,3.59-.16Zm-18.43-7.46a16.29,16.29,0,0,0,2.53.13h8.41a19.06,19.06,0,0,0,2.69-.13v2.21a21,21,0,0,0-2.75-.13H746a17.32,17.32,0,0,0-2.56.13Z"/><path d="M777.8,505.55c-1.37,3.2-2.46,9.76-2.46,15,0,1.12.06,3,.13,4.48,0,.25,0,.32,0,.9v.6l.13,0a28.67,28.67,0,0,1,1.88-5.64,3.44,3.44,0,0,0,.26-.64l1.57.74c-1.51,3.14-2.75,7.2-2.75,9.09a3.73,3.73,0,0,0,.06.64l-2.27.22c0-.29-.06-.45-.19-1.18a50.63,50.63,0,0,1-.9-9.51A54.2,54.2,0,0,1,775,507.15a15.93,15.93,0,0,0,.35-2ZM781,511.5a21.73,21.73,0,0,0,5.75.52c1.25,0,2.12,0,3.43-.1,0-3,0-3,0-5.44a7.42,7.42,0,0,0-.1-1.31h2.4a32.88,32.88,0,0,0-.22,5c0,.35,0,.87,0,1.57a21.94,21.94,0,0,0,5.53-1.18l.1,2.17c-.06,0-.06,0-2.24.45a30.73,30.73,0,0,1-3.39.51c0,3.17.09,4.8.35,9.06A23.06,23.06,0,0,1,798,525.9c.39.26.45.32.8.55l-1,2.24a17.21,17.21,0,0,0-4.54-3.33l-.32-.19a2.43,2.43,0,0,0-.29-.2,5,5,0,0,1,.06.84,5.4,5.4,0,0,1-.38,2.17c-.77,1.7-2.72,2.69-5.34,2.69-3.72,0-6-1.76-6-4.54s2.53-4.55,6.08-4.55a9.12,9.12,0,0,1,3.55.64c-.1-.67-.22-3.68-.32-8.35-1.44.07-2.43.1-3.65.1s-2.49,0-3.61-.1a9.07,9.07,0,0,0-1-.06,5.09,5.09,0,0,0-.54,0,1.2,1.2,0,0,0-.32,0H781Zm6.14,12c-2.5,0-4.13,1.06-4.13,2.66s1.47,2.59,3.71,2.59a4.44,4.44,0,0,0,3.27-1.12,3.79,3.79,0,0,0,.6-2.5c0-.22,0-1,0-1A8.13,8.13,0,0,0,787.18,523.5Z"/><path d="M832,517.49a15.73,15.73,0,0,0-1,1.63,28.41,28.41,0,0,1-3.9,5.63c1.5,2.85,3.36,5,4.26,5,.6,0,1.08-1.57,1.6-5a6.51,6.51,0,0,0,1.72,1.38,16.51,16.51,0,0,1-1.18,4.38,2.22,2.22,0,0,1-2,1.54c-1.66,0-3.9-2.24-5.85-5.83a28.28,28.28,0,0,1-8.19,5.35,6.15,6.15,0,0,0-1.47-1.76,24.63,24.63,0,0,0,8.76-5.41,34.78,34.78,0,0,1-2.43-9.5h-7.71v5.18a52.26,52.26,0,0,0,5.73-1.73l.09,1.89c-2.72.9-3.68,1.18-5.82,1.76v7.68c0,1.66-.71,2.21-2.79,2.21-1,0-2.27-.07-3.58-.16a6.59,6.59,0,0,0-.51-2.21,26.72,26.72,0,0,0,4,.35c.67,0,.83-.13.83-.7v-6.69c-3.2.8-3.52.86-4.51,1.06a9.91,9.91,0,0,0-1.66.44l-.55-2.2a38.91,38.91,0,0,0,6.72-1.22V514.9h-3.36a23.33,23.33,0,0,0-3.29.19v-2.21a21.57,21.57,0,0,0,3.29.19h3.36v-5a46.9,46.9,0,0,1-5.34,1.15,6.83,6.83,0,0,0-.9-1.76c4.9-.57,10.59-2.21,12.42-3.58l1.21,1.79-.57.19a6.43,6.43,0,0,0-.83.29c-1.48.58-2.37.86-4,1.38v5.53h7.55c-.19-2.3-.22-2.85-.29-6.53a13.89,13.89,0,0,0-.19-2.36H824a13,13,0,0,0-.19,3c0,2.18.06,3.55.26,5.92h7.07a22.07,22.07,0,0,0,3.2-.19v2.21a23.48,23.48,0,0,0-3.3-.19H824.3a30.07,30.07,0,0,0,1.82,7.93A18.4,18.4,0,0,0,830,516.4Zm-4.45-12.64a29.27,29.27,0,0,1,4.86,5.15l-1.53,1.31a34.78,34.78,0,0,0-4.77-5.41Z"/><path d="M840.14,518.26a27.09,27.09,0,0,0,1.34-8.48l1.73.38a39.77,39.77,0,0,1-1.38,8.77Zm4,14.46a22.45,22.45,0,0,0,.22-3.39v-22.5a20.84,20.84,0,0,0-.22-3.23h2.43a19.93,19.93,0,0,0-.23,3.23v22.66a19.93,19.93,0,0,0,.23,3.23Zm4.32-17.92a21.92,21.92,0,0,0-1.44-5.06l1.4-.54a28.17,28.17,0,0,1,1.6,4.86Zm3.42,9.76a15,15,0,0,0-2.34.13v-1.86a14.76,14.76,0,0,0,2.4.13h10.85a13.68,13.68,0,0,0,2.43-.13l1.25,1.15a27.17,27.17,0,0,1-5.6,4.61,25.39,25.39,0,0,0,8.9,2.08,10,10,0,0,0-1.12,2,29.13,29.13,0,0,1-9.67-3.07,30.52,30.52,0,0,1-9.92,3,5.84,5.84,0,0,0-1-1.89,28.51,28.51,0,0,0,9.15-2.2,19.33,19.33,0,0,1-4.35-4ZM866,515.12a22.85,22.85,0,0,0,3-.13,15.83,15.83,0,0,0-.13,2.31v1.85a12,12,0,0,0,.13,2.14,24.28,24.28,0,0,0-2.81-.12h-14.6c-1.12,0-2,0-2.71.09a18.46,18.46,0,0,0,.09-2.08v-1.95a20.37,20.37,0,0,0-.09-2.21c.86.07,1.5.1,2.62.1Zm-11,1.47h-4.26v3.11H855Zm-.39-3.29c-1.21,0-2.33,0-3.07.09.06-.77.1-1.53.1-2.43v-4.19a21.07,21.07,0,0,0-.13-2.47,32.63,32.63,0,0,0,3.36.16h7.81a22.55,22.55,0,0,0,3.48-.16,20.93,20.93,0,0,0-.12,2.53V511a20.9,20.9,0,0,0,.09,2.4c-.8-.06-1.44-.06-3.07-.06Zm-1.12-5.19h10.69V506H853.48Zm0,3.65h10.69v-2.11H853.48Zm1.51,12.8a14.59,14.59,0,0,0,4,3.1,17.38,17.38,0,0,0,4.35-3.1Zm6-8h-4.26v3.11h4.26Zm6.17,3.11v-3.11h-4.48v3.11Z"/><path d="M888.46,521.74c-1.86,4.23-3.75,6.15-6.05,6.15-3,0-5.31-3.33-5.31-7.81A13,13,0,0,1,890.79,507a12.37,12.37,0,0,1,8.8,3.17A10.7,10.7,0,0,1,902.7,518a11.66,11.66,0,0,1-7.33,11,24.75,24.75,0,0,1-4.86,1.47,5.19,5.19,0,0,0-1.12-2.15,18.84,18.84,0,0,0,5.34-1.5,9.65,9.65,0,0,0,5.66-9,8.43,8.43,0,0,0-5.08-8,9.24,9.24,0,0,0-3.72-.8A47.92,47.92,0,0,1,888.46,521.74Zm-3.94-11.16a11.05,11.05,0,0,0-5.21,9.53c0,3.07,1.34,5.44,3.07,5.44,1.34,0,2.62-1.5,4-4.64a44.16,44.16,0,0,0,2.91-11.84A10.07,10.07,0,0,0,884.52,510.58Z"/><path d="M911.85,508.56a25.54,25.54,0,0,0-.13-3.07c.68.06.68.06,2.95.09H917c1.63,0,2.17,0,2.88-.09a22.73,22.73,0,0,0-.1,3.13v17.54c0,1.54,0,2.37.1,3.07h-2v-1.6h-4.19v2.62h-2.08a25.19,25.19,0,0,0,.19-3.39Zm1.89,6.75h4.19v-7.93h-4.19Zm0,10.53h4.19V517h-4.19Zm11.17-16.51a27.09,27.09,0,0,0-3.08.16v-2.11a19.89,19.89,0,0,0,3,.19h3.39v-1a16.21,16.21,0,0,0-.2-2.59h2.37a15.48,15.48,0,0,0-.19,2.59v1h4.54a20.31,20.31,0,0,0,3-.19v2.11a25.46,25.46,0,0,0-3-.16h-4.54v4.16h5.66a22.17,22.17,0,0,0,3.24-.19v2.14a20.47,20.47,0,0,0-3.11-.19h-1V519h1a19.29,19.29,0,0,0,3.13-.19V521a20.94,20.94,0,0,0-3.13-.19h-1v9c0,2-.71,2.52-3.68,2.52-.52,0-1,0-2.88-.13a6.05,6.05,0,0,0-.51-2.11,22.42,22.42,0,0,0,3.64.39c1.22,0,1.44-.13,1.44-.83v-8.8h-9a23.54,23.54,0,0,0-3.2.19V518.8A20.18,20.18,0,0,0,924,519h9v-3.74h-9a23.1,23.1,0,0,0-3.23.19V513.3a22.31,22.31,0,0,0,3.23.19h4.26v-4.16Zm2.46,19.23a29.11,29.11,0,0,0-4.45-5.38l1.57-1.12a34.56,34.56,0,0,1,4.61,5.22Z"/><path d="M955,527.54a4.8,4.8,0,1,1-4.8-4.8A4.79,4.79,0,0,1,955,527.54Zm-7.78,0a3,3,0,1,0,3-3A3,3,0,0,0,947.21,527.54Z"/><path d="M984.81,506.32a15.35,15.35,0,0,0,3.11.19c1.75,0,4.31-.09,5.37-.22a2.32,2.32,0,0,0,1.18-.39l1.7,1.35c-.42.57-.48.77-1.76,4.64-.7,2.17-.93,2.78-1.5,4.48a25,25,0,0,1,8.73,2.53,36,36,0,0,0,.39-6.5,8.3,8.3,0,0,0-.13-1.57l2.4,0a11.49,11.49,0,0,0-.13,2,43.14,43.14,0,0,1-.58,6.94c1.73.9,2.82,1.47,4.39,2.4a5.52,5.52,0,0,0,.93.48l-.87,2.46a37.64,37.64,0,0,0-5-3.16,15.16,15.16,0,0,1-3.3,5.79,17.24,17.24,0,0,1-5.08,3.9A8.22,8.22,0,0,0,993,530a14.08,14.08,0,0,0,5.18-3.68,12.39,12.39,0,0,0,3-5.38,23.63,23.63,0,0,0-8.83-2.65,63.49,63.49,0,0,1-3,7.71c-1.15,2.21-2.34,3.17-3.87,3.17-2.4,0-4.23-2.28-4.23-5.25a7.2,7.2,0,0,1,3.81-6.34,10.44,10.44,0,0,1,5.76-1.37c1.06-3.14,1.44-4.35,2.56-8.07-2.53.2-3,.23-6,.32a20.15,20.15,0,0,0-2.33.16Zm0,13.89a5.3,5.3,0,0,0-1.53,3.68c0,1.69.92,3,2.08,3s2.39-2,4.73-8.8A7.75,7.75,0,0,0,984.81,520.21Z"/><path d="M1028.11,505.33c-.42.77-.42.77-3.56,8.8a53.74,53.74,0,0,1-2.3,5.28c-.06.13-.19.38-.35.7a5.21,5.21,0,0,0-.29.58l.16.06c2.11-3,3.74-4.19,6-4.19a3.57,3.57,0,0,1,3.2,1.89,8.13,8.13,0,0,1,.54,3.61v2.18a5.5,5.5,0,0,0,.51,3,3,3,0,0,0,2.43,1c2.28,0,3.94-1.31,5.12-4a13.72,13.72,0,0,0,1.22-4.54,8.92,8.92,0,0,0,2.11,1.63,17.26,17.26,0,0,1-2.27,5.63,7.45,7.45,0,0,1-6.37,3.49c-2.37,0-4.06-1.06-4.67-2.88a13.25,13.25,0,0,1-.29-3.46v-1.82a7,7,0,0,0-.25-2.43,1.73,1.73,0,0,0-1.83-1.19c-1.85,0-3.93,1.7-5.73,4.74a33.18,33.18,0,0,0-2.94,7.36l-2.46-.77c.41-.9.41-.9,5-13.18,3.49-9.25,4.19-11.27,4.38-12.23Z"/><path d="M1061.35,504.66a10.35,10.35,0,0,0-.51,2c-.22,1.08-.41,1.85-.86,3.48a26.66,26.66,0,0,0,5.73-1.05l.09,2.2-1.12.2a40.13,40.13,0,0,1-5.25.67,59.17,59.17,0,0,1-3.55,9.34c-.76,1.54-1.05,2.08-2.27,4.19-.29.45-.48.84-.64,1.09l-2.18-1.28a28.34,28.34,0,0,0,3.08-5,48.22,48.22,0,0,0,3.33-8.26c-.81,0-1.89.07-2.37.07l-2.12,0a5.93,5.93,0,0,0-.7,0h-.41l0-2.2a20.38,20.38,0,0,0,3.81.25l2.3,0a33.49,33.49,0,0,0,1.09-6Zm15.2,24.83a18.17,18.17,0,0,0-5.6-4.36,6.18,6.18,0,0,1,.07,1c0,3.3-2.18,5.12-6.08,5.12s-6.24-1.79-6.24-4.64a4.52,4.52,0,0,1,3-4.06,9.37,9.37,0,0,1,3.78-.71,10.64,10.64,0,0,1,3.23.48c-.16-2.08-.22-3.58-.22-4.38a12.84,12.84,0,0,1,.32-3.11l2.17.23a9.76,9.76,0,0,0-.41,3,38.71,38.71,0,0,0,.35,4.87,22.9,22.9,0,0,1,6.27,3.87,3,3,0,0,0,.58.51Zm-11.26-5.73c-2.72,0-4.45,1.12-4.45,2.88s1.54,2.62,4.07,2.62c2.75,0,4-1.09,4-3.48,0-.39-.07-1.38-.07-1.38A9.47,9.47,0,0,0,1065.29,523.76Zm11.23-8.7a34.76,34.76,0,0,0-8.48-4.36l1.19-1.79a43.55,43.55,0,0,1,8.44,4.23Z"/><path d="M1086,509.07c.6,0,.93,0,1.15,0,.45,0,.83,0,1.82-.09,1.79-.13,2-.16,5.92-.39l5-.32c3.93-.22,4.35-.25,5.4-.28l1.83-.07a21.62,21.62,0,0,0,3.81-.35l.19,2.37a13.49,13.49,0,0,0-3.59.45,15.62,15.62,0,0,0-6.14,3.2c-2.56,2.14-3.94,4.73-3.94,7.39s1.64,4.83,4.48,5.92a16.63,16.63,0,0,0,4.8,1h.32l-.41,2.59-1-.19a16.25,16.25,0,0,1-6.92-2.46,7.75,7.75,0,0,1-3.55-6.53c0-3.71,2.18-7.23,6-9.82a20.28,20.28,0,0,1,3-1.7,64.84,64.84,0,0,1-7,.7,105.81,105.81,0,0,0-11,1.06Zm21.4,4.77a24.31,24.31,0,0,1,3.3,5l-1.63,1a22.46,22.46,0,0,0-3.27-5.09Zm3.62-1.76a25.79,25.79,0,0,1,3.29,5l-1.59.9a25.64,25.64,0,0,0-3.27-5Z"/><path d="M1122.92,506.45a14.66,14.66,0,0,0-.22-2.85h2.46a13.75,13.75,0,0,0-.22,2.82v5.31h.41a10.2,10.2,0,0,0,2.31-.16v2.11a14.78,14.78,0,0,0-2.27-.13h-.45v15.62a23.73,23.73,0,0,0,.22,3.45h-2.46a21.53,21.53,0,0,0,.22-3.49V513.55h-.83a20.46,20.46,0,0,0-2.65.13v-2.11a13.92,13.92,0,0,0,2.65.16h.83ZM1134.15,519a19,19,0,0,0,2.69-.13c-.06.61-.06,1-.09,1.79a62.63,62.63,0,0,1-.64,7.68c-.48,3-1,3.49-3.81,3.49-.42,0-1,0-1.54-.06a6.21,6.21,0,0,0-.41-2,11.65,11.65,0,0,0,2.4.29c.8,0,1.12-.22,1.28-.83a43.85,43.85,0,0,0,.8-8.45H1132c-.61,5.15-2,8.41-4.8,11.58a7.45,7.45,0,0,0-1.38-1.66c2.53-2.37,3.75-5.12,4.36-9.92h-1.51a10.16,10.16,0,0,0-1.89.13V518.8a7.74,7.74,0,0,0,2,.16h1.57c0-.7.06-1.22.06-1.76a9.6,9.6,0,0,0-.1-1.54h2.12a17.28,17.28,0,0,0-.2,2.08c0,.45,0,.61-.06,1.22Zm9.64-12.32a18.1,18.1,0,0,0,2.52-.13,12.63,12.63,0,0,0-.12,1.35,22,22,0,0,1-.93,5.34,2.34,2.34,0,0,1-1.38,1.25,7.1,7.1,0,0,1-2.05.19c-.89,0-2-.06-3.2-.16a7.64,7.64,0,0,0-.41-2,18.89,18.89,0,0,0,3.9.39c.87,0,1.22-.23,1.44-.87a15,15,0,0,0,.55-3.58h-7c-1.35,3.36-3.56,5.38-7.78,7.2a6.12,6.12,0,0,0-1.25-1.73c3.78-1.28,5.83-2.88,7-5.47h-3.23a19.44,19.44,0,0,0-3.11.16v-2.08a21,21,0,0,0,3.2.16h3.75A11.07,11.07,0,0,0,1136,504a3.38,3.38,0,0,0,0-.55l2.33.13a14.76,14.76,0,0,0-.38,1.7c-.1.48-.16.76-.29,1.34Zm1.6,12.32a19.6,19.6,0,0,0,2.65-.13q0,.87-.09,1.92c-.26,5.35-.64,8.45-1.25,9.76-.42.93-1.28,1.28-3.14,1.28a14.14,14.14,0,0,1-2.14-.09,6.22,6.22,0,0,0-.42-2,15.27,15.27,0,0,0,2.88.32c.83,0,1.12-.16,1.28-.71a38.1,38.1,0,0,0,.87-8.57h-3.46a23.73,23.73,0,0,1-2,7.52,14.15,14.15,0,0,1-2.78,4,5.9,5.9,0,0,0-1.41-1.54c2.4-2.11,3.78-5.18,4.39-10h-.87a10.39,10.39,0,0,0-2,.13V518.8a8.18,8.18,0,0,0,2,.16h.93c.06-1,.09-1.41.09-2s0-.87-.06-1.35H1143a18.54,18.54,0,0,0-.23,2.59c0,.29,0,.42-.06.74Z"/><path d="M1177.19,510.35a25.76,25.76,0,0,0,3.75-.16c-.1,1.15-.1,1.15-.16,4.19a100.24,100.24,0,0,1-1.12,13.51c-.58,2.78-1.54,3.65-4.1,3.65a38.81,38.81,0,0,1-5.69-.52,10.21,10.21,0,0,0-.55-2.4,28.5,28.5,0,0,0,6.08.8c1.7,0,2.11-.8,2.59-4.67a118.7,118.7,0,0,0,.71-12.45h-9.89a28,28,0,0,1-3.17,11.3c-1.85,3.29-4.57,5.82-8.89,8.29a5.21,5.21,0,0,0-1.7-1.8,19.59,19.59,0,0,0,5.38-3.45c3.71-3.36,5.5-7.49,6.24-14.34h-6.28a27.68,27.68,0,0,0-3.93.2v-2.34a27.39,27.39,0,0,0,4,.19h6.36c.1-1.44.13-2.46.13-3.77a18,18,0,0,0-.19-3.11h2.53a20.83,20.83,0,0,0-.16,2.59c0,1.51,0,1.51-.16,4.29Z"/><path d="M1190.9,529.8a2.14,2.14,0,1,1-2.13-2.13A2.14,2.14,0,0,1,1190.9,529.8Z"/><path d="M1200.9,529.8a2.14,2.14,0,1,1-2.13-2.13A2.14,2.14,0,0,1,1200.9,529.8Z"/><path d="M1209.9,529.8a2.14,2.14,0,1,1-2.13-2.13A2.14,2.14,0,0,1,1209.9,529.8Z"/><path class="cls-12" d="M690.5,581.1h642a5,5,0,0,1,5,5V874.5a0,0,0,0,1,0,0h-652a0,0,0,0,1,0,0V586.1A5,5,0,0,1,690.5,581.1Z"/><g class="cls-8"><ellipse class="cls-9" cx="711.11" cy="623.72" rx="11.64" ry="11.62"/><ellipse class="cls-9" cx="711.11" cy="655.9" rx="11.64" ry="11.62"/><ellipse class="cls-9" cx="711.11" cy="688.08" rx="11.64" ry="11.62"/><ellipse class="cls-9" cx="711.11" cy="720.26" rx="11.64" ry="11.62"/><ellipse class="cls-9" cx="711.11" cy="752.43" rx="11.64" ry="11.62"/><ellipse class="cls-9" cx="711.11" cy="784.61" rx="11.64" ry="11.62"/><ellipse class="cls-9" cx="711.11" cy="816.79" rx="11.64" ry="11.62"/><ellipse class="cls-9" cx="711.11" cy="848.97" rx="11.64" ry="11.62"/></g><g class="cls-8"><line class="cls-11" x1="1310.63" y1="661.87" x2="734.7" y2="661.87"/><line class="cls-11" x1="1310.63" y1="694.11" x2="734.7" y2="694.11"/><line class="cls-13" x1="1310.63" y1="694.11" x2="734.7" y2="694.11"/><line class="cls-11" x1="1310.63" y1="722.37" x2="734.7" y2="722.37"/><line class="cls-11" x1="1310.63" y1="750.62" x2="734.7" y2="750.62"/><line class="cls-11" x1="734.7" y1="778.87" x2="1310.63" y2="778.87"/><line class="cls-11" x1="1310.63" y1="807.13" x2="734.7" y2="807.13"/><line class="cls-11" x1="1310.63" y1="835.38" x2="734.7" y2="835.38"/><line class="cls-11" x1="1310.63" y1="863.63" x2="734.7" y2="863.63"/></g><path d="M754.23,659.31l-1,.19a54.54,54.54,0,0,1-5.67,1V666a22.77,22.77,0,0,1,6.88-1.15,10.94,10.94,0,0,1,5.67,1.34,6.59,6.59,0,0,1-3.24,12.29,4.71,4.71,0,0,1-4.92-3.62,11.59,11.59,0,0,1-.39-3.61,7.26,7.26,0,0,0,2.11-.83,10,10,0,0,0-.06,1.24c0,3.33,1,4.71,3.3,4.71a4.25,4.25,0,0,0,4.28-4.51c0-3.14-2.65-5.09-6.84-5.09A21.46,21.46,0,0,0,747.6,668v8c0,1.72-.77,2.55-2.33,2.55a8.42,8.42,0,0,1-5.28-2,3.88,3.88,0,0,1-1.47-3c0-1.41.8-2.78,2.52-4.26a17.25,17.25,0,0,1,4.51-2.62v-6l-1.27.1c-.58,0-1.12,0-2,0-.48,0-1.35,0-1.7,0h-1.31v-2.11a18.14,18.14,0,0,0,3.26.22c.87,0,2.11,0,3.07-.1v-3.16a21,21,0,0,0-.16-3h2.37a18,18,0,0,0-.16,3v3.07a32.16,32.16,0,0,0,6.53-1.37Zm-8.68,9.44c-3.16,1.54-4.95,3.27-4.95,4.8,0,.67.44,1.31,1.37,1.92a5.92,5.92,0,0,0,2.85.93c.64,0,.73-.19.73-1.57Zm17.57-6a26.26,26.26,0,0,0-6.46-6.28l1.66-1.24a26.7,26.7,0,0,1,6.47,6.08Z"/><path d="M775.48,663a24.19,24.19,0,0,0,3.23-.54,53.36,53.36,0,0,1,9.76-1.15,10.18,10.18,0,0,1,5.5,1.21,5.7,5.7,0,0,1,2.72,5.09c0,3.42-2,6.47-5.5,8.64-2.44,1.47-4.52,2.15-9.28,3a8.28,8.28,0,0,0-1-2.34,20.18,20.18,0,0,0,9-2.59,7.86,7.86,0,0,0,2.76-2.27,7.21,7.21,0,0,0,1.63-4.35,3.88,3.88,0,0,0-2-3.58,8.87,8.87,0,0,0-3.94-.71,44.51,44.51,0,0,0-12.19,2.15Zm4.7-10a40.37,40.37,0,0,0,13,2l-.35,2.31a58.68,58.68,0,0,1-13.44-2.11Z"/><path d="M809.62,657.49a29.49,29.49,0,0,0,6.91.54,25.53,25.53,0,0,0,1-5.73l2.56.26a17,17,0,0,0-.52,2.05c-.44,1.85-.54,2.24-.86,3.39,6.27-.22,10.53-.67,12.61-1.38l.16,2.31c-.55.06-.74.06-1.41.16a108.4,108.4,0,0,1-11.87.93,43.93,43.93,0,0,1-3.2,8.22l0,.06a16.43,16.43,0,0,1,9.31-2.68c5.06,0,8.29,2.3,8.29,5.88,0,4.36-4.26,7.2-10.72,7.2a24,24,0,0,1-7.9-1.24,3.89,3.89,0,0,0,0-.52v-.19c0-.16-.07-.73-.16-1.76a19.48,19.48,0,0,0,8,1.6c5.05,0,8.38-2,8.38-5.09,0-2.43-2.3-3.9-6.14-3.9a17.42,17.42,0,0,0-7.43,1.73,6.76,6.76,0,0,0-2.68,2l-2.31-.93A48.33,48.33,0,0,0,816,660c-2,0-3.46-.1-5.31-.23-.42,0-.71,0-.9,0h-.25Z"/><path d="M851.15,653.55a48,48,0,0,0-.41,6.72c-.13,3.84-.23,8.19-.23,9.63,0,.39,0,1.22.07,1.92.13,1.92.54,3,1.5,3.84a6.06,6.06,0,0,0,4,1.25c3.81,0,6.75-1.92,8.58-5.57a18.49,18.49,0,0,0,1.57-5,10.54,10.54,0,0,0,2.3,1.57c-1.22,3.71-2.14,5.6-3.55,7.26a11.27,11.27,0,0,1-9,4c-2.72,0-4.73-.77-6-2.24s-1.76-3.2-1.76-6.56c0-2.14,0-2.94.29-13,0-1,0-1.54,0-2.08a9.66,9.66,0,0,0-.13-1.7Zm8.93.67a25.92,25.92,0,0,1,3.3,5l-1.63,1a24.91,24.91,0,0,0-3.27-5.08Zm3.52-1.85a27.4,27.4,0,0,1,3.33,5l-1.63.93a23.93,23.93,0,0,0-3.27-5Z"/><path d="M879,660.56c1.15,0,4.47-.42,7.07-.83a39.55,39.55,0,0,0,1-6.78v-.42l2.56.29a18.81,18.81,0,0,0-.61,3.07c-.16.93-.39,2.11-.67,3.65a16.92,16.92,0,0,1,1.88-.1c2.28,0,3.62.38,4.61,1.34s1.57,2.53,1.57,5.16c0,4.89-.83,9.15-2.14,11a3.36,3.36,0,0,1-3.14,1.51,12.12,12.12,0,0,1-4.83-1.25,7.39,7.39,0,0,0,.06-1.12,6.62,6.62,0,0,0-.09-1.28,11.88,11.88,0,0,0,4.76,1.47q1.2,0,1.83-1.53a24.92,24.92,0,0,0,1.34-8.9c0-3.39-1-4.48-3.93-4.48a18.07,18.07,0,0,0-2.31.16,60,60,0,0,1-4.83,13.57c-.42.77-1.09,2-2.08,3.84l-2.18-1.28a30.35,30.35,0,0,0,3.33-5.79,52,52,0,0,0,3.52-10.15c-2.75.42-4.28.67-4.57.74-.74.13-1,.19-1.86.41Zm21-2.94a29,29,0,0,1,6.69,11.32l-2.05,1.19a26.27,26.27,0,0,0-6.53-11.49Z"/><path d="M926.07,653.33c-.42.77-.42.77-3.56,8.8a53.74,53.74,0,0,1-2.3,5.28l-.35.7a5.21,5.21,0,0,0-.29.58l.16.06c2.11-3,3.74-4.19,6-4.19a3.57,3.57,0,0,1,3.2,1.89,8.13,8.13,0,0,1,.54,3.61v2.18a5.5,5.5,0,0,0,.51,3,3,3,0,0,0,2.43,1c2.28,0,3.94-1.31,5.12-4a13.72,13.72,0,0,0,1.22-4.54,8.92,8.92,0,0,0,2.11,1.63,17.26,17.26,0,0,1-2.27,5.63,7.45,7.45,0,0,1-6.37,3.49c-2.37,0-4.06-1.06-4.67-2.88a13.25,13.25,0,0,1-.29-3.46v-1.82a7,7,0,0,0-.25-2.43,1.73,1.73,0,0,0-1.83-1.19c-1.85,0-3.93,1.7-5.73,4.74a33.18,33.18,0,0,0-2.94,7.36l-2.46-.77c.41-.9.41-.9,5-13.18,3.49-9.25,4.19-11.27,4.38-12.23Z"/><path d="M741.65,766.32a15.3,15.3,0,0,0,3.1.19c1.76,0,4.32-.09,5.38-.22a2.32,2.32,0,0,0,1.18-.39l1.7,1.35c-.42.57-.48.77-1.76,4.64-.7,2.17-.93,2.78-1.5,4.48a25,25,0,0,1,8.73,2.53,36,36,0,0,0,.39-6.5,8.3,8.3,0,0,0-.13-1.57l2.4,0a11.49,11.49,0,0,0-.13,2,43.14,43.14,0,0,1-.58,6.94c1.73.9,2.82,1.47,4.39,2.4a5.52,5.52,0,0,0,.93.48l-.87,2.46a37.64,37.64,0,0,0-5-3.16,15.16,15.16,0,0,1-3.3,5.79,17.24,17.24,0,0,1-5.08,3.9,8.22,8.22,0,0,0-1.7-1.66,14.08,14.08,0,0,0,5.18-3.68,12.39,12.39,0,0,0,3-5.38,23.63,23.63,0,0,0-8.83-2.65,63.49,63.49,0,0,1-3,7.71c-1.15,2.21-2.34,3.17-3.87,3.17-2.4,0-4.23-2.28-4.23-5.25a7.2,7.2,0,0,1,3.81-6.34,10.44,10.44,0,0,1,5.76-1.37c1.06-3.14,1.44-4.35,2.56-8.07-2.53.2-3,.23-6,.32a20.15,20.15,0,0,0-2.33.16Zm0,13.89a5.3,5.3,0,0,0-1.53,3.68c0,1.69.92,3,2.08,3s2.39-2,4.73-8.8A7.75,7.75,0,0,0,741.65,780.21Z"/><path d="M784.63,765.33c-.42.77-.42.77-3.56,8.8a53.74,53.74,0,0,1-2.3,5.28c-.06.13-.19.38-.35.7a5.21,5.21,0,0,0-.29.58l.16.06c2.11-3,3.74-4.19,6-4.19a3.57,3.57,0,0,1,3.2,1.89,8.13,8.13,0,0,1,.54,3.61v2.18a5.5,5.5,0,0,0,.51,3,3,3,0,0,0,2.43,1c2.28,0,3.94-1.31,5.12-4a13.72,13.72,0,0,0,1.22-4.54,8.92,8.92,0,0,0,2.11,1.63,17.26,17.26,0,0,1-2.27,5.63,7.45,7.45,0,0,1-6.37,3.49c-2.37,0-4.06-1.06-4.67-2.88a13.25,13.25,0,0,1-.29-3.46v-1.82a7,7,0,0,0-.25-2.43,1.73,1.73,0,0,0-1.83-1.19c-1.85,0-3.93,1.7-5.73,4.74a33.18,33.18,0,0,0-2.94,7.36l-2.46-.77c.41-.9.41-.9,5-13.18,3.49-9.25,4.19-11.27,4.38-12.23Z"/><path d="M817.55,764.66a10.35,10.35,0,0,0-.51,2.05c-.22,1.08-.41,1.85-.86,3.48a26.66,26.66,0,0,0,5.73-1.05l.09,2.2-1.12.2a40.13,40.13,0,0,1-5.25.67,59.17,59.17,0,0,1-3.55,9.34c-.76,1.54-1.05,2.08-2.27,4.19-.29.45-.48.84-.64,1.09L807,785.55a29,29,0,0,0,3.07-5,48.22,48.22,0,0,0,3.33-8.26c-.81,0-1.89.07-2.37.07l-2.11,0a6.16,6.16,0,0,0-.71,0h-.41l0-2.2a20.46,20.46,0,0,0,3.8.25l2.31,0a33.49,33.49,0,0,0,1.09-6Zm15.2,24.83a18.17,18.17,0,0,0-5.6-4.36,6.18,6.18,0,0,1,.07,1c0,3.3-2.18,5.12-6.08,5.12s-6.24-1.79-6.24-4.64a4.52,4.52,0,0,1,3-4.06,9.32,9.32,0,0,1,3.77-.71,10.64,10.64,0,0,1,3.23.48c-.16-2.08-.22-3.58-.22-4.38a12.84,12.84,0,0,1,.32-3.11l2.17.23a9.76,9.76,0,0,0-.41,3,38.71,38.71,0,0,0,.35,4.87,22.9,22.9,0,0,1,6.27,3.87,3,3,0,0,0,.58.51Zm-11.26-5.73c-2.72,0-4.45,1.12-4.45,2.88s1.54,2.62,4.07,2.62c2.75,0,4-1.09,4-3.48,0-.39-.07-1.38-.07-1.38A9.47,9.47,0,0,0,821.49,783.76Zm11.23-8.7a34.76,34.76,0,0,0-8.48-4.36l1.19-1.79a43.55,43.55,0,0,1,8.44,4.23Z"/><path d="M847.6,765.55c-1.37,3.2-2.46,9.76-2.46,15,0,1.12.06,3,.13,4.48,0,.25,0,.32,0,.9v.6l.13,0a28.67,28.67,0,0,1,1.88-5.64,3.44,3.44,0,0,0,.26-.64l1.57.74c-1.51,3.14-2.75,7.2-2.75,9.09a3.73,3.73,0,0,0,.06.64l-2.27.22c0-.29-.06-.45-.19-1.18a50.63,50.63,0,0,1-.9-9.51,54.64,54.64,0,0,1,1.66-13.15,15,15,0,0,0,.36-2Zm3.23,6a21.86,21.86,0,0,0,5.76.52c1.25,0,2.12,0,3.43-.1,0-3,0-3,0-5.44a7.42,7.42,0,0,0-.1-1.31h2.4a32.88,32.88,0,0,0-.22,5c0,.35,0,.87,0,1.57a21.94,21.94,0,0,0,5.53-1.18l.1,2.17c-.06,0-.06,0-2.24.45a30.73,30.73,0,0,1-3.39.51c0,3.17.09,4.8.35,9.06a23.06,23.06,0,0,1,5.34,3.13c.39.26.45.32.8.55l-1,2.24a17.21,17.21,0,0,0-4.54-3.33l-.32-.19a2.43,2.43,0,0,0-.29-.2,5,5,0,0,1,.06.84,5.4,5.4,0,0,1-.38,2.17c-.77,1.7-2.72,2.69-5.34,2.69-3.72,0-6-1.76-6-4.54s2.53-4.55,6.08-4.55a9.12,9.12,0,0,1,3.55.64c-.1-.67-.22-3.68-.32-8.35-1.44.07-2.43.1-3.65.1s-2.49,0-3.61-.1a9.07,9.07,0,0,0-1-.06,5.09,5.09,0,0,0-.54,0,1.2,1.2,0,0,0-.32,0h-.13Zm6.15,12c-2.5,0-4.13,1.06-4.13,2.66s1.47,2.59,3.71,2.59a4.44,4.44,0,0,0,3.27-1.12,3.79,3.79,0,0,0,.6-2.5c0-.22,0-1,0-1A8.13,8.13,0,0,0,857,783.5Z"/><path d="M885.94,764.88a57.64,57.64,0,0,0,2.4,10.59c1.76-.73,2.81-1.15,7.74-2.85a14,14,0,0,0,2-.86l1,2.43a84.05,84.05,0,0,0-9.63,3.11c-5.47,2.2-7.84,4.32-7.84,7,0,2.88,2.46,4,8.73,4a31.55,31.55,0,0,0,9.16-1.09l.25,2.66a9,9,0,0,0-1,0l-.32,0-1.09.12a64.24,64.24,0,0,1-7.07.42,21.94,21.94,0,0,1-7.1-.86c-2.62-1-4-2.73-4-5.25a6.91,6.91,0,0,1,2.85-5.44,20.5,20.5,0,0,1,4.19-2.63,64.08,64.08,0,0,1-2.33-8.92,15.07,15.07,0,0,0-.55-2Zm10.81-.48a25.62,25.62,0,0,1,3.3,5l-1.63,1a24.73,24.73,0,0,0-3.27-5.09Zm3.59-1.76a26,26,0,0,1,3.33,5l-1.6.9a27.08,27.08,0,0,0-3.27-5Z"/><path d="M913.08,775a24.19,24.19,0,0,0,3.23-.54,53.36,53.36,0,0,1,9.76-1.15,10.18,10.18,0,0,1,5.5,1.21,5.7,5.7,0,0,1,2.72,5.09c0,3.42-1.95,6.47-5.5,8.64-2.44,1.47-4.52,2.15-9.28,3a8.28,8.28,0,0,0-1-2.34,20.18,20.18,0,0,0,9-2.59,7.86,7.86,0,0,0,2.76-2.27,7.21,7.21,0,0,0,1.63-4.35,3.88,3.88,0,0,0-2.05-3.58,8.87,8.87,0,0,0-3.94-.71,44.51,44.51,0,0,0-12.19,2.15Zm4.7-10a40.33,40.33,0,0,0,13,2l-.35,2.31A58.68,58.68,0,0,1,917,767.22Z"/><path d="M944.15,776.4a12.52,12.52,0,0,0,2.49.16h1.48a14.24,14.24,0,0,0,2.46-.16,23.3,23.3,0,0,0-.16,3.39v6.27a4.43,4.43,0,0,0,1.54,2.11c1.69,1.32,3.61,1.77,7.48,1.77a118.13,118.13,0,0,0,14.08-.61,7,7,0,0,0-.73,2.3c-3.52.13-7.56.19-11.68.19-5.15,0-7-.28-9-1.44a8.25,8.25,0,0,1-2.72-2.68,32.94,32.94,0,0,1-3.71,3.32c-.29.23-.48.42-1.12,1l-1.09-2.08a18.51,18.51,0,0,0,5-3.84v-7.71h-1.92a12.53,12.53,0,0,0-2.37.16Zm2-12.06a37.55,37.55,0,0,1,5,5.76l-1.64,1.44a30,30,0,0,0-4.86-6ZM969.49,774a15,15,0,0,0,2.56-.13,17.21,17.21,0,0,0-.13,2.53v9.28c0,1.66-.57,2-3.45,2-.61,0-1.12,0-2.28-.06a9.43,9.43,0,0,0-.44-1.89,19.45,19.45,0,0,0,3.13.26c.83,0,1.12-.13,1.12-.55v-9.79H955.25v9.25a17.45,17.45,0,0,0,.16,2.91h-2.24a18.12,18.12,0,0,0,.16-2.91V776.4a17.46,17.46,0,0,0-.13-2.53,15,15,0,0,0,2.47.13H956v-6.78a18.39,18.39,0,0,0-.13-2.63,24.23,24.23,0,0,0,2.81.13h8a20.36,20.36,0,0,0,2.91-.13,16.55,16.55,0,0,0-.13,2.63Zm-8.1-3a21.13,21.13,0,0,0-.09-2.27,22.8,22.8,0,0,0,2.43.1h3.9v-2.37h-9.72V774h3.48Zm5.7,11.46a11.62,11.62,0,0,0,.1,1.88c-.68-.06-1.32-.09-2.28-.09h-4.79v1.57h-1.86a18.21,18.21,0,0,0,.09-2V779.6a18,18,0,0,0-.09-2,17.38,17.38,0,0,0,2.27.09h4.38a17.68,17.68,0,0,0,2.28-.09,12.9,12.9,0,0,0-.1,1.89Zm-7,.25h5.21v-3.42h-5.21Zm7.51-8.67v-3.68h-4.44V774Z"/><path d="M987.86,778.93c-2.08,1.73-3,3.2-3,4.7s.93,2.53,2.72,3.14a20.56,20.56,0,0,0,5.85.64c4,0,7.81-.48,9.6-1.22l.29,2.62c-.45,0-.48.07-1.09.16a51.08,51.08,0,0,1-8.64.74,22.44,22.44,0,0,1-7.35-1c-2.41-1-3.65-2.62-3.65-4.83s1.21-4.1,3.68-6.18Zm-3.36-11.68A36.73,36.73,0,0,0,993,768a34.85,34.85,0,0,0,8.1-.68l.16,2.12a48,48,0,0,0-8.07,4.86L991.57,773a48.73,48.73,0,0,1,5.66-3.39,25.22,25.22,0,0,1-4.83.41,64.07,64.07,0,0,1-7-.41c-.61-.07-.61-.07-1.05-.1Zm16,5.53a26.17,26.17,0,0,1,3.26,5l-1.6,1a25.33,25.33,0,0,0-3.26-5.08Zm3.48-1.88a24,24,0,0,1,3.33,5l-1.6.89a27,27,0,0,0-3.26-5Z"/><path d="M1022,765.3a48.22,48.22,0,0,0-.42,6.75c-.13,3.84-.22,8.19-.22,9.63,0,.38,0,1.18.06,1.92.13,1.92.54,3,1.5,3.84a6.06,6.06,0,0,0,4,1.25c3.81,0,6.75-1.92,8.58-5.57a19.32,19.32,0,0,0,1.57-5,9.13,9.13,0,0,0,2.3,1.53c-1.22,3.75-2.14,5.63-3.55,7.26a11.2,11.2,0,0,1-9,4c-2.71,0-4.73-.76-6-2.24s-1.76-3.19-1.76-6.55c0-2.15,0-3,.29-13,0-1,0-1.57,0-2.08a9.41,9.41,0,0,0-.13-1.69Z"/><path d="M1049.52,769.14h1.16c.44,0,.83,0,1.82-.1,3.81-.29,14-.86,18.17-1.06a21.07,21.07,0,0,0,3.81-.35l.19,2.4a14.74,14.74,0,0,0-3.58.42,16.23,16.23,0,0,0-6.14,3.23c-2.56,2.14-3.94,4.74-3.94,7.39s1.63,4.83,4.48,5.92a16.29,16.29,0,0,0,4.8,1h.32l-.42,2.59-1-.19a16.15,16.15,0,0,1-6.91-2.47,7.78,7.78,0,0,1-3.55-6.53c0-3.71,2.18-7.26,6-9.82a21.76,21.76,0,0,1,3-1.7,63.24,63.24,0,0,1-7,.71c-6.62.45-9.47.7-11,1Z"/><path d="M1107.67,789.94a25.86,25.86,0,0,0-6.53-4.58c-.55-.29-1.28-.61-2.15-1a8.32,8.32,0,0,1,.07,1.15,5.6,5.6,0,0,1-.8,3.49c-.93,1.31-2.88,2-5.41,2a8.36,8.36,0,0,1-5-1.27,4.2,4.2,0,0,1-1.73-3.36c0-2.12,1.67-3.78,4.48-4.42a14.16,14.16,0,0,1,3.33-.32,13.85,13.85,0,0,1,2.88.26,1,1,0,0,1,0-.39,2.66,2.66,0,0,1,0-.35c0-.29,0-1-.07-1.89,0-.41,0-1-.06-1.85-1.15,0-2.75.06-3.78.06-1.92,0-3.42-.06-5.41-.22a6.46,6.46,0,0,0-.8,0h-.25l0-2.11a39.35,39.35,0,0,0,7.33.51c.83,0,2,0,2.85,0l-.07-4.38c-.93,0-1.44,0-2.17,0-2.34,0-4.93-.1-7.81-.32a4.24,4.24,0,0,0-.58,0,2.9,2.9,0,0,0-.45,0l0-2.17a40.14,40.14,0,0,0,8.19.63c.64,0,1.73,0,2.78,0,0-3.9,0-3.9-.16-4.6h2.47a34.38,34.38,0,0,0-.23,4.51,44.77,44.77,0,0,0,9.47-1.32l.16,2.18a20.77,20.77,0,0,0-2.2.26,67.78,67.78,0,0,1-7.43.76c0,2.63,0,2.63.07,4.32,4.35-.32,7.1-.7,8.86-1.31l.13,2.21c-.42,0-.74.06-1.86.22-2.21.36-4.73.61-7.1.77.06,1.79.06,1.79.19,4.9a27.93,27.93,0,0,1,8.93,4.67,11.8,11.8,0,0,0,1.09.74Zm-10.82-6.05a11.7,11.7,0,0,0-3.26-.35c-3.17,0-5.25,1.15-5.25,2.84s1.6,2.66,4.38,2.66c1.7,0,2.91-.35,3.52-1.06.45-.44.64-1.34.64-2.88Z"/><path d="M1133.14,766.42a10.36,10.36,0,0,0-.13-1.86h2.4a26.14,26.14,0,0,0-.16,4v.35c6,0,8.51-.09,9.57-.22V771a56.43,56.43,0,0,0-6.11-.16c-.48,0-.84,0-3.43.06v6.34a9.07,9.07,0,0,1,.77,3.78,10.31,10.31,0,0,1-4.29,8.35,20.51,20.51,0,0,1-5,2.59,7.21,7.21,0,0,0-1.41-2,16.44,16.44,0,0,0,5.18-2.4,8.29,8.29,0,0,0,3.59-6.75,4.43,4.43,0,0,1-.87,1.57,5.35,5.35,0,0,1-9.28-3.33c0-3,2.4-5.28,5.67-5.28a4.91,4.91,0,0,1,3.71,1.44c0-.45,0-.57,0-1.76,0-.13,0-.45,0-.83V770.9c-6.43.12-12.89.44-15,.8l-.1-2.34c.58,0,.8,0,1.28,0,.93,0,.93,0,6.08-.19,3.07-.13,5.57-.19,7.74-.26Zm-1.38,9.63a4.11,4.11,0,0,0-2.14-.51,3.38,3.38,0,0,0-3.55,3.36,3.09,3.09,0,0,0,3.29,3.16,3.59,3.59,0,0,0,3.75-3.77A2.31,2.31,0,0,0,1131.76,776.05Z"/><path d="M1152.92,772.56c1.15,0,4.47-.42,7.07-.83a39.55,39.55,0,0,0,1-6.78v-.42l2.56.29a18.81,18.81,0,0,0-.61,3.07c-.16.93-.39,2.11-.67,3.65a16.92,16.92,0,0,1,1.88-.1c2.28,0,3.62.38,4.61,1.34s1.57,2.53,1.57,5.16c0,4.89-.83,9.15-2.14,11a3.36,3.36,0,0,1-3.14,1.51,12.12,12.12,0,0,1-4.83-1.25,7.39,7.39,0,0,0,.06-1.12,6.62,6.62,0,0,0-.09-1.28,11.88,11.88,0,0,0,4.76,1.47q1.2,0,1.83-1.53a24.92,24.92,0,0,0,1.34-8.9c0-3.39-1-4.48-3.93-4.48a18.07,18.07,0,0,0-2.31.16,60,60,0,0,1-4.83,13.57c-.42.77-1.09,2-2.08,3.84l-2.18-1.28a30.35,30.35,0,0,0,3.33-5.79,52,52,0,0,0,3.52-10.15c-2.75.42-4.28.67-4.57.74-.74.13-1,.19-1.86.41Zm21-2.94a28.9,28.9,0,0,1,6.68,11.32l-2,1.19a26.27,26.27,0,0,0-6.53-11.49Z"/><path d="M1198.58,784.27a9.72,9.72,0,0,0,.13-2.08,5.82,5.82,0,0,1,1.18-3.84,9.23,9.23,0,0,1,2.82-2.4,14.78,14.78,0,0,0,2.17-1.73,3.77,3.77,0,0,0,1.12-2.65c0-2.4-2.11-4.07-5.15-4.07a5.86,5.86,0,0,0-4.77,2,6.3,6.3,0,0,0-1.15,2.62l-2.69-.41a7.88,7.88,0,0,1,2.63-4.48,9.19,9.19,0,0,1,6.08-1.89c4.41,0,7.64,2.5,7.64,5.92a6,6,0,0,1-.76,3.1,8.76,8.76,0,0,1-2.92,2.79c-1.88,1.31-2.43,1.76-2.87,2.4a4.68,4.68,0,0,0-.84,2.94,12,12,0,0,0,.13,1.76Zm2.94,3v3h-3.1v-3Z"/><path d="M1224.12,778.93c0-1.89,0-3.27.09-4.8a26.87,26.87,0,0,1-2.94,4.77A5.35,5.35,0,0,0,1220,777a31,31,0,0,0,5.47-9.47,18.14,18.14,0,0,0,1.09-4l2.14.73a27.73,27.73,0,0,0-.93,2.72c-.35,1-.93,2.5-1.69,4.16v17.54c0,1.92,0,2.88.13,4h-2.28a31.54,31.54,0,0,0,.2-3.94Zm7.32-2.15a27.83,27.83,0,0,0-3,.16v-2a18.52,18.52,0,0,0,2.94.16h3.07a22,22,0,0,0-1.69-3.68h-1.7a28.77,28.77,0,0,0-3,.16v-2a23.79,23.79,0,0,0,2.94.16h4.41v-2.87a17.35,17.35,0,0,0-.19-3h2.08a29.72,29.72,0,0,0-.09,3v2.87H1240v-2.87a30,30,0,0,0-.1-3H1242a16.59,16.59,0,0,0-.19,3v2.87h4.9a16.14,16.14,0,0,0,2.91-.19v2.08a19.68,19.68,0,0,0-2.91-.16h-2.34a30.76,30.76,0,0,1-1.95,3.68h3.42a18.12,18.12,0,0,0,2.91-.16v2a26.06,26.06,0,0,0-2.91-.16h-6.59c0,1.51,0,1.64,0,2.34h5.57a23.26,23.26,0,0,0,2.91-.16v1.92a24,24,0,0,0-2.91-.16h-5.7c-.13,1.25-.16,1.54-.32,2.46h7.71a22.73,22.73,0,0,0,3-.16v2.08a22.3,22.3,0,0,0-3-.19h-6.62c2.14,3,5.37,4.77,10.21,5.76a5.91,5.91,0,0,0-1,2.05,21,21,0,0,1-7.87-3.94,13.36,13.36,0,0,1-3.07-3.42,10.91,10.91,0,0,1-3.87,4.7,18.35,18.35,0,0,1-6.21,2.53,5.65,5.65,0,0,0-1-1.86,16.06,16.06,0,0,0,5.85-2,8.42,8.42,0,0,0,3.39-3.78h-5.44a23.54,23.54,0,0,0-3.07.19V783a19.92,19.92,0,0,0,3,.16h6a19.28,19.28,0,0,0,.35-2.46h-4.58a19.38,19.38,0,0,0-2.94.16V779a19.12,19.12,0,0,0,2.91.16h4.74c0-.8,0-1,0-2.34Zm-.25-12.41a22.25,22.25,0,0,1,2.62,4l-1.57.83a15.64,15.64,0,0,0-2.56-4.06Zm9.28,10.78a18.48,18.48,0,0,0,1.79-3.68h-7.46a23.16,23.16,0,0,1,1.63,3.68Zm7.64-9.95a23.59,23.59,0,0,1-2.91,4.06l-1.63-.7a15.21,15.21,0,0,0,2.78-4.16Z"/><path d="M742.92,821.55c-1.37,3.2-2.46,9.76-2.46,15,0,1.12.06,3,.13,4.48,0,.25,0,.32,0,.9v.6l.13,0a28.67,28.67,0,0,1,1.88-5.64,3.44,3.44,0,0,0,.26-.64l1.57.74c-1.5,3.14-2.75,7.2-2.75,9.09a3.73,3.73,0,0,0,.06.64l-2.27.22c0-.29-.06-.45-.19-1.18a50.63,50.63,0,0,1-.9-9.51,54.2,54.2,0,0,1,1.67-13.15,15.93,15.93,0,0,0,.35-2Zm3.24,6a21.73,21.73,0,0,0,5.75.52c1.25,0,2.12,0,3.43-.1,0-3,0-3,0-5.44a7.42,7.42,0,0,0-.1-1.31h2.4a32.88,32.88,0,0,0-.22,5c0,.35,0,.87,0,1.57a21.94,21.94,0,0,0,5.53-1.18l.1,2.17c-.06,0-.06,0-2.24.45a30.73,30.73,0,0,1-3.39.51c0,3.17.09,4.8.35,9.06a23.06,23.06,0,0,1,5.34,3.13c.39.26.45.32.8.55l-1,2.24a17.21,17.21,0,0,0-4.54-3.33l-.32-.19a2.43,2.43,0,0,0-.29-.2,5,5,0,0,1,.06.84,5.4,5.4,0,0,1-.38,2.17c-.77,1.7-2.72,2.69-5.34,2.69-3.72,0-6.05-1.76-6.05-4.54s2.53-4.55,6.08-4.55a9.12,9.12,0,0,1,3.55.64c-.1-.67-.22-3.68-.32-8.35-1.44.07-2.43.1-3.65.1s-2.49,0-3.61-.1a9.07,9.07,0,0,0-1-.06,5.09,5.09,0,0,0-.54,0,1.2,1.2,0,0,0-.32,0h-.13Zm6.14,12c-2.5,0-4.13,1.06-4.13,2.66s1.47,2.59,3.71,2.59a4.44,4.44,0,0,0,3.27-1.12,3.79,3.79,0,0,0,.6-2.5c0-.22,0-1,0-1A8.13,8.13,0,0,0,752.3,839.5Z"/><path d="M779.05,832a3.25,3.25,0,0,0-.19.54l-.19.64-.16.7a28.73,28.73,0,0,1-5.6,11,7.11,7.11,0,0,0-2.12-1.37,20.54,20.54,0,0,0,4.71-7.87,16.74,16.74,0,0,0,1.12-4.36Zm4.48-7.84a14.38,14.38,0,0,0-.19-3.27H786a18.31,18.31,0,0,0-.16,3.33v2.08h8.07a21,21,0,0,0,3.74-.19v2.43a24.56,24.56,0,0,0-3.68-.16H785.8v15.93a19.2,19.2,0,0,0,.16,3.4h-2.62a17.73,17.73,0,0,0,.19-3.36v-16h-7.84a24.56,24.56,0,0,0-3.68.16v-2.43a20.64,20.64,0,0,0,3.71.19h7.81Zm9,7.2a22.65,22.65,0,0,0,1.19,3.61,28.27,28.27,0,0,0,5,8.58,6.86,6.86,0,0,0-2,1.5,38.19,38.19,0,0,1-5.57-11c-.29-.86-.57-1.56-.8-2.08Zm.93-11.88a25.78,25.78,0,0,1,3.26,4.84l-1.63.92a25.82,25.82,0,0,0-3.23-4.92Zm4-1.18a26.74,26.74,0,0,1,3.29,5l-1.6.93a23.48,23.48,0,0,0-3.26-5Z"/><path d="M806.25,832.66a22.71,22.71,0,0,0,4,.19h18.59a24.91,24.91,0,0,0,3.87-.16v2.59a35.31,35.31,0,0,0-3.9-.13H810.22a33.83,33.83,0,0,0-4,.13Z"/><path d="M847.5,847.25a20.88,20.88,0,0,0,.19-3.36V824a18.57,18.57,0,0,0-.19-3.27h2.75a18.1,18.1,0,0,0-.16,3.33v6a84.65,84.65,0,0,1,14.24,6.76L863,839.18A66.92,66.92,0,0,0,851,832.85a3.63,3.63,0,0,1-1-.55l-.07,0a10.18,10.18,0,0,1,.13,1.88v9.64a19.57,19.57,0,0,0,.16,3.39ZM859.79,822a24.26,24.26,0,0,1,3.29,5l-1.6,1a23.72,23.72,0,0,0-3.29-5.08Zm3.61-1.76a27.3,27.3,0,0,1,3.3,5l-1.6.93a23.3,23.3,0,0,0-3.27-5.05Z"/><path d="M893.13,829c-.45,9.69-3.55,14.46-12.13,18.56a4.71,4.71,0,0,0-1.56-2c4.54-1.63,8.35-4.93,9.82-8.55a23.66,23.66,0,0,0,1.5-8h-8.83a29.75,29.75,0,0,1-5.57,6.78,4.55,4.55,0,0,0-1.88-1.5,24.49,24.49,0,0,0,6.84-8.84A16.7,16.7,0,0,0,883,821l2.43.76a15.28,15.28,0,0,0-.8,1.76,23.83,23.83,0,0,1-1.67,3.49,5.72,5.72,0,0,0,.67,0H897.8a25.37,25.37,0,0,0,3.94-.19v2.33l-1-.06-3,0Zm4.16-9.19a24.59,24.59,0,0,1,3.3,5l-1.6,1a25.28,25.28,0,0,0-3.27-5.09Zm3.81-1.47a29.11,29.11,0,0,1,3.33,5l-1.64.93a22.38,22.38,0,0,0-3.26-5Z"/><path d="M909.93,832.66a22.71,22.71,0,0,0,4,.19h18.59a24.91,24.91,0,0,0,3.87-.16v2.59a35.31,35.31,0,0,0-3.9-.13H913.9a33.83,33.83,0,0,0-4,.13Z"/><path d="M958,821.49a12.87,12.87,0,0,0-.86,2.3,172.38,172.38,0,0,1-6.66,18.72c4.26-.29,11.78-1.28,15.55-2a62.16,62.16,0,0,0-4.92-8.29l2-1.09a83,83,0,0,1,8,14.46l-2.24,1.22a43.07,43.07,0,0,0-1.89-4.32,195,195,0,0,1-19.68,2.65,22.55,22.55,0,0,0-2.72.36l-.32-2.66.9,0c.22,0,2-.09,2.72-.16A123.37,123.37,0,0,0,952.62,830a61.12,61.12,0,0,0,2.53-9.21Z"/><path d="M985,821.68a45.58,45.58,0,0,0-1.34,5.12,47.48,47.48,0,0,0-1,10c0,2.49.06,4.38.19,6.07a30,30,0,0,1,2.08-6.23l1.54.73c-1.44,3.17-2.59,7-2.59,8.8v.48l-2.31.19c-.06-.51-.09-.67-.19-1.28a45.64,45.64,0,0,1-.83-9.05A52.65,52.65,0,0,1,982,823.86a19.17,19.17,0,0,0,.45-2.56Zm8.16,12.86c-1.6,1.76-2.4,3.3-2.4,4.71,0,2.37,2,3.52,6.15,3.52a21.17,21.17,0,0,0,7.36-1.12l.32,2.46a10.93,10.93,0,0,0-1.12.16,32.91,32.91,0,0,1-6.56.64c-3.65,0-6-.77-7.33-2.43a4.52,4.52,0,0,1-1-2.94c0-2,.8-3.68,2.78-6Zm-4.06-9.47a21.78,21.78,0,0,0,5.44.48,34.59,34.59,0,0,0,8.57-.86l.16,2.27-2.2.29a55.34,55.34,0,0,1-6.88.41,41.33,41.33,0,0,1-5.12-.32Z"/><path d="M1023.53,823.47a12.58,12.58,0,0,0-.41,2.18c-1.35,9.12-3.88,15.13-8.45,20a7,7,0,0,0-2-1.67,20.57,20.57,0,0,0,4.64-6.33,37.13,37.13,0,0,0,3.3-11.11,25.76,25.76,0,0,0,.32-3,2.89,2.89,0,0,0,0-.51Zm8.86-.48a40.77,40.77,0,0,0,1.48,7.68c1.56,5.73,4,10.11,7.26,13.22a7.22,7.22,0,0,0-2,1.79,29.61,29.61,0,0,1-5.35-8.32,47.2,47.2,0,0,1-3.36-11.78,14.84,14.84,0,0,0-.41-2.11Z"/><path d="M1054.57,831.38a70.2,70.2,0,0,1,6.5,6,55.21,55.21,0,0,0,4.25-3.93,46.6,46.6,0,0,0,5.28-7c.1-.16.13-.19.26-.38-.45,0-.45,0-18.27.06-1.73,0-2.63,0-3.71.13v-2.53a23,23,0,0,0,3.74.2h18.65a4,4,0,0,0,1.8-.23l1.34,1.6a9.3,9.3,0,0,0-1.28,1.7,49.28,49.28,0,0,1-10.56,12,73,73,0,0,1,4.67,5.82l-2,1.63a60.52,60.52,0,0,0-12.48-13.76Z"/><path d="M1085.2,833.26a14.44,14.44,0,0,0,2.94-.57,41.44,41.44,0,0,1,9.76-1.41c3.29,0,5.57,1,6.78,3a7,7,0,0,1,1,3.64c0,3.59-2.88,6.85-7.32,8.26a30.85,30.85,0,0,1-6.6,1.22,7,7,0,0,0-.83-2.21,2.59,2.59,0,0,0,.45,0,22.07,22.07,0,0,0,6.3-1c3.65-1.19,5.86-3.62,5.86-6.47s-2-4.48-5.92-4.48a37.62,37.62,0,0,0-8.42,1.28,14.07,14.07,0,0,0-3.42,1.06Z"/><path d="M1117.64,825.14h1.16c.44,0,.83,0,1.82-.1,3.81-.29,14.05-.86,18.17-1.06a21.07,21.07,0,0,0,3.81-.35l.19,2.4a14.74,14.74,0,0,0-3.58.42,16.23,16.23,0,0,0-6.14,3.23c-2.56,2.14-3.94,4.74-3.94,7.39s1.63,4.83,4.48,5.92a16.29,16.29,0,0,0,4.8,1h.32l-.42,2.59-1-.19a16.15,16.15,0,0,1-6.91-2.47,7.78,7.78,0,0,1-3.55-6.53c0-3.71,2.18-7.26,6-9.82a21.76,21.76,0,0,1,3-1.7,63.24,63.24,0,0,1-7,.71c-6.62.45-9.47.7-11,1Z"/><path d="M1149.49,847.57a2.13,2.13,0,1,1-2.13-2.13A2.14,2.14,0,0,1,1149.49,847.57Z"/><path d="M1159.49,847.57a2.13,2.13,0,1,1-2.13-2.13A2.14,2.14,0,0,1,1159.49,847.57Z"/><path d="M1168.49,847.57a2.13,2.13,0,1,1-2.13-2.13A2.14,2.14,0,0,1,1168.49,847.57Z"/></g></g></svg>